<svg width="30" height="30" viewBox="0 0 30 30" fill="none" xmlns="http://www.w3.org/2000/svg">
<path fill-rule="evenodd" clip-rule="evenodd" d="M21.6667 0H8.33333C3.73097 0 0 3.73097 0 8.33333V21.6667C0 26.269 3.73097 30 8.33333 30H21.6667C26.269 30 30 26.269 30 21.6667V8.33333C30 3.73097 26.269 0 21.6667 0ZM27.0833 21.6667C27.0742 24.6543 24.6543 27.0742 21.6667 27.0833H8.33333C5.34558 27.0742 2.92582 24.6543 2.91667 21.6667V8.33333C2.92582 5.34558 5.34558 2.92582 8.33333 2.91667H21.6667C24.6543 2.92582 27.0742 5.34558 27.0833 8.33333V21.6667ZM22.9167 8.75C23.8372 8.75 24.5833 8.0038 24.5833 7.08333C24.5833 6.16287 23.8372 5.41667 22.9167 5.41667C21.9962 5.41667 21.25 6.16287 21.25 7.08333C21.25 8.0038 21.9962 8.75 22.9167 8.75ZM15 7.5C10.8579 7.5 7.5 10.8579 7.5 15C7.5 19.1422 10.8579 22.5 15 22.5C19.1422 22.5 22.5 19.1422 22.5 15C22.5045 13.0095 21.7157 11.0993 20.3082 9.6918C18.9007 8.28432 16.9905 7.49557 15 7.5ZM10.4167 15C10.4167 17.5313 12.4687 19.5833 15 19.5833C17.5313 19.5833 19.5833 17.5313 19.5833 15C19.5833 12.4687 17.5313 10.4167 15 10.4167C12.4687 10.4167 10.4167 12.4687 10.4167 15Z" fill="black"/>
</svg>
