<svg width="28" height="28" viewBox="0 0 28 28" fill="none" xmlns="http://www.w3.org/2000/svg">
<path fill-rule="evenodd" clip-rule="evenodd" d="M2.33333 0C1.04466 0 0 1.04466 0 2.33333V25.6667C0 26.9553 1.04466 28 2.33333 28H25.6667C26.9553 28 28 26.9553 28 25.6667V2.33333C28 1.04466 26.9553 0 25.6667 0H2.33333ZM8.58785 6.22645C8.59661 7.71395 7.48317 8.63052 6.16191 8.62395C4.91722 8.61739 3.83222 7.62645 3.83878 6.22865C3.84535 4.91395 4.88441 3.85739 6.23411 3.88802C7.60348 3.91865 8.59661 4.92271 8.58785 6.22645ZM14.4351 10.5183H10.5151H10.5129V23.8336H14.656V23.523C14.656 22.932 14.6555 22.3409 14.655 21.7496C14.6538 20.1726 14.6524 18.5939 14.6605 17.0173C14.6627 16.6345 14.6801 16.2364 14.7786 15.871C15.1482 14.506 16.3755 13.6245 17.7448 13.8412C18.6242 13.9788 19.206 14.4886 19.451 15.3177C19.602 15.836 19.6698 16.3938 19.6764 16.9342C19.6941 18.5638 19.6916 20.1934 19.6891 21.8232C19.6882 22.3984 19.6873 22.974 19.6873 23.5492V23.8314H23.8436V23.5121C23.8436 22.809 23.8432 22.106 23.8428 21.403C23.842 19.646 23.8411 17.889 23.8457 16.1314C23.8479 15.3373 23.7627 14.5542 23.5679 13.7864C23.277 12.6445 22.6755 11.6995 21.6977 11.0171C21.0042 10.5314 20.2429 10.2186 19.392 10.1836C19.2951 10.1796 19.1974 10.1743 19.0993 10.169C18.6642 10.1455 18.2219 10.1216 17.806 10.2055C16.616 10.4439 15.5705 10.9886 14.7807 11.9488C14.689 12.059 14.5992 12.1708 14.4653 12.3377L14.4351 12.3755V10.5183ZM4.17144 23.838H8.29488V10.527H4.17144V23.838Z" fill="black"/>
</svg>
