<svg width="52" height="52" viewBox="0 0 52 52" fill="none" xmlns="http://www.w3.org/2000/svg">
<path fill-rule="evenodd" clip-rule="evenodd" d="M10.1667 7C8.41776 7 7 8.41776 7 10.1667V41.8333C7 43.5822 8.41776 45 10.1667 45H41.8333C43.5822 45 45 43.5822 45 41.8333V10.1667C45 8.41776 43.5822 7 41.8333 7H10.1667ZM18.6549 15.4502C18.6668 17.4689 17.1557 18.7128 15.3626 18.7039C13.6734 18.695 12.2009 17.3502 12.2098 15.4532C12.2187 13.6689 13.6288 12.235 15.4606 12.2766C17.319 12.3182 18.6668 13.6808 18.6549 15.4502ZM26.5905 21.2748H21.2705H21.2675V39.3456H26.8903V38.924C26.8903 38.122 26.8896 37.3198 26.889 36.5173C26.8873 34.3771 26.8854 32.2345 26.8964 30.0949C26.8993 29.5754 26.923 29.0351 27.0566 28.5392C27.5582 26.6867 29.2239 25.4904 31.0823 25.7845C32.2757 25.9713 33.0653 26.6631 33.3978 27.7883C33.6027 28.4917 33.6948 29.2488 33.7037 29.9822C33.7277 32.1938 33.7243 34.4054 33.721 36.6172C33.7197 37.3979 33.7184 38.179 33.7184 38.9597V39.3426H39.3591V38.9092C39.3591 37.955 39.3587 37.001 39.3581 36.047C39.357 33.6625 39.3557 31.278 39.3621 28.8926C39.365 27.8149 39.2493 26.7522 38.985 25.7101C38.5902 24.1604 37.7739 22.8779 36.4468 21.9517C35.5057 21.2926 34.4725 20.8681 33.3177 20.8206C33.1862 20.8151 33.0536 20.808 32.9204 20.8008C32.33 20.7689 31.7298 20.7364 31.1653 20.8503C29.5503 21.1739 28.1314 21.9131 27.0596 23.2163C26.935 23.3658 26.8132 23.5175 26.6314 23.7441L26.5905 23.7954V21.2748ZM12.6612 39.3515H18.2573V21.2866H12.6612V39.3515Z" fill="black"/>
</svg>
