<svg width="27" height="24" viewBox="0 0 27 24" fill="none" xmlns="http://www.w3.org/2000/svg">
<path d="M26.9866 5.82655C26.8652 8.41251 25.0301 11.9533 21.4814 16.4621C17.8112 21.1832 14.7077 23.5039 12.144 23.5039C10.5923 23.5039 9.25641 22.0717 8.16346 19.194C7.42132 16.5948 6.74666 13.969 5.99103 11.3433C5.18143 8.47882 4.31786 7.0466 3.37333 7.0466C3.18442 7.0466 2.48277 7.47096 1.26837 8.30642L0 6.68854C1.34933 5.5348 2.64469 4.38107 3.94005 3.22733C5.72117 1.71554 7.057 0.919861 7.93407 0.840293C10.039 0.628111 11.3344 2.06034 11.8201 5.08392C12.3464 8.35947 12.7107 10.3884 12.9131 11.1841C13.4933 13.8894 14.168 15.2156 14.9101 15.2156C15.4768 15.2156 16.3269 14.3668 17.4603 12.6031C18.5938 10.8526 19.201 9.5132 19.2819 8.58491C19.4439 7.07312 18.8367 6.31722 17.4603 6.31722C16.8127 6.31722 16.1515 6.4631 15.4633 6.75485C16.7857 2.47144 19.3224 0.389407 23.0601 0.508759C25.8397 0.588327 27.1486 2.36535 26.9866 5.82655Z" fill="black"/>
</svg>
