<svg width="20" height="20" viewBox="0 0 20 20" fill="none" xmlns="http://www.w3.org/2000/svg">
<path fill-rule="evenodd" clip-rule="evenodd" d="M6.22344 0.887031C7.20094 0.842031 7.5126 0.832031 10.0026 0.832031C12.4926 0.832031 12.8043 0.842865 13.7809 0.887031C14.7576 0.931198 15.4243 1.08703 16.0076 1.31286C16.6184 1.5437 17.1726 1.90453 17.6309 2.3712C18.0976 2.8287 18.4576 3.38203 18.6876 3.9937C18.9143 4.57703 19.0693 5.2437 19.1143 6.2187C19.1593 7.19786 19.1693 7.50953 19.1693 9.9987C19.1693 12.4887 19.1584 12.8004 19.1143 13.7779C19.0701 14.7529 18.9143 15.4195 18.6876 16.0029C18.4576 16.6146 18.097 17.1689 17.6309 17.627C17.1726 18.0937 16.6184 18.4537 16.0076 18.6837C15.4243 18.9104 14.7576 19.0654 13.7826 19.1104C12.8043 19.1554 12.4926 19.1654 10.0026 19.1654C7.5126 19.1654 7.20094 19.1545 6.22344 19.1104C5.24844 19.0662 4.58177 18.9104 3.99844 18.6837C3.3867 18.4537 2.83245 18.0931 2.37427 17.627C1.90792 17.1693 1.54703 16.6153 1.31677 16.0037C1.09094 15.4204 0.935937 14.7537 0.890937 13.7787C0.845937 12.7995 0.835938 12.4879 0.835938 9.9987C0.835938 7.5087 0.846771 7.19703 0.890937 6.22036C0.935104 5.2437 1.09094 4.57703 1.31677 3.9937C1.54737 3.3821 1.90854 2.82813 2.3751 2.37036C2.83264 1.90412 3.38633 1.54323 3.9976 1.31286C4.58094 1.08703 5.2476 0.932031 6.2226 0.887031H6.22344ZM13.7068 2.53703C12.7401 2.49286 12.4501 2.4837 10.0026 2.4837C7.5551 2.4837 7.2651 2.49286 6.29844 2.53703C5.40427 2.57786 4.91927 2.72703 4.59594 2.85286C4.16844 3.01953 3.8626 3.21703 3.54177 3.53786C3.23764 3.83374 3.00359 4.19393 2.85677 4.59203C2.73094 4.91536 2.58177 5.40036 2.54094 6.29453C2.49677 7.2612 2.4876 7.5512 2.4876 9.9987C2.4876 12.4462 2.49677 12.7362 2.54094 13.7029C2.58177 14.597 2.73094 15.082 2.85677 15.4054C3.00344 15.8029 3.2376 16.1637 3.54177 16.4595C3.8376 16.7637 4.19844 16.9979 4.59594 17.1445C4.91927 17.2704 5.40427 17.4195 6.29844 17.4604C7.2651 17.5045 7.55427 17.5137 10.0026 17.5137C12.4509 17.5137 12.7401 17.5045 13.7068 17.4604C14.6009 17.4195 15.0859 17.2704 15.4093 17.1445C15.8368 16.9779 16.1426 16.7804 16.4634 16.4595C16.7676 16.1637 17.0018 15.8029 17.1484 15.4054C17.2743 15.082 17.4234 14.597 17.4643 13.7029C17.5084 12.7362 17.5176 12.4462 17.5176 9.9987C17.5176 7.5512 17.5084 7.2612 17.4643 6.29453C17.4234 5.40036 17.2743 4.91536 17.1484 4.59203C16.9818 4.16453 16.7843 3.8587 16.4634 3.53786C16.1675 3.23376 15.8074 2.99971 15.4093 2.85286C15.0859 2.72703 14.6009 2.57786 13.7068 2.53703ZM8.83177 12.8245C9.48565 13.0967 10.2138 13.1335 10.8917 12.9285C11.5697 12.7235 12.1554 12.2895 12.5489 11.7006C12.9425 11.1117 13.1193 10.4044 13.0493 9.69962C12.9793 8.99481 12.6668 8.33617 12.1651 7.8362C11.8453 7.51659 11.4586 7.27187 11.0329 7.11965C10.6071 6.96743 10.153 6.9115 9.70302 6.95588C9.25307 7.00026 8.81856 7.14385 8.43077 7.37631C8.04298 7.60877 7.71156 7.92432 7.46036 8.30024C7.20915 8.67616 7.04443 9.1031 6.97803 9.55033C6.91164 9.99756 6.94523 10.4539 7.07639 10.8866C7.20754 11.3193 7.433 11.7175 7.73654 12.0526C8.04007 12.3877 8.41412 12.6514 8.83177 12.8245ZM6.67094 6.66703C7.10846 6.22951 7.62787 5.88245 8.19952 5.64567C8.77117 5.40888 9.38386 5.28701 10.0026 5.28701C10.6214 5.28701 11.234 5.40888 11.8057 5.64567C12.3773 5.88245 12.8967 6.22951 13.3343 6.66703C13.7718 7.10455 14.1189 7.62396 14.3556 8.19561C14.5924 8.76726 14.7143 9.37995 14.7143 9.9987C14.7143 10.6174 14.5924 11.2301 14.3556 11.8018C14.1189 12.3734 13.7718 12.8928 13.3343 13.3304C12.4507 14.214 11.2522 14.7104 10.0026 14.7104C8.75299 14.7104 7.55455 14.214 6.67094 13.3304C5.78732 12.4468 5.29092 11.2483 5.29092 9.9987C5.29092 8.74908 5.78732 7.55064 6.67094 6.66703ZM15.7593 5.9887C15.8677 5.88642 15.9545 5.76343 16.0145 5.62701C16.0746 5.49059 16.1066 5.3435 16.1088 5.19447C16.111 5.04544 16.0832 4.89749 16.0272 4.75937C15.9711 4.62126 15.888 4.49579 15.7826 4.3904C15.6772 4.285 15.5517 4.20183 15.4136 4.1458C15.2755 4.08976 15.1275 4.06201 14.9785 4.06418C14.8295 4.06636 14.6824 4.09841 14.546 4.15844C14.4095 4.21848 14.2865 4.30528 14.1843 4.4137C13.9854 4.62456 13.8765 4.90463 13.8807 5.19447C13.8849 5.48431 14.0019 5.7611 14.2069 5.96607C14.4119 6.17104 14.6887 6.28805 14.9785 6.29228C15.2683 6.29651 15.5484 6.18761 15.7593 5.9887Z" fill="black"/>
</svg>
