<svg width="253" height="62" viewBox="0 0 253 62" fill="none" xmlns="http://www.w3.org/2000/svg">
<g clip-path="url(#clip0_12759_27113)">
<path d="M94.8544 32.8029C94.8544 38.1626 92.5485 40.7713 87.801 40.7713C83.0536 40.7713 80.7176 38.1626 80.7176 32.8029V17.0762H74.9453V32.9978C74.9453 37.0757 76.0832 40.254 78.3288 42.4504C80.5669 44.6392 83.7469 45.7411 87.7784 45.7411C91.81 45.7411 94.9598 44.6317 97.1753 42.4504C99.4058 40.254 100.536 37.0682 100.536 32.9978V17.0762H94.8393V32.8029H94.8544Z" fill="black"/>
<path d="M138.398 45.3354H144.171V16.2656L138.398 17.465V45.3354Z" fill="black"/>
<path d="M215.301 45.3354H221.073V16.2656L215.301 17.465V45.3354Z" fill="black"/>
<path d="M159.894 22.8561C161.423 22.0466 163.172 21.6343 165.086 21.6343C168.032 21.6343 170.564 22.7137 172.591 24.8351L172.742 24.9925L176.502 21.5593L176.359 21.4019C174.995 19.8652 173.307 18.6808 171.348 17.8862C169.373 17.0842 167.181 16.6719 164.829 16.6719C161.913 16.6719 159.23 17.3015 156.879 18.5384C154.528 19.7752 152.644 21.5218 151.28 23.7332C149.924 25.937 149.238 28.4482 149.238 31.2068C149.238 33.9653 149.924 36.469 151.265 38.6803C152.607 40.8842 154.483 42.6308 156.842 43.8751C159.163 45.097 161.762 45.7117 164.566 45.7117H164.799C167.143 45.7117 169.351 45.3069 171.333 44.4973C173.307 43.7027 174.995 42.5183 176.366 40.9816L176.51 40.8242L172.749 37.3535L172.599 37.511C170.579 39.6548 168.047 40.7493 165.093 40.7493C163.119 40.7493 161.423 40.352 159.901 39.5274C158.386 38.7253 157.188 37.5784 156.344 36.1317C155.5 34.6924 155.071 33.0358 155.071 31.1993C155.071 29.3627 155.485 27.7436 156.344 26.2668C157.188 24.8351 158.386 23.6882 159.901 22.8711L159.894 22.8561Z" fill="black"/>
<path d="M202.566 18.5306C200.185 17.2937 197.487 16.6641 194.54 16.6641C191.594 16.6641 188.896 17.2937 186.515 18.5306C184.141 19.7674 182.25 21.5215 180.886 23.7404C179.529 25.9592 178.844 28.4704 178.844 31.1989C178.844 33.9275 179.529 36.4537 180.886 38.6575C182.235 40.8689 184.134 42.623 186.515 43.8673C188.896 45.1042 191.594 45.7338 194.54 45.7338C197.487 45.7338 200.185 45.1042 202.566 43.8673C204.947 42.623 206.838 40.8764 208.195 38.6725C209.551 36.4687 210.237 33.9575 210.237 31.1989C210.237 28.4404 209.551 25.9217 208.195 23.7254C206.838 21.5215 204.947 19.7749 202.566 18.5306ZM203.123 36.1314C202.287 37.5631 201.104 38.71 199.604 39.5496C198.105 40.3591 196.402 40.7714 194.54 40.7714C192.679 40.7714 190.946 40.3591 189.476 39.5496C187.992 38.7475 186.801 37.5931 185.957 36.1389C185.113 34.6846 184.684 33.0355 184.684 31.2214C184.684 29.4074 185.113 27.7582 185.957 26.304C186.809 24.8348 187.962 23.7179 189.476 22.8933C190.976 22.0837 192.679 21.6714 194.54 21.6714C196.402 21.6714 198.12 22.0837 199.604 22.8933C201.096 23.6954 202.279 24.8498 203.123 26.304C203.975 27.7582 204.404 29.4074 204.404 31.2214C204.404 33.0355 203.975 34.6846 203.123 36.1389V36.1314Z" fill="black"/>
<path d="M126.628 33.4997L129.009 38.3647L111.104 17.0684H106.395V45.336H112.129V29.4294L109.318 23.5225L123.877 40.8309L123.854 40.8159L127.652 45.336H132.355V17.0684H126.628V33.4997Z" fill="black"/>
<path d="M247.264 17.0684V33.4997L249.646 38.3647L231.741 17.0684H227.031V45.336H232.766V29.4294L229.963 23.5225L244.514 40.8309L244.491 40.8159L248.289 45.336H252.999V17.0684H247.264Z" fill="black"/>
<path d="M53.3369 10.2396L51.1591 12.8183L54.7536 14.5424L60.3827 39.0695L44.6107 58.7392H33.345L32.923 57.7872L24.7243 44.2868L43.3297 50.9283L49.8555 42.99L36.8867 25.5616L56.8259 2.00895L26.3821 20.9365L13.2853 15.8992L19.2082 24.8795L4.52889 34.8043L9.17835 14.5424L31.966 3.6281L41.702 8.29066L44.995 6.24423L31.966 0L6.3299 12.2786L0 39.8716L17.7388 62H46.1932L63.932 39.8716L57.6021 12.2786L53.3445 10.2396H53.3369ZM30.5267 58.7392H24.0913L24.0385 58.267L23.3679 46.9554L30.5267 58.7392ZM38.8611 32.473L46.6303 42.915L42.5007 47.9374L23.0212 40.981L22.9986 40.5762L22.3958 28.3052L38.8686 32.4655L38.8611 32.473ZM44.4525 12.6908L34.8597 24.0174L29.3963 22.0459L44.4525 12.6834V12.6908ZM26.6534 23.755L34.4678 26.5736L36.4572 29.2497L23.2021 25.8989L26.6534 23.755ZM23.6768 22.6156L21.6121 23.8975L19.7734 21.1089L23.6844 22.6156H23.6768ZM3.65476 38.5898L5.74212 37.0381L16.5256 29.7519L8.03294 44.6616L3.54926 39.0695L3.65476 38.5973V38.5898ZM9.75106 46.8055L10.2484 45.9059L19.7659 29.1972L20.4516 40.7187L20.5496 42.7876H20.5722L21.499 58.4394L21.5292 58.7317H19.3213L9.75106 46.798V46.8055Z" fill="black"/>
</g>
<defs>
<clipPath id="clip0_12759_27113">
<rect width="253" height="62" fill="white"/>
</clipPath>
</defs>
</svg>
