<svg width="220" height="62" viewBox="0 0 220 62" fill="none" xmlns="http://www.w3.org/2000/svg">
<g clip-path="url(#clip0_892_2256)">
<path d="M53.3369 10.2396L51.1591 12.8183L54.7536 14.5424L60.3827 39.0695L44.6107 58.7392H33.345L32.923 57.7872L24.7243 44.2868L43.3297 50.9283L49.8555 42.99L36.8867 25.5616L56.8259 2.00895L26.3821 20.9365L13.2853 15.8992L19.2082 24.8795L4.52889 34.8043L9.17835 14.5424L31.966 3.6281L41.702 8.29066L44.995 6.24423L31.966 0L6.3299 12.2786L0 39.8716L17.7388 62H46.1932L63.932 39.8716L57.6021 12.2786L53.3445 10.2396H53.3369ZM30.5267 58.7392H24.0913L24.0385 58.267L23.3679 46.9554L30.5267 58.7392ZM38.8611 32.473L46.6303 42.915L42.5007 47.9374L23.0212 40.981L22.9986 40.5762L22.3958 28.3052L38.8686 32.4655L38.8611 32.473ZM44.4525 12.6908L34.8597 24.0174L29.3963 22.0459L44.4525 12.6834V12.6908ZM26.6534 23.755L34.4678 26.5736L36.4572 29.2497L23.2021 25.8989L26.6534 23.755ZM23.6768 22.6156L21.6121 23.8975L19.7734 21.1089L23.6844 22.6156H23.6768ZM3.65476 38.5898L5.74212 37.0381L16.5256 29.7519L8.03294 44.6616L3.54926 39.0695L3.65476 38.5973V38.5898ZM9.75106 46.8055L10.2484 45.9059L19.7659 29.1972L20.4516 40.7187L20.5496 42.7876H20.5722L21.499 58.4394L21.5292 58.7317H19.3213L9.75106 46.798V46.8055Z" fill="black"/>
<path d="M92.9747 17.4353C92.9747 21.7921 91.1032 23.9117 87.2548 23.9117C83.4065 23.9117 81.5049 21.7946 81.5049 17.4353V4.65234H76.8262V17.5928C76.8262 20.9047 77.7494 23.4868 79.5707 25.269C81.3845 27.0462 83.9659 27.9461 87.2398 27.9461C90.5137 27.9461 93.065 27.0462 94.8637 25.269C96.675 23.4818 97.5932 20.8997 97.5932 17.5928V4.65234H92.9747V17.4328V17.4353Z" fill="black"/>
<path d="M128.303 27.6187H132.982V4L128.303 4.97734V27.6187Z" fill="black"/>
<path d="M189.672 27.6187H194.351V4L189.672 4.97734V27.6187Z" fill="black"/>
<path d="M145.483 9.35536C146.722 8.69547 148.14 8.36302 149.695 8.36302C152.088 8.36302 154.138 9.23788 155.786 10.9626L155.906 11.0876L158.957 8.29803L158.842 8.16805C157.735 6.92075 156.368 5.95841 154.778 5.31101C153.177 4.65862 151.398 4.32617 149.489 4.32617C147.121 4.32617 144.951 4.83859 143.039 5.84593C141.13 6.85077 139.602 8.27054 138.499 10.0627C137.397 11.855 136.84 13.8971 136.84 16.1368C136.84 18.3764 137.392 20.4111 138.484 22.2108C139.57 24.0005 141.093 25.4203 143.009 26.4301C144.891 27.42 146.998 27.9224 149.271 27.9224C149.334 27.9224 149.396 27.9224 149.459 27.9224C151.363 27.9224 153.149 27.5924 154.763 26.9375C156.361 26.2901 157.733 25.3278 158.842 24.078L158.957 23.948L155.906 21.1285L155.786 21.2559C154.148 23.0007 152.098 23.883 149.695 23.883C148.094 23.883 146.717 23.5581 145.483 22.8907C144.254 22.2383 143.283 21.3084 142.595 20.1286C141.91 18.9613 141.562 17.614 141.562 16.1218C141.562 14.6295 141.9 13.3097 142.595 12.1149C143.28 10.9501 144.254 10.0203 145.483 9.35536Z" fill="black"/>
<path d="M180.101 5.84593C178.172 4.83859 175.984 4.32617 173.593 4.32617C171.202 4.32617 169.012 4.83609 167.083 5.84593C165.159 6.85077 163.624 8.27554 162.515 10.0777C161.413 11.8825 160.856 13.9196 160.856 16.1368C160.856 18.3539 161.413 20.4086 162.515 22.1958C163.609 23.993 165.146 25.4178 167.083 26.4301C169.012 27.4375 171.202 27.9499 173.593 27.9499C175.984 27.9499 178.172 27.44 180.101 26.4301C182.032 25.4203 183.57 24.0005 184.669 22.2133C185.77 20.4236 186.33 18.3789 186.33 16.1393C186.33 13.8996 185.77 11.855 184.669 10.0652C183.57 8.27554 182.032 6.85826 180.101 5.84843V5.84593ZM181.591 16.1518C181.591 17.6215 181.242 18.9663 180.555 20.1461C179.877 21.3109 178.917 22.2433 177.697 22.9207C176.483 23.5781 175.103 23.913 173.591 23.913C172.078 23.913 170.673 23.5781 169.484 22.9207C168.277 22.2658 167.314 21.3334 166.626 20.1461C165.939 18.9663 165.59 17.6215 165.59 16.1518C165.59 14.682 165.939 13.3397 166.626 12.1574C167.319 10.9651 168.255 10.0552 169.484 9.38286C170.696 8.72546 172.078 8.39052 173.591 8.39052C175.103 8.39052 176.496 8.72546 177.697 9.38286C178.904 10.0378 179.865 10.9726 180.555 12.1574C181.242 13.3372 181.591 14.6795 181.591 16.1518Z" fill="black"/>
<path d="M118.75 18.0027L120.684 21.9596L106.159 4.65234H102.341V27.6186H106.989V14.6957L104.712 9.894L116.52 23.9617L116.502 23.9492L119.581 27.6186H123.401V4.65234H118.75V18.0027Z" fill="black"/>
<path d="M215.349 18.0027L217.283 21.9596L202.758 4.65234H198.939V27.6186H203.588V14.6957L201.31 9.894L213.119 23.9617L213.101 23.9492L216.179 27.6186H220V4.65234H215.349V18.0027Z" fill="black"/>
<path d="M137.168 36.2258C135.269 35.2334 133.111 34.7285 130.758 34.7285C128.405 34.7285 126.245 35.2309 124.346 36.2258C122.452 37.2156 120.936 38.6204 119.848 40.3951C118.764 42.1723 118.214 44.1795 118.214 46.3616C118.214 48.5438 118.764 50.5685 119.848 52.3307C120.926 54.1004 122.439 55.5027 124.346 56.5C126.247 57.4923 128.405 57.9973 130.758 57.9973C133.111 57.9973 135.266 57.4948 137.168 56.5C139.069 55.5052 140.584 54.1079 141.666 52.3457C142.749 50.5835 143.301 48.5688 143.301 46.3616C143.301 44.1545 142.752 42.1423 141.666 40.3801C140.584 38.6179 139.069 37.2206 137.168 36.2258ZM138.638 46.3766C138.638 47.8239 138.294 49.1487 137.617 50.311C136.949 51.4583 136.004 52.3782 134.802 53.0431C133.605 53.6905 132.246 54.0204 130.758 54.0204C129.27 54.0204 127.883 53.6905 126.714 53.0431C125.525 52.3982 124.579 51.4783 123.899 50.311C123.222 49.1487 122.881 47.8239 122.881 46.3766C122.881 44.9294 123.224 43.6046 123.899 42.4423C124.581 41.2675 125.502 40.3726 126.714 39.7102C127.908 39.0628 129.268 38.7329 130.758 38.7329C132.248 38.7329 133.618 39.0628 134.802 39.7102C135.991 40.3551 136.937 41.275 137.617 42.4423C138.294 43.6046 138.638 44.9269 138.638 46.3766Z" fill="black"/>
<path d="M182.651 35.0293H178.491L168.253 57.7006H173.07L175.333 52.454H185.724L187.974 57.7006H192.921L182.648 35.0293H182.651ZM176.969 48.6571L180.536 40.3759L184.088 48.6571H176.966H176.969Z" fill="black"/>
<path d="M105.568 53.688H118.161V57.6723H101.135V35.051L105.568 34.3711V53.6855V53.688Z" fill="black"/>
<path d="M199.732 53.688H212.325V57.6723H195.299V35.051L199.732 34.3711V53.6855V53.688Z" fill="black"/>
<path d="M166.203 48.2356C165.621 47.3533 164.821 46.6809 163.805 46.2184C163.547 46.0985 163.278 45.996 163.005 45.9085C163.875 45.4561 164.573 44.8212 165.105 44.0213C165.666 43.1714 165.947 42.1391 165.947 40.9343C165.947 39.1446 165.23 37.7198 163.805 36.6525C162.38 35.5876 160.315 35.0527 157.611 35.0527H146.447V57.6741H158.258C161.181 57.6741 163.379 57.1367 164.861 56.0569C166.339 54.982 167.081 53.4723 167.081 51.5351C167.081 50.2203 166.793 49.1205 166.206 48.2381L166.203 48.2356ZM151.156 38.3497H157.124C158.572 38.3497 159.696 38.6072 160.499 39.1221C161.296 39.6395 161.698 40.4269 161.698 41.4817C161.698 42.5365 161.296 43.2914 160.499 43.8088C159.698 44.3262 158.572 44.5862 157.124 44.5862H151.156V38.3497ZM161.597 53.6022C160.754 54.1197 159.555 54.3746 157.997 54.3746H151.156V47.8482H157.997C159.553 47.8482 160.754 48.1106 161.597 48.638C162.44 49.1655 162.864 49.9928 162.864 51.1101C162.864 52.2275 162.44 53.0823 161.597 53.5997V53.6022Z" fill="black"/>
<path d="M92.9438 52.995C92.5148 53.24 92.0733 53.44 91.6317 53.5874C90.6107 53.9324 89.5395 54.1073 88.4432 54.1073C87.2691 54.1073 86.1803 53.9174 85.212 53.5424C84.2411 53.16 83.3881 52.6201 82.6832 51.9377C81.9707 51.2453 81.4063 50.4154 81.0099 49.4681C80.611 48.5182 80.4078 47.4734 80.4078 46.3636C80.4078 45.2538 80.611 44.1839 81.0099 43.2441C81.4063 42.3068 81.9707 41.4794 82.6832 40.787C83.3957 40.0996 84.2511 39.5597 85.2245 39.1823C86.2079 38.8073 87.2992 38.6148 88.4708 38.6148C89.6423 38.6148 90.7838 38.8223 91.7823 39.2272C92.7757 39.6322 93.7165 40.2746 94.582 41.1369L94.6673 41.2219L97.472 38.4999L97.3967 38.4149C96.3356 37.2101 95.016 36.2852 93.4806 35.6653C91.9428 35.0454 90.2043 34.7305 88.3152 34.7305C86.4262 34.7305 84.8457 35.0179 83.3781 35.5828C81.8929 36.1577 80.5834 36.9801 79.4871 38.0249C78.3833 39.0673 77.5128 40.3071 76.9056 41.7093C76.3036 43.0966 76 44.6614 76 46.3636C76 48.0658 76.3061 49.6306 76.9056 51.0178C77.5128 52.4176 78.3757 53.6574 79.472 54.7073C80.5709 55.7571 81.8729 56.5795 83.3455 57.1469C84.8156 57.7118 86.4563 57.9992 88.2199 57.9992C89.8405 57.9992 91.4386 57.7543 92.9739 57.2743C94.5243 56.7944 95.899 56.072 97.0606 55.1297L97.1057 55.0947V46.0261H92.9488V53.005L92.9438 52.995Z" fill="black"/>
</g>
<defs>
<clipPath id="clip0_892_2256">
<rect width="220" height="62" fill="white"/>
</clipPath>
</defs>
</svg>
