<svg width="19" height="16" viewBox="0 0 19 16" fill="none" xmlns="http://www.w3.org/2000/svg">
<path d="M18.3276 3.96757C18.2509 5.65674 17.0609 7.96757 14.7609 10.9034C12.3834 13.9684 10.3693 15.5009 8.72094 15.5009C7.7001 15.5009 6.8376 14.5659 6.1326 12.7017C5.6626 10.9892 5.19344 9.27674 4.71844 7.56841C4.19594 5.70424 3.6351 4.76924 3.03094 4.76924C2.90177 4.76924 2.44177 5.04424 1.6601 5.58591L0.835938 4.53174C1.69844 3.77674 2.5526 3.02757 3.39094 2.27341C4.54094 1.28591 5.40927 0.76924 5.98427 0.716741C7.3451 0.58924 8.18427 1.50924 8.50094 3.48757C8.84094 5.61757 9.07594 6.94591 9.2101 7.46257C9.60344 9.23257 10.0351 10.1151 10.5043 10.1151C10.8684 10.1151 11.4201 9.54174 12.1534 8.39341C12.8868 7.24507 13.2793 6.37257 13.3326 5.77424C13.4376 4.78257 13.0451 4.28924 12.1534 4.28924C11.7368 4.28924 11.3051 4.38424 10.8593 4.57424C11.7176 1.78007 13.3609 0.422574 15.7868 0.503407C17.5843 0.550907 18.4326 1.70841 18.3276 3.96674V3.96757Z" fill="black"/>
</svg>
