<svg width="11" height="17" viewBox="0 0 11 17" fill="none" xmlns="http://www.w3.org/2000/svg">
<path d="M5.50016 0.515381C2.46729 0.515381 0 2.87247 0 5.76989C0 6.63964 0.227522 7.502 0.660329 8.26676L5.19916 16.1093C5.25975 16.2139 5.3748 16.2786 5.49984 16.2786C5.62488 16.2786 5.74025 16.2139 5.80052 16.1093L10.3413 8.2643C10.7725 7.502 11 6.63964 11 5.76989C11 2.87247 8.53271 0.515381 5.50016 0.515381ZM5.50016 8.39699C3.98389 8.39699 2.75024 7.21844 2.75024 5.76989C2.75024 4.32134 3.98389 3.14279 5.50016 3.14279C7.01644 3.14279 8.25008 4.32134 8.25008 5.76989C8.25008 7.21844 7.01644 8.39699 5.50016 8.39699Z" fill="white"/>
</svg>
