<svg width="280" height="64" viewBox="0 0 280 64" fill="none" xmlns="http://www.w3.org/2000/svg">
<path d="M95.9658 33.5689C95.9658 39.0475 93.6301 41.7121 88.8342 41.7121C84.0384 41.7121 81.6778 39.0475 81.6778 33.5689V17.4817H75.8384V33.7681C75.8384 37.9268 76.9814 41.1891 79.2675 43.4303C81.5287 45.6716 84.759 46.7922 88.8342 46.7922C92.9094 46.7922 96.0901 45.6467 98.3513 43.4303C100.613 41.1891 101.756 37.9268 101.756 33.7681V17.4817H95.9907V33.5689H95.9658Z" fill="black"/>
<path d="M140.023 46.3938H145.862V16.6599L140.023 17.8802V46.3938Z" fill="black"/>
<path d="M217.824 46.3938H223.663V16.6599L217.824 17.8802V46.3938Z" fill="black"/>
<path d="M161.765 23.3837C163.306 22.5619 165.07 22.1385 167.008 22.1385C169.99 22.1385 172.55 23.2342 174.612 25.4008L174.761 25.5502L178.563 22.0389L178.414 21.8895C177.022 20.3206 175.333 19.1004 173.345 18.3035C171.357 17.4817 169.121 17.0584 166.76 17.0584C164.399 17.0584 161.094 17.7058 158.709 18.9759C156.323 20.2459 154.435 22.0389 153.043 24.2802C151.677 26.5214 150.981 29.1113 150.981 31.9253C150.981 34.7393 151.677 37.3043 153.043 39.5704C154.41 41.8117 156.299 43.6047 158.684 44.8747C161.02 46.1198 163.654 46.7424 166.487 46.7424H166.735C169.096 46.7424 171.332 46.3191 173.345 45.4973C175.333 44.6755 177.047 43.4802 178.439 41.9113L178.588 41.7619L174.786 38.2008L174.637 38.3502C172.599 40.5416 170.04 41.6623 167.033 41.6623C164.027 41.6623 163.331 41.2638 161.79 40.4171C160.25 39.5953 159.057 38.4249 158.187 36.9556C157.342 35.4864 156.895 33.793 156.895 31.9004C156.895 30.0078 157.317 28.3642 158.187 26.8451C159.032 25.3759 160.25 24.2054 161.79 23.3837H161.765Z" fill="black"/>
<path d="M204.928 18.9759C202.517 17.7058 199.784 17.0584 196.802 17.0584C193.82 17.0584 191.087 17.7058 188.676 18.9759C186.266 20.2459 184.353 22.0389 182.986 24.3051C181.619 26.5712 180.924 29.1362 180.924 31.9253C180.924 34.7144 181.619 37.3043 182.986 39.5455C184.353 41.8117 186.266 43.6047 188.676 44.8747C191.087 46.1447 193.82 46.7922 196.802 46.7922C199.784 46.7922 202.517 46.1447 204.928 44.8747C207.338 43.6047 209.251 41.8117 210.618 39.5704C211.985 37.3292 212.68 34.7393 212.68 31.9253C212.68 29.1113 211.985 26.5214 210.618 24.2802C209.251 22.0389 207.338 20.2459 204.928 18.9759ZM205.499 36.9805C204.654 38.4498 203.461 39.6202 201.946 40.4669C200.43 41.2887 198.715 41.7121 196.827 41.7121C194.938 41.7121 193.199 41.2887 191.708 40.4669C190.217 39.6451 189 38.4747 188.155 36.9805C187.31 35.4864 186.863 33.8179 186.863 31.9502C186.863 30.0825 187.285 28.414 188.155 26.9198C189.024 25.4257 190.192 24.2802 191.708 23.4335C193.224 22.6117 194.938 22.1883 196.827 22.1883C198.715 22.1883 200.455 22.6117 201.946 23.4335C203.461 24.2553 204.654 25.4257 205.499 26.9198C206.369 28.414 206.791 30.0825 206.791 31.9502C206.791 33.8179 206.369 35.4864 205.499 36.9805Z" fill="black"/>
<path d="M128.12 34.291L130.53 39.2716L112.416 17.4817H107.645V46.3938H113.434V30.1323L110.602 24.0809L125.337 41.7868L129.189 46.3938H133.935V17.4817H128.145V34.291H128.12Z" fill="black"/>
<path d="M250.152 17.4817V34.291L252.563 39.2716L234.448 17.4817H229.677V46.3938H235.467V30.1323L232.634 24.0809L247.344 41.7868L251.196 46.3938H255.967V17.4817H250.152Z" fill="black"/>
<path d="M54.4684 10.5837L52.2569 13.2482L55.9345 15.0163L61.6746 40.3424L45.5726 60.6381H34.0676L33.6452 59.6669L25.2712 45.7214L44.2805 52.5696L50.9399 44.3767L37.6955 26.3969L58.0467 2.09183L26.9609 21.6405L13.5923 16.4358L19.6305 25.6996L4.64671 35.9346L9.39282 15.0163L32.6512 3.76031L42.5907 8.56654L45.9453 6.44981L32.6512 0L6.46067 12.6755L0 41.1642L18.1147 64H47.1629L65.2776 41.1642L58.817 12.6755L54.4684 10.5588V10.5837ZM31.1852 60.663H24.6251L24.5754 60.165L23.8796 48.4856L31.1852 60.6381V60.663ZM39.6834 33.544L47.6102 44.3269L43.3859 49.5066L23.5069 42.3346V41.9113L22.8608 29.2358L39.6834 33.5191V33.544ZM45.3986 13.1237L35.6082 24.8031L30.0173 22.7611L45.3986 13.0988V13.1237ZM27.2342 24.5541L35.2107 27.4677L37.2483 30.2319L23.7057 26.7704L27.2342 24.5541ZM24.2027 23.3588L22.0905 24.6786L20.202 21.7899L24.2027 23.3339V23.3588ZM3.75216 39.8444L5.88915 38.2506L16.8971 30.73L8.22493 46.1198L3.65276 40.3424L3.75216 39.8444ZM9.96434 48.3362L10.4613 47.4148L20.1772 30.1572L20.8729 42.0607L20.9723 44.2023L21.9166 60.3642V60.663C21.9414 60.663 19.7051 60.663 19.7051 60.663L9.9395 48.3362H9.96434Z" fill="black"/>
<path d="M273.415 20.2361L279.553 11.7193H274.161L270.88 16.5256L272.322 19.5637L270.384 17.2477L265.737 11.7193H261.488L267.675 20.3855L261.214 29.3256H266.93L270.21 24.3948L268.942 21.7053L275.378 29.3256H280L273.44 20.2112L273.415 20.2361Z" fill="black"/>
</svg>
