<svg width="387" height="321" viewBox="0 0 387 321" fill="none" xmlns="http://www.w3.org/2000/svg">
<path d="M273.732 53.1365L262.567 66.4857L281.013 75.3852L309.896 202.324L228.992 304.102H171.226L169.041 299.167L126.971 229.346L222.438 263.731L255.933 222.631L189.429 132.423L291.693 10.5807L135.547 108.475L68.3961 82.4239L98.8162 128.863L23.4942 180.237L47.361 75.3852L164.268 18.9139L214.186 43.0234L231.095 32.4249L164.268 0.144043L32.7982 63.6541L0.355469 206.451L91.373 320.93H237.325L328.342 206.451L295.9 63.6541L274.055 53.1365H273.732ZM156.744 304.021H123.735L123.492 301.594L120.013 243.1L156.744 304.102V304.021ZM199.461 168.102L239.347 222.146L218.15 248.116L118.233 212.114V210.01C118.152 210.01 114.997 146.5 114.997 146.5L199.461 168.021V168.102ZM228.183 65.7576L178.993 124.332L151 114.138L228.263 65.6767L228.183 65.7576ZM136.841 123.038L176.889 137.601L187.083 151.435L119.123 134.122L136.841 123.038ZM121.55 117.132L110.952 123.766L101.486 109.365L121.55 117.132ZM18.8826 199.816L29.562 191.807L84.9007 154.105L41.374 231.288L18.3972 202.324L18.9635 199.897L18.8826 199.816ZM50.1117 242.291L52.7007 237.599L101.486 151.112L104.965 210.738L105.45 221.418H105.531L110.305 302.403L110.466 303.94H99.1398L50.0308 242.21L50.1117 242.291Z" fill="black"/>
<path d="M363.579 27.5058L384.778 0.144043H366.1L354.707 15.5187L359.75 25.3342L353.026 17.864L336.963 0.144043H322.301L343.687 28.0269L321.367 56.7785H341.165L352.465 40.8826L348.076 32.2832L370.302 56.7785H386.272L363.579 27.5058Z" fill="black"/>
</svg>
