<svg width="20" height="21" viewBox="0 0 20 21" fill="none" xmlns="http://www.w3.org/2000/svg">
<g clip-path="url(#clip0_11356_6937)">
<path d="M10 20.5C15.5228 20.5 20 16.0228 20 10.5C20 4.97715 15.5228 0.5 10 0.5C4.47715 0.5 0 4.97715 0 10.5C0 16.0228 4.47715 20.5 10 20.5Z" fill="#0052FF"/>
<path d="M10.084 7.56699C11.2613 7.56699 12.1953 8.29316 12.55 9.37305H14.9219C14.4922 7.06426 12.5873 5.5 10.1029 5.5C7.28164 5.5 5.07812 7.6416 5.07812 10.5096C5.07812 13.3775 7.22656 15.5 10.1029 15.5C12.5316 15.5 14.4744 13.9357 14.9045 11.6078H12.5498C12.2135 12.6879 11.2803 13.433 10.1021 13.433C8.47656 13.433 7.33731 12.1852 7.33731 10.5096C7.33809 8.81484 8.45898 7.56699 10.084 7.56699Z" fill="white"/>
</g>
<defs>
<clipPath id="clip0_11356_6937">
<rect width="20" height="20" fill="white" transform="translate(0 0.5)"/>
</clipPath>
</defs>
</svg>
