<svg width="20" height="21" viewBox="0 0 20 21" fill="none" xmlns="http://www.w3.org/2000/svg">
<path d="M0 1.28431C0 0.851149 0.351149 0.5 0.784314 0.5H5.88235C6.31552 0.5 6.66667 0.851149 6.66667 1.28431V6.38235C6.66667 6.81552 6.31552 7.16667 5.88235 7.16667H0.784314C0.351149 7.16667 0 6.81552 0 6.38235V1.28431Z" fill="black"/>
<path d="M0 14.6176C0 14.1845 0.351149 13.8333 0.784314 13.8333H5.88235C6.31552 13.8333 6.66667 14.1845 6.66667 14.6176V19.7157C6.66667 20.1489 6.31552 20.5 5.88235 20.5H0.784314C0.351149 20.5 0 20.1489 0 19.7157V14.6176Z" fill="black"/>
<path d="M6.66667 7.95098C6.66667 7.51782 7.01782 7.16667 7.45098 7.16667H12.549C12.9822 7.16667 13.3333 7.51782 13.3333 7.95098V13.049C13.3333 13.4822 12.9822 13.8333 12.549 13.8333H7.45098C7.01782 13.8333 6.66667 13.4822 6.66667 13.049V7.95098Z" fill="black"/>
<path d="M13.3333 1.28431C13.3333 0.851149 13.6845 0.5 14.1176 0.5H19.2157C19.6489 0.5 20 0.851149 20 1.28431V6.38235C20 6.81552 19.6489 7.16667 19.2157 7.16667H14.1176C13.6845 7.16667 13.3333 6.81552 13.3333 6.38235V1.28431Z" fill="black"/>
<path d="M13.3333 14.6176C13.3333 14.1845 13.6845 13.8333 14.1176 13.8333H19.2157C19.6489 13.8333 20 14.1845 20 14.6176V19.7157C20 20.1489 19.6489 20.5 19.2157 20.5H14.1176C13.6845 20.5 13.3333 20.1489 13.3333 19.7157V14.6176Z" fill="black"/>
</svg>
