<svg width="38" height="38" viewBox="0 0 38 38" fill="none" xmlns="http://www.w3.org/2000/svg">
<g clip-path="url(#clip0_11893_31271)">
<path d="M19 38C29.5292 38 38 29.5292 38 19C38 8.47077 29.5292 0 19 0C8.47077 0 0 8.47077 0 19C0 29.5292 8.47077 38 19 38Z" fill="#2775CA"/>
<path d="M24.2255 22.0083C24.2255 19.2376 22.563 18.2876 19.238 17.8918C16.863 17.5751 16.388 16.9418 16.388 15.8333C16.388 14.7249 17.1797 14.0126 18.763 14.0126C20.188 14.0126 20.9797 14.4876 21.3755 15.6751C21.4547 15.9126 21.6922 16.0708 21.9297 16.0708H23.1962C23.513 16.0708 23.7505 15.8333 23.7505 15.5168V15.4376C23.4337 13.6958 22.0087 12.3501 20.188 12.1918V10.2918C20.188 9.97506 19.9505 9.73756 19.5547 9.65833H18.3672C18.0505 9.65833 17.813 9.89583 17.7337 10.2918V12.1126C15.3587 12.4293 13.8547 14.0126 13.8547 15.9918C13.8547 18.6043 15.438 19.6333 18.763 20.0293C20.9797 20.4251 21.6922 20.9001 21.6922 22.1668C21.6922 23.4335 20.5837 24.3043 19.0797 24.3043C17.0212 24.3043 16.3087 23.4333 16.0712 22.2458C15.9922 21.9293 15.7547 21.7708 15.5172 21.7708H14.1712C13.8547 21.7708 13.6172 22.0083 13.6172 22.3251V22.4043C13.9337 24.3833 15.2005 25.8083 17.813 26.2043V28.1043C17.813 28.4208 18.0505 28.6583 18.4462 28.7376H19.6337C19.9505 28.7376 20.188 28.5001 20.2672 28.1043V26.2043C22.6422 25.8083 24.2255 24.1458 24.2255 22.0083Z" fill="white"/>
<path d="M14.9621 30.3208C8.78709 28.1042 5.62036 21.2167 7.91632 15.1208C9.10382 11.7958 11.7163 9.26252 14.9621 8.07502C15.2788 7.91675 15.4371 7.67925 15.4371 7.28329V6.17502C15.4371 5.85829 15.2788 5.62079 14.9621 5.54175C14.8829 5.54175 14.7246 5.54175 14.6454 5.62079C7.12459 7.99579 3.00786 15.9917 5.38286 23.5125C6.80786 27.9458 10.2121 31.35 14.6454 32.775C14.9621 32.9333 15.2788 32.775 15.3579 32.4583C15.4371 32.3792 15.4371 32.3 15.4371 32.1417V31.0333C15.4371 30.7958 15.1996 30.4792 14.9621 30.3208ZM23.3538 5.62079C23.0371 5.46252 22.7204 5.62079 22.6413 5.93752C22.5621 6.01675 22.5621 6.09579 22.5621 6.25425V7.36252C22.5621 7.67925 22.7996 7.99579 23.0371 8.15425C29.2121 10.3708 32.3788 17.2583 30.0829 23.3542C28.8954 26.6792 26.2829 29.2125 23.0371 30.4C22.7204 30.5583 22.5621 30.7958 22.5621 31.1917V32.3C22.5621 32.6167 22.7204 32.8542 23.0371 32.9333C23.1163 32.9333 23.2746 32.9333 23.3538 32.8542C30.8746 30.4792 34.9913 22.4833 32.6163 14.9625C31.1913 10.45 27.7079 7.04579 23.3538 5.62079Z" fill="white"/>
</g>
<defs>
<clipPath id="clip0_11893_31271">
<rect width="38" height="38" fill="white"/>
</clipPath>
</defs>
</svg>
