<svg width="52" height="52" viewBox="0 0 52 52" fill="none" xmlns="http://www.w3.org/2000/svg">
<path fill-rule="evenodd" clip-rule="evenodd" d="M34.8889 6H17.1111C10.9746 6 6 10.9746 6 17.1111V34.8889C6 41.0253 10.9746 46 17.1111 46H34.8889C41.0253 46 46 41.0253 46 34.8889V17.1111C46 10.9746 41.0253 6 34.8889 6ZM42.1111 34.8889C42.0989 38.8724 38.8724 42.0989 34.8889 42.1111H17.1111C13.1274 42.0989 9.90109 38.8724 9.88889 34.8889V17.1111C9.90109 13.1274 13.1274 9.90109 17.1111 9.88889H34.8889C38.8724 9.90109 42.0989 13.1274 42.1111 17.1111V34.8889ZM36.5556 17.6667C37.7829 17.6667 38.7778 16.6717 38.7778 15.4444C38.7778 14.2172 37.7829 13.2222 36.5556 13.2222C35.3282 13.2222 34.3333 14.2172 34.3333 15.4444C34.3333 16.6717 35.3282 17.6667 36.5556 17.6667ZM26 16C20.4772 16 16 20.4772 16 26C16 31.5229 20.4772 36 26 36C31.5229 36 36 31.5229 36 26C36.006 23.346 34.9542 20.799 33.0776 18.9224C31.2009 17.0458 28.654 15.9941 26 16ZM19.8889 26C19.8889 29.3751 22.6249 32.1111 26 32.1111C29.3751 32.1111 32.1111 29.3751 32.1111 26C32.1111 22.6249 29.3751 19.8889 26 19.8889C22.6249 19.8889 19.8889 22.6249 19.8889 26Z" fill="black"/>
</svg>
