<svg width="20" height="20" viewBox="0 0 20 20" fill="none" xmlns="http://www.w3.org/2000/svg">
<path fill-rule="evenodd" clip-rule="evenodd" d="M0.835938 2.3637C0.835938 1.95748 0.997309 1.56789 1.28455 1.28065C1.5718 0.993405 1.96138 0.832033 2.3676 0.832033H17.6359C17.8372 0.831704 18.0366 0.871086 18.2227 0.947922C18.4088 1.02476 18.5779 1.13754 18.7203 1.27981C18.8627 1.42209 18.9757 1.59105 19.0527 1.77704C19.1298 1.96303 19.1694 2.16239 19.1693 2.3637V17.632C19.1695 17.8334 19.13 18.0328 19.0531 18.2189C18.9762 18.405 18.8633 18.574 18.721 18.7165C18.5786 18.8589 18.4096 18.9718 18.2236 19.0489C18.0375 19.1259 17.8381 19.1655 17.6368 19.1654H2.3676C2.16639 19.1654 1.96715 19.1257 1.78127 19.0487C1.59538 18.9717 1.4265 18.8588 1.28426 18.7165C1.14202 18.5741 1.02921 18.4052 0.95229 18.2193C0.875365 18.0333 0.835828 17.8341 0.835938 17.6329V2.3637ZM8.0926 7.82203H10.5751V9.0687C10.9334 8.35203 11.8501 7.70703 13.2276 7.70703C15.8684 7.70703 16.4943 9.13453 16.4943 11.7537V16.6054H13.8218V12.3504C13.8218 10.8587 13.4634 10.017 12.5534 10.017C11.2909 10.017 10.7659 10.9245 10.7659 12.3504V16.6054H8.0926V7.82203ZM3.50927 16.4912H6.1826V7.70703H3.50927V16.4904V16.4912ZM6.5651 4.84203C6.57014 5.07093 6.52941 5.29852 6.4453 5.51146C6.36119 5.7244 6.2354 5.9184 6.0753 6.08206C5.9152 6.24572 5.72402 6.37576 5.51298 6.46454C5.30195 6.55332 5.0753 6.59905 4.84635 6.59905C4.6174 6.59905 4.39076 6.55332 4.17973 6.46454C3.96869 6.37576 3.77751 6.24572 3.61741 6.08206C3.45731 5.9184 3.33152 5.7244 3.2474 5.51146C3.16329 5.29852 3.12256 5.07093 3.1276 4.84203C3.1375 4.39275 3.32293 3.96519 3.64418 3.65094C3.96543 3.33668 4.39696 3.16071 4.84635 3.16071C5.29575 3.16071 5.72728 3.33668 6.04853 3.65094C6.36978 3.96519 6.55521 4.39275 6.5651 4.84203Z" fill="black"/>
</svg>
