<svg width="19" height="19" fill="none" xmlns="http://www.w3.org/2000/svg"><path fill-rule="evenodd" clip-rule="evenodd" d="M5.806.39C6.784.345 7.096.335 9.585.335c2.49 0 2.801.01 3.778.055.976.044 1.643.2 2.226.426.61.23 1.165.591 1.623 1.058.466.457.826 1.01 1.056 1.622.227.583.382 1.25.427 2.225.045.979.055 1.29.055 3.779 0 2.49-.01 2.801-.055 3.778-.044.975-.2 1.642-.427 2.225a4.496 4.496 0 0 1-1.056 1.624 4.494 4.494 0 0 1-1.623 1.056c-.583.227-1.25.382-2.225.427-.978.045-1.29.055-3.779.055-2.49 0-2.801-.01-3.779-.055-.974-.044-1.64-.2-2.224-.427a4.496 4.496 0 0 1-1.624-1.056 4.493 4.493 0 0 1-1.057-1.623c-.226-.583-.381-1.25-.426-2.225C.43 12.3.42 11.99.42 9.5c0-2.49.01-2.801.055-3.778.044-.976.2-1.643.426-2.226a4.496 4.496 0 0 1 1.058-1.623A4.492 4.492 0 0 1 3.58.816C4.164.59 4.831.435 5.806.39Zm7.483 1.65c-.967-.045-1.257-.054-3.704-.054s-2.737.01-3.704.054c-.894.04-1.378.19-1.702.315a2.846 2.846 0 0 0-1.054.685 2.843 2.843 0 0 0-.685 1.054c-.125.324-.274.808-.315 1.702-.044.967-.054 1.257-.054 3.704s.01 2.737.054 3.704c.04.893.19 1.378.315 1.702.147.397.381.758.685 1.054.296.304.657.538 1.054.684.324.126.808.275 1.702.316.967.044 1.256.054 3.704.054 2.448 0 2.737-.01 3.704-.054.893-.04 1.378-.19 1.702-.316a2.845 2.845 0 0 0 1.054-.684c.304-.296.538-.657.684-1.054.126-.324.276-.809.316-1.703.044-.966.054-1.256.054-3.703s-.01-2.737-.054-3.704c-.04-.894-.19-1.378-.316-1.702a2.845 2.845 0 0 0-.684-1.054 2.843 2.843 0 0 0-1.054-.685c-.324-.125-.809-.275-1.702-.315ZM8.414 12.325a3.057 3.057 0 1 0 2.201-5.704 3.058 3.058 0 0 0-2.2 5.704ZM6.254 6.17a4.71 4.71 0 1 1 6.662 6.662 4.71 4.71 0 0 1-6.662-6.662Zm9.087-.678a1.114 1.114 0 1 0-1.529-1.62 1.114 1.114 0 0 0 1.529 1.62Z" fill="#fff"/></svg>