<svg width="20" height="19" fill="none" xmlns="http://www.w3.org/2000/svg"><path fill-rule="evenodd" clip-rule="evenodd" d="M.92 1.796A1.546 1.546 0 0 1 2.466.25h15.407a1.544 1.544 0 0 1 1.547 1.546v15.407a1.545 1.545 0 0 1-1.547 1.547H2.466A1.546 1.546 0 0 1 .92 17.204V1.796Zm7.323 5.508h2.505v1.258c.361-.724 1.286-1.374 2.676-1.374 2.665 0 3.297 1.44 3.297 4.083v4.896h-2.697v-4.294c0-1.505-.362-2.354-1.28-2.354-1.274 0-1.804.915-1.804 2.354v4.294H8.243V7.304ZM3.618 16.05h2.697V7.189H3.618v8.864ZM6.7 4.296a1.735 1.735 0 1 1-3.468.077A1.735 1.735 0 0 1 6.7 4.296Z" fill="#fff"/></svg>