<svg width="19" height="17" fill="none" xmlns="http://www.w3.org/2000/svg"><path d="M18.92 2.367a7.51 7.51 0 0 1-2.229.638A4.042 4.042 0 0 0 18.398.76a7.548 7.548 0 0 1-2.465.985A3.835 3.835 0 0 0 13.73.513a3.736 3.736 0 0 0-2.464.427A3.993 3.993 0 0 0 9.56 2.847a4.23 4.23 0 0 0-.242 2.6 10.649 10.649 0 0 1-4.431-1.232 11.131 11.131 0 0 1-3.57-3.01 4.2 4.2 0 0 0-.525 2.04c0 .669.157 1.327.459 1.916.3.59.736 1.092 1.268 1.463A3.744 3.744 0 0 1 .76 6.116v.053c0 .937.31 1.845.877 2.57a3.857 3.857 0 0 0 2.237 1.41 3.744 3.744 0 0 1-1.754.07 4.06 4.06 0 0 0 1.381 2.016c.65.505 1.436.785 2.246.8A7.575 7.575 0 0 1 0 14.718a10.634 10.634 0 0 0 5.95 1.824c7.14 0 11.044-6.184 11.044-11.548 0-.174-.004-.35-.011-.524a8.1 8.1 0 0 0 1.935-2.1l.002-.002Z" fill="#fff"/></svg>