<svg width="20" height="19" fill="none" xmlns="http://www.w3.org/2000/svg"><path d="M19.74 4.903c-.083 1.925-1.375 4.56-3.872 7.906-2.581 3.494-4.768 5.241-6.557 5.241-1.109 0-2.045-1.066-2.81-3.19-.51-1.953-1.02-3.905-1.536-5.853-.567-2.125-1.176-3.19-1.832-3.19-.14 0-.64.313-1.488.93L.75 5.547c.936-.86 1.864-1.715 2.774-2.574C4.772 1.846 5.715 1.257 6.34 1.197c1.477-.145 2.388.903 2.732 3.159.369 2.428.624 3.942.77 4.53.427 2.019.896 3.025 1.405 3.025.395 0 .994-.654 1.79-1.963.796-1.31 1.223-2.304 1.28-2.986.114-1.13-.312-1.693-1.28-1.693-.452 0-.92.109-1.405.325.932-3.185 2.716-4.732 5.35-4.64 1.951.054 2.873 1.373 2.759 3.948Z" fill="#fff"/></svg>