<svg width="20" height="20" fill="none" xmlns="http://www.w3.org/2000/svg"><circle cx="10" cy="10" r="10" fill="#E9ECEF"/><path d="M14.52 5.794a5.87 5.87 0 0 0-1.937-1.41A6.24 6.24 0 0 0 10 3.846c-1.41 0-2.924.563-4.05 1.505-.96.802-2.104 2.26-2.104 4.649 0 2.388 1.116 3.804 2.053 4.61 1.126.966 2.658 1.544 4.1 1.544 2.58 0 4.056-1.259 4.84-2.315.97-1.307 1.314-2.84 1.314-3.839a6.323 6.323 0 0 0-1.633-4.206Zm-1.563 1.072c-.27-.822-.65-1.527-1.098-2.045a5.548 5.548 0 0 1 2.035 1.292c-.287.287-.6.54-.937.753Zm-.179 2.809h-2.453V8.37a6.11 6.11 0 0 0 2.228-.547c.13.59.205 1.211.225 1.852Zm.365-2.159a6.155 6.155 0 0 0 1.182-.915 5.518 5.518 0 0 1 1.168 3.074h-2.065a10.276 10.276 0 0 0-.285-2.159Zm-2.818.206V4.536c.403.095.796.37 1.145.804.374.465.69 1.101.918 1.846a5.484 5.484 0 0 1-2.063.536Zm5.168 2.603a5.518 5.518 0 0 1-1.168 3.075 6.144 6.144 0 0 0-1.182-.916c.168-.684.264-1.409.285-2.159h2.065Zm-5.168 1.305v-1.305h2.453c-.02.64-.095 1.262-.225 1.852a6.038 6.038 0 0 0-2.228-.547Zm1.534 3.548c.447-.517.828-1.223 1.098-2.046.336.213.65.466.937.753a5.512 5.512 0 0 1-2.035 1.293Zm-1.534.286v-3.186c.72.042 1.412.222 2.063.536-.227.745-.544 1.382-.918 1.847-.348.433-.742.708-1.145.803Zm-.65-7.094v1.305H7.22c.02-.64.095-1.263.225-1.852a6.134 6.134 0 0 0 2.229.547Zm-3.57-2.255A5.512 5.512 0 0 1 8.14 4.822c-.447.517-.827 1.223-1.098 2.046a5.467 5.467 0 0 1-.937-.753Zm-1.598 3.56a5.517 5.517 0 0 1 1.167-3.074c.358.355.756.663 1.185.916a10.273 10.273 0 0 0-.286 2.158H4.507Zm2.535 3.459c.271.823.65 1.528 1.097 2.045a5.546 5.546 0 0 1-2.034-1.292c.287-.287.601-.54.937-.753Zm.179-2.81h2.454v1.306a6.108 6.108 0 0 0-2.229.547c-.13-.59-.205-1.211-.225-1.852Zm-.362 2.16c-.431.257-.829.564-1.185.916a5.506 5.506 0 0 1-1.168-3.075h2.067c.022.75.117 1.475.286 2.159Zm2.816-.206v3.186c-.404-.095-.797-.37-1.146-.804-.374-.466-.69-1.102-.918-1.846a5.494 5.494 0 0 1 2.064-.536Zm0-7.742v3.186a5.45 5.45 0 0 1-2.064-.537c.227-.745.544-1.381.918-1.846.348-.433.742-.708 1.146-.803Z" fill="#55585B"/></svg>