<svg width="20" height="20" fill="none" xmlns="http://www.w3.org/2000/svg"><path fill-rule="evenodd" clip-rule="evenodd" d="M9.946 0h.108c1.766 0 3.166 0 4.284.114 1.146.116 2.102.36 2.938.919a6.13 6.13 0 0 1 1.691 1.69c.559.837.803 1.794.92 2.939C20 6.78 20 8.18 20 9.946v.108c0 1.766 0 3.166-.114 4.284-.116 1.146-.36 2.102-.919 2.938a6.13 6.13 0 0 1-1.69 1.691c-.837.559-1.794.803-2.939.92C13.22 20 11.82 20 10.054 20h-.108c-1.766 0-3.166 0-4.284-.114-1.145-.116-2.102-.36-2.938-.919a6.13 6.13 0 0 1-1.691-1.69c-.559-.837-.803-1.794-.92-2.939C0 13.22 0 11.82 0 10.054v-.108C0 8.18 0 6.78.114 5.662c.116-1.145.36-2.102.919-2.938a6.13 6.13 0 0 1 1.69-1.691C3.56.474 4.518.23 5.663.113 6.78 0 8.18 0 9.946 0Zm5.226 7.486a.968.968 0 0 0-1.312-1.423l-4.98 4.59L6.8 8.657a.968.968 0 0 0-1.341 1.396l2.737 2.627c.37.354.95.36 1.326.013l5.65-5.207Z" fill="#000"/></svg>