<svg width="20" height="20" viewBox="0 0 20 20" fill="none" xmlns="http://www.w3.org/2000/svg">
<circle cx="10" cy="10" r="10" fill="#E9ECEF"/>
<path fill-rule="evenodd" clip-rule="evenodd" d="M7.77992 4.64766C8.35412 4.62123 8.53719 4.61536 9.99985 4.61536C11.4625 4.61536 11.6456 4.62172 12.2193 4.64766C12.793 4.67361 13.1846 4.76515 13.5273 4.8978C13.8861 5.0334 14.2116 5.24536 14.4808 5.51948C14.755 5.78822 14.9664 6.11326 15.1015 6.47256C15.2347 6.81522 15.3257 7.20683 15.3522 7.77955C15.3786 8.35473 15.3845 8.5378 15.3845 9.99997C15.3845 11.4626 15.3781 11.6457 15.3522 12.2199C15.3262 12.7926 15.2347 13.1842 15.1015 13.5269C14.9664 13.8862 14.7546 14.2118 14.4808 14.481C14.2116 14.7551 13.8861 14.9665 13.5273 15.1017C13.1846 15.2348 12.793 15.3258 12.2203 15.3523C11.6456 15.3787 11.4625 15.3846 9.99985 15.3846C8.53719 15.3846 8.35412 15.3782 7.77992 15.3523C7.20719 15.3263 6.81558 15.2348 6.47293 15.1017C6.11359 14.9665 5.78801 14.7547 5.51887 14.481C5.24493 14.212 5.03294 13.8866 4.89768 13.5274C4.76502 13.1847 4.67398 12.7931 4.64754 12.2204C4.62111 11.6452 4.61523 11.4621 4.61523 9.99997C4.61523 8.53731 4.6216 8.35424 4.64754 7.78053C4.67349 7.20683 4.76502 6.81522 4.89768 6.47256C5.03314 6.1133 5.24529 5.78789 5.51936 5.51899C5.78812 5.24511 6.11337 5.03313 6.47244 4.8978C6.81509 4.76515 7.2067 4.6741 7.77943 4.64766H7.77992ZM12.1757 5.61689C11.6079 5.59095 11.4375 5.58557 9.99985 5.58557C8.56216 5.58557 8.39181 5.59095 7.82398 5.61689C7.29873 5.64088 7.01384 5.7285 6.82391 5.80242C6.57279 5.90032 6.39314 6.01634 6.20468 6.2048C6.02603 6.3786 5.88854 6.59018 5.8023 6.82403C5.72838 7.01396 5.64076 7.29885 5.61677 7.8241C5.59083 8.39193 5.58544 8.56228 5.58544 9.99997C5.58544 11.4377 5.59083 11.608 5.61677 12.1758C5.64076 12.7011 5.72838 12.986 5.8023 13.1759C5.88845 13.4094 6.026 13.6214 6.20468 13.7951C6.37845 13.9738 6.59041 14.1114 6.82391 14.1975C7.01384 14.2714 7.29873 14.3591 7.82398 14.383C8.39181 14.409 8.56167 14.4144 9.99985 14.4144C11.438 14.4144 11.6079 14.409 12.1757 14.383C12.701 14.3591 12.9859 14.2714 13.1758 14.1975C13.4269 14.0996 13.6066 13.9836 13.795 13.7951C13.9737 13.6214 14.1112 13.4094 14.1974 13.1759C14.2713 12.986 14.3589 12.7011 14.3829 12.1758C14.4089 11.608 14.4143 11.4377 14.4143 9.99997C14.4143 8.56228 14.4089 8.39193 14.3829 7.8241C14.3589 7.29885 14.2713 7.01396 14.1974 6.82403C14.0995 6.57291 13.9835 6.39326 13.795 6.2048C13.6212 6.02616 13.4096 5.88868 13.1758 5.80242C12.9859 5.7285 12.701 5.64088 12.1757 5.61689ZM9.31209 11.6599C9.69619 11.8198 10.1239 11.8414 10.5221 11.721C10.9204 11.6005 11.2644 11.3456 11.4956 10.9997C11.7268 10.6537 11.8306 10.2383 11.7895 9.82429C11.7484 9.41028 11.5648 9.02339 11.2701 8.72969C11.0823 8.54195 10.8551 8.3982 10.605 8.30878C10.355 8.21937 10.0882 8.18651 9.82387 8.21258C9.55957 8.23865 9.30433 8.323 9.07654 8.45955C8.84874 8.5961 8.65406 8.78146 8.5065 9.00228C8.35894 9.2231 8.26218 9.47389 8.22318 9.7366C8.18418 9.9993 8.20391 10.2674 8.28095 10.5216C8.358 10.7757 8.49044 11.0096 8.66873 11.2065C8.84703 11.4033 9.06676 11.5582 9.31209 11.6599ZM8.04279 8.04291C8.29979 7.7859 8.6049 7.58204 8.94069 7.44295C9.27649 7.30386 9.63639 7.23227 9.99985 7.23227C10.3633 7.23227 10.7232 7.30386 11.059 7.44295C11.3948 7.58204 11.6999 7.7859 11.9569 8.04291C12.2139 8.29991 12.4178 8.60502 12.5569 8.94082C12.696 9.27661 12.7676 9.63651 12.7676 9.99997C12.7676 10.3634 12.696 10.7233 12.5569 11.0591C12.4178 11.3949 12.2139 11.7 11.9569 11.957C11.4379 12.4761 10.7339 12.7677 9.99985 12.7677C9.26581 12.7677 8.56183 12.4761 8.04279 11.957C7.52374 11.438 7.23214 10.734 7.23214 9.99997C7.23214 9.26593 7.52374 8.56195 8.04279 8.04291ZM13.3814 7.64445C13.4451 7.58437 13.4961 7.51212 13.5313 7.43199C13.5666 7.35185 13.5854 7.26545 13.5867 7.17791C13.588 7.09037 13.5717 7.00346 13.5388 6.92233C13.5058 6.8412 13.457 6.76749 13.3951 6.70559C13.3332 6.64368 13.2595 6.59482 13.1783 6.5619C13.0972 6.52899 13.0103 6.51269 12.9228 6.51396C12.8352 6.51524 12.7488 6.53407 12.6687 6.56933C12.5885 6.6046 12.5163 6.65559 12.4562 6.71927C12.3394 6.84313 12.2754 7.00765 12.2779 7.17791C12.2804 7.34817 12.3491 7.51075 12.4695 7.63115C12.5899 7.75156 12.7525 7.82029 12.9228 7.82278C13.093 7.82526 13.2575 7.76129 13.3814 7.64445Z" fill="#55585B"/>
</svg>
