<svg width="440" height="430" viewBox="0 0 440 430" fill="none" xmlns="http://www.w3.org/2000/svg">
  <path opacity="0.02" fill-rule="evenodd" clip-rule="evenodd" d="M367.104 71.0211L352.083 88.8955L376.815 100.826L415.557 270.933L307.039 407.362H229.515L226.623 400.755L170.194 307.116L298.258 353.2L343.157 298.148L253.897 177.273L391.093 13.9391L391.073 13.9598L181.559 145.211L91.4304 110.249L132.217 172.53L31.1586 241.356L63.1641 100.826L219.99 25.1236L286.997 57.4756L309.663 43.2879L219.99 0L43.5764 85.1674L0 276.546L122.093 430H317.907L440 276.546L396.424 85.1674L367.104 71.0211ZM113.766 206.332L39.5685 256.869L25.1651 267.672L24.4226 270.933L55.2858 309.727L113.766 206.332ZM136.061 202.5L70.541 318.363L67.1114 324.591L132.961 407.362H148.178L147.962 405.332L141.598 296.802L141.453 296.76L140.772 282.407L136.061 202.5ZM160.855 325.633L165.463 404.089L165.812 407.362H210.112L160.855 325.633ZM237.222 184.295L183.439 164.742L159.698 179.614L250.942 202.852L237.222 184.295ZM202.345 152.916L239.95 166.586H239.97L305.965 88.0049L202.345 152.916ZM148.747 165.757L162.983 156.851L136.081 146.413L148.747 165.757ZM158.438 284.209L292.514 332.468L292.535 332.488L320.945 297.651L267.472 225.221L154.119 196.349L158.272 281.433L158.438 284.209Z" fill="#000000"/>
</svg>
