<svg width="16" height="16" fill="none" xmlns="http://www.w3.org/2000/svg"><path d="M15.999 7.999v-.004a7.963 7.963 0 0 0-2.667-5.955l-.008-.007a.396.396 0 0 0-.068-.058h-.001A7.944 7.944 0 0 0 7.998 0a7.95 7.95 0 0 0-5.273 1.99l.009-.008A7.972 7.972 0 0 0 0 8.002a7.967 7.967 0 0 0 2.664 5.954l.008.007a.445.445 0 0 0 .071.064l.001.001A7.946 7.946 0 0 0 7.998 16a7.952 7.952 0 0 0 5.274-1.99l-.01.008A7.96 7.96 0 0 0 16 8.004V8l-.001-.001Zm-2.975 5.203a7.957 7.957 0 0 0-1.272-.841l-.044-.022c.409-1.178.655-2.535.678-3.948v-.01h2.84a7.216 7.216 0 0 1-2.2 4.82l-.002.001ZM8.381 12.2a7.217 7.217 0 0 1 2.391.54l-.048-.018c-.59 1.347-1.421 2.272-2.343 2.476v-2.998Zm0-.763V8.38h3.245a12.395 12.395 0 0 1-.65 3.719L11 12.01a7.755 7.755 0 0 0-2.602-.574h-.018Zm0-3.818V4.562a7.938 7.938 0 0 0 2.67-.594l-.052.02c.37 1.078.597 2.322.627 3.616v.014H8.38Zm0-3.819V.803c.922.203 1.753 1.124 2.343 2.475a7.148 7.148 0 0 1-2.324.52l-.02.001Zm1.902-2.666c.786.262 1.52.657 2.172 1.168l-.015-.012c-.296.232-.627.45-.976.64l-.038.019a6.714 6.714 0 0 0-1.149-1.825l.006.008v.002ZM7.617.805v2.994a7.202 7.202 0 0 1-2.392-.54l.048.018C5.866 1.93 6.696 1.005 7.618.802l-.001.003Zm-3.045 2.14a7.295 7.295 0 0 1-1.03-.67l.016.012a7.162 7.162 0 0 1 2.106-1.142l.05-.015a6.68 6.68 0 0 0-1.126 1.772l-.016.043Zm3.046 1.616v3.056H4.373c.03-1.307.257-2.551.653-3.718L5 3.987c.827.34 1.707.533 2.6.573l.018.001Zm0 3.819v3.055a7.94 7.94 0 0 0-2.671.595L5 12.01a12.121 12.121 0 0 1-.627-3.616V8.38h3.245Zm0 3.818v2.997c-.922-.204-1.753-1.125-2.344-2.476A7.148 7.148 0 0 1 7.6 12.2h.019Zm-1.9 2.667a7.228 7.228 0 0 1-2.172-1.166l.016.012c.296-.232.627-.45.976-.64l.038-.019c.28.667.668 1.282 1.148 1.822l-.006-.007v-.002Zm5.709-1.814c.387.21.718.428 1.03.672l-.017-.012a7.164 7.164 0 0 1-2.105 1.141l-.05.015a6.679 6.679 0 0 0 1.125-1.77l.017-.044v-.002Zm3.8-5.433h-2.84a13.108 13.108 0 0 0-.706-4.052l.027.092c.471-.248.917-.541 1.332-.875l-.016.012a7.209 7.209 0 0 1 2.201 4.803l.001.019ZM2.974 2.796c.384.312.816.598 1.273.841l.043.022a12.821 12.821 0 0 0-.678 3.948v.01H.772a7.216 7.216 0 0 1 2.2-4.82l.002-.001ZM.772 8.38h2.84c.02 1.38.259 2.747.706 4.052l-.028-.092c-.5.266-.93.552-1.33.875l.015-.012A7.209 7.209 0 0 1 .773 8.4V8.38H.772Z" fill="#000"/></svg>