<svg width="21" height="15" fill="none" xmlns="http://www.w3.org/2000/svg"><path d="M20.331 2.599A2.524 2.524 0 0 0 18.578.803C17.013.362 10.744.362 10.744.362A59.659 59.659 0 0 0 2.92.78a2.594 2.594 0 0 0-1.115.678c-.308.318-.531.71-.648 1.139A27.748 27.748 0 0 0 .751 7.5c-.01 1.643.125 3.284.406 4.902a2.537 2.537 0 0 0 1.763 1.795c1.586.442 7.824.442 7.824.442a59.812 59.812 0 0 0 7.834-.42 2.52 2.52 0 0 0 1.752-1.795c.288-1.616.428-3.258.418-4.903a25.352 25.352 0 0 0-.417-4.923Zm-11.58 7.956v-6.11l5.216 3.056-5.216 3.054Z" fill="#fff"/></svg>