<svg viewBox="0 0 21 20" fill="none" xmlns="http://www.w3.org/2000/svg">
<path fill-rule="evenodd" clip-rule="evenodd" d="M9.7 1.4C5.11604 1.4 1.4 5.11604 1.4 9.7C1.4 11.6146 2.04828 13.3778 3.13731 14.7821L5.46034 11.2975L8.38695 12.7609L10.813 7.90874L13.3995 8.42604L16.2263 4.57134C14.7066 2.64014 12.3481 1.4 9.7 1.4ZM17.0809 3.40593C15.3018 1.32156 12.6552 0 9.7 0C4.34284 0 0 4.34284 0 9.7C0 15.0572 4.34284 19.4 9.7 19.4C15.0572 19.4 19.4 15.0572 19.4 9.7C19.4 7.82551 18.8683 6.07521 17.9475 4.59168L20.1784 1.54947L19.0495 0.721562L17.0809 3.40593ZM17.0423 5.82599L14.0005 9.97396L11.587 9.49126L9.01305 14.6391L5.93966 13.1025L4.28243 15.5883C4.22456 15.6751 4.15065 15.7448 4.06725 15.7961C5.54702 17.1641 7.52589 18 9.7 18C14.284 18 18 14.284 18 9.7C18 8.3008 17.6538 6.98246 17.0423 5.82599Z" fill="url(#paint0_linear_2540_7168)"/>
<defs>
<linearGradient id="paint0_linear_2540_7168" x1="1.50341e-07" y1="9.69999" x2="20.1784" y2="9.69999" gradientUnits="userSpaceOnUse">
<stop stop-color="#FFE0A1"/>
<stop offset="1" stop-color="#E7B656"/>
</linearGradient>
</defs>
</svg>
