<svg width="82" height="30" viewBox="0 0 82 30" fill="none" xmlns="http://www.w3.org/2000/svg">
<g clip-path="url(#clip0_2466_14766)">
<mask id="mask0_2466_14766" style="mask-type:luminance" maskUnits="userSpaceOnUse" x="21" y="6" width="6" height="14">
<path d="M21.8207 9.4651C26.2254 11.694 26.1868 16.0497 25.4546 19.1727C26.3636 17.3581 26.8578 15.309 26.8187 13.1451C26.7728 10.5961 25.9907 8.22967 24.6771 6.23987C23.6847 7.41252 22.7332 8.48589 21.8207 9.4651Z" fill="#FFFFFF"/>
</mask>
<g mask="url(#mask0_2466_14766)">
<path d="M26.8578 6.23987H21.8207V19.1722H26.8578V6.23987Z" fill="#808080"/>
</g>
<mask id="mask1_2466_14766" style="mask-type:luminance" maskUnits="userSpaceOnUse" x="0" y="8" width="15" height="11">
<path d="M0.748627 9.92848C1.30402 13.0613 3.90417 22.8402 14.107 16.2448C12.2391 12.9272 11.6264 10.256 11.7964 8.10815C8.77237 8.30731 5.12887 8.87965 0.748627 9.92848Z" fill="#FFFFFF"/>
</mask>
<g mask="url(#mask1_2466_14766)">
<path d="M4.26517 2.3031L20.6822 11.9862L10.5904 28.6448L-5.82657 18.9616L4.26517 2.3031Z" fill="#808080" fill-opacity="0.5"/>
</g>
<mask id="mask2_2466_14766" style="mask-type:luminance" maskUnits="userSpaceOnUse" x="11" y="0" width="14" height="10">
<path d="M11.7964 8.10749C16.4793 7.79763 19.6762 8.37854 21.8207 9.46446C22.7332 8.48582 23.6847 7.41246 24.6771 6.2398C23.0148 3.72273 20.5003 1.80882 17.5459 0.889526C14.9333 2.07702 12.1013 4.24771 11.7964 8.10749Z" fill="#FFFFFF"/>
</mask>
<g mask="url(#mask2_2466_14766)">
<path d="M8.18298 7.55734L14.6613 -4.39575L28.2911 2.79653L21.8122 14.7496L8.18298 7.55734Z" fill="#808080" fill-opacity="0.5"/>
</g>
<mask id="mask3_2466_14766" style="mask-type:luminance" maskUnits="userSpaceOnUse" x="14" y="9" width="12" height="16">
<path d="M14.107 16.2448C15.4711 18.6689 17.5057 21.4376 20.3949 24.5995C22.5654 23.3087 24.3285 21.421 25.4546 19.1727C26.1868 16.0496 26.2254 11.6946 21.8207 9.46509C18.859 12.639 16.3059 14.8222 14.107 16.2448Z" fill="#FFFFFF"/>
</mask>
<g mask="url(#mask3_2466_14766)">
<path d="M26.2254 9.46509H14.107V24.5989H26.2254V9.46509Z" fill="#808080" fill-opacity="0.5"/>
</g>
<mask id="mask4_2466_14766" style="mask-type:luminance" maskUnits="userSpaceOnUse" x="0" y="9" width="21" height="18">
<path d="M0.283356 13.3345V13.4178C0.283356 13.4829 0.284489 13.5485 0.285623 13.613C0.417104 20.8429 6.46183 26.5995 13.7891 26.47C16.2079 26.4266 18.4629 25.7475 20.3949 24.5988C17.5057 21.437 15.4711 18.6682 14.107 16.2442C3.90419 22.8401 1.30403 13.0606 0.74864 9.92896C0.448841 11.0154 0.286756 12.1573 0.283356 13.3345Z" fill="#FFFFFF"/>
</mask>
<g mask="url(#mask4_2466_14766)">
<path d="M-2.92548 25.974L1.03709 6.1593L23.6037 10.5532L19.6411 30.3685L-2.92548 25.974Z" fill="#808080"/>
</g>
<mask id="mask5_2466_14766" style="mask-type:luminance" maskUnits="userSpaceOnUse" x="0" y="0" width="18" height="10">
<path d="M13.542 0.285278C13.4655 0.285278 13.3901 0.285849 13.3141 0.287561C7.28074 0.39484 2.26009 4.4589 0.748627 9.92844C5.12887 8.88018 8.77238 8.30784 11.797 8.10811C12.1013 4.24777 14.9333 2.07764 17.5459 0.890151C16.2878 0.498696 14.9503 0.28699 13.5641 0.285849H13.542V0.285278Z" fill="#FFFFFF"/>
</mask>
<g mask="url(#mask5_2466_14766)">
<path d="M10.6057 18.0891L-4.06348 5.94424L7.68878 -7.87598L22.358 4.26942L10.6057 18.0891Z" fill="#808080"/>
</g>
<mask id="mask6_2466_14766" style="mask-type:luminance" maskUnits="userSpaceOnUse" x="0" y="0" width="82" height="30">
<path d="M81.7166 0.285278H0.283356V29.7146H81.7166V0.285278Z" fill="#FFFFFF"/>
</mask>
<g mask="url(#mask6_2466_14766)">
<path d="M28.9496 19.0775C28.9496 13.875 31.7714 12.3605 40.5857 12.3605H41.5373C41.4744 9.72646 40.8719 8.54068 37.1298 8.54068C34.9105 8.54068 33.0397 9.36353 31.9301 10.0882L30.3132 7.586C31.4869 6.76258 34.2769 5.5437 37.4154 5.5437C43.4398 5.5437 44.5188 7.68472 44.5188 12.8878V19.4079C44.5188 21.1865 44.6452 21.4496 46.2621 21.4496V24.248C46.0394 24.3147 45.6279 24.3147 44.9937 24.3147C43.0589 24.3147 42.4253 23.7544 41.9821 22.2393C40.9354 23.7875 39.0329 24.6098 35.2602 24.6098C30.1857 24.6103 28.9496 22.1726 28.9496 19.0775ZM41.5373 16.2134V15.0939H40.7444C33.4835 15.0939 31.8989 15.9492 31.8989 18.8469C31.8989 20.7905 32.7552 21.845 35.7674 21.845C39.8569 21.845 41.5373 20.132 41.5373 16.2134Z" fill="#808080"/>
</g>
<mask id="mask7_2466_14766" style="mask-type:luminance" maskUnits="userSpaceOnUse" x="0" y="0" width="82" height="30">
<path d="M81.7166 0.285278H0.283356V29.7146H81.7166V0.285278Z" fill="#FFFFFF"/>
</mask>
<g mask="url(#mask7_2466_14766)">
<path d="M46.5432 19.0775C46.5432 13.875 49.3655 12.3605 58.181 12.3605H59.1319C59.069 9.72646 58.4666 8.54068 54.7245 8.54068C52.5052 8.54068 50.6344 9.36353 49.5253 10.0882L47.9079 7.586C49.081 6.76258 51.8704 5.5437 55.0095 5.5437C61.0344 5.5437 62.1124 7.68472 62.1124 12.8878V19.4079C62.1124 21.1865 62.2399 21.4496 63.8556 21.4496V24.248C63.6329 24.3147 63.2214 24.3147 62.5873 24.3147C60.6536 24.3147 60.0194 23.7544 59.5757 22.2393C58.5295 23.7875 56.627 24.6098 52.8537 24.6098C47.7809 24.6103 46.5432 22.1726 46.5432 19.0775ZM59.1319 16.2134V15.0939H58.3396C51.0781 15.0939 49.4936 15.9492 49.4936 18.8469C49.4936 20.7905 50.3505 21.845 53.3621 21.845C57.4516 21.845 59.1319 20.132 59.1319 16.2134Z" fill="#808080"/>
</g>
<mask id="mask8_2466_14766" style="mask-type:luminance" maskUnits="userSpaceOnUse" x="0" y="0" width="82" height="30">
<path d="M81.7166 0.285278H0.283356V29.7146H81.7166V0.285278Z" fill="#FFFFFF"/>
</mask>
<g mask="url(#mask8_2466_14766)">
<path d="M64.6252 6.13602L67.0672 5.97225L67.3217 7.91526C68.2727 6.36656 70.2381 5.5437 74.1701 5.5437C80.0986 5.5437 81.7166 9.46282 81.7166 15.0933C81.7166 20.6593 80.0363 24.5778 74.0437 24.5778C70.3645 24.5778 68.6212 23.8525 67.7332 22.3723V29.7147H64.6252V6.13602ZM78.5775 15.1926C78.5775 11.1747 77.5636 8.60573 73.5036 8.60573C69.3506 8.60573 67.7332 10.3188 67.7332 15.1926C67.7332 20.0338 69.2565 21.679 73.5036 21.679C77.4996 21.679 78.5775 19.2104 78.5775 15.1926Z" fill="#808080"/>
</g>
</g>
<defs>
<clipPath id="clip0_2466_14766">
<rect width="82" height="30" fill="#FFFFFF"/>
</clipPath>
</defs>
</svg>
