<svg width="96" height="30" viewBox="0 0 96 30" fill="none" xmlns="http://www.w3.org/2000/svg">
<path fill-rule="evenodd" clip-rule="evenodd" d="M7.86388 30H10.0738V18H7.86388V30ZM15.9647 29.82H17.944V22.2488L26.2754 30V18.18H24.3017V25.6219L15.9647 18V29.82ZM30.7939 26.9138C31.8712 27.7669 33.1643 28.26 34.5506 28.26C35.9009 28.26 36.8481 27.7875 36.8481 26.7441C36.8481 25.8347 36.244 25.4784 35.1861 25.08L33.4733 24.4753C31.8943 23.9053 30.6934 23.0728 30.6934 21.1594C30.6934 19.1128 32.5113 18 34.6852 18C36.0171 18 37.2309 18.3403 38.179 18.9431V20.9728C37.1931 20.2322 36.1139 19.7222 34.7277 19.7222C33.5342 19.7222 32.6423 20.175 32.6423 21.1191C32.6423 21.9722 33.2021 22.3134 34.1881 22.6566L36.0964 23.3372C37.9457 23.9981 38.7942 25.0228 38.7942 26.7084C38.7942 28.8291 36.9588 30 34.5506 30C32.9679 30 31.6222 29.55 30.7939 28.9819V26.9138ZM43.95 30H46.159V18H43.95V30ZM56.5223 28.1841C59.0126 28.1841 60.3435 26.5603 60.3435 23.9972C60.3435 21.4153 59.0117 19.7972 56.5223 19.7972H54.0597V28.1841H56.5223ZM52.049 18H56.5961C60.0964 18 62.3598 20.3438 62.3598 23.9972C62.3598 27.6534 60.0964 30 56.5961 30H52.049V18ZM73.4074 18V19.7972H68.0607V22.6847H72.8559V24.4612H68.0598V28.1841H73.4074V30H66.0426V18H73.4074ZM81.2491 23.4338H83.4415C84.7392 23.4338 85.4706 22.71 85.4706 21.5972C85.4706 20.4844 84.7392 19.7597 83.4415 19.7597H81.2491V23.4338ZM81.2491 25.1306V30H79.2983V18H83.4784C85.8617 18 87.4038 19.2478 87.4038 21.5972C87.4038 23.6063 86.5479 24.7603 84.7244 25.0566L88.8721 30H86.653L82.6372 25.1316H81.25L81.2491 25.1306ZM7.09189 6.17813C7.95612 5.85656 8.62942 4.89187 8.62942 3.56531C8.62942 1.35469 7.09189 0.209063 4.63204 0.209063H0.5V12.5494H5.01573C7.47558 12.5494 9.01311 11.3231 9.01311 9.01219C9.01311 7.70531 8.20607 6.55969 7.09189 6.17813ZM2.44058 5.39437V2.01844H4.61359C5.97864 2.01844 6.7082 2.52094 6.7082 3.68625C6.7082 4.85156 5.97772 5.39437 4.61359 5.39437H2.44058ZM2.44058 7.12313H4.97699C6.32359 7.12313 7.05316 7.80563 7.05316 8.93156C7.05316 10.0369 6.32267 10.7409 4.97791 10.7409H2.4415V7.12219L2.44058 7.12313ZM18.0289 12.75C20.854 12.75 22.7567 11.0212 22.7567 7.64531V0.209063H20.7581V7.40344C20.7581 9.77531 19.797 10.8816 18.0289 10.8816C16.2608 10.8816 15.3006 9.77531 15.3006 7.40344V0.209063H13.3019V7.62469C13.3019 11.0212 15.2232 12.75 18.0289 12.75ZM27.4625 11.6644C28.2889 12.2681 29.6346 12.75 31.2099 12.75C33.6126 12.75 35.4379 11.5031 35.4379 9.25312C35.4379 7.46437 34.593 6.37875 32.7474 5.67562L30.8456 4.95187C29.8651 4.59094 29.3081 4.22906 29.3081 3.32437C29.3081 2.31937 30.1917 1.8375 31.3833 1.8375C32.7668 1.8375 33.8432 2.37937 34.8236 3.16406V1.0125C33.8819 0.370313 32.6709 0.0084375 31.3446 0.0084375C29.1734 0.0084375 27.3666 1.19437 27.3666 3.36469C27.3666 5.39437 28.5582 6.27844 30.1335 6.88125L31.8445 7.52437C32.9015 7.94625 33.4973 8.32875 33.4973 9.29344C33.4973 10.3988 32.5556 10.9012 31.2099 10.9012C29.8264 10.9012 28.5388 10.3781 27.4625 9.47437V11.6644ZM42.5795 0.209063H40.5817V12.5484H42.5795V0.209063ZM48.2813 12.5334H50.2071V4.50563L58.3126 12.7247V0.190313H56.3923V8.08125L48.2813 0V12.5334ZM70.8018 0.211875V2.05969H65.6128V5.02969H70.266V6.85687H65.6128V10.6847H70.8018V12.5522H63.6538V0.211875H70.8018ZM75.455 11.6559C76.2814 12.2597 77.6262 12.7416 79.2024 12.7416C81.6042 12.7416 83.4304 11.4956 83.4304 9.24469C83.4304 7.45594 82.5846 6.37125 80.74 5.66719L78.8372 4.94438C77.8567 4.5825 77.2997 4.22062 77.2997 3.31594C77.2997 2.31094 78.1833 1.82906 79.3749 1.82906C80.7584 1.82906 81.8348 2.37187 82.8152 3.15562V1.005C81.8735 0.361875 80.6625 0 79.3362 0C77.165 0 75.3582 1.18594 75.3582 3.35625C75.3582 5.38594 76.5498 6.27 78.1252 6.87281L79.8361 7.51594C80.8931 7.93781 81.4889 8.32031 81.4889 9.285C81.4889 10.3903 80.5481 10.8928 79.2015 10.8928C77.818 10.8928 76.5304 10.3706 75.455 9.46594V11.6559ZM87.5246 11.6559C88.351 12.2597 89.6967 12.7416 91.272 12.7416C93.6747 12.7416 95.5 11.4956 95.5 9.24469C95.5 7.45594 94.6542 6.37125 92.8096 5.66719L90.9068 4.94438C89.9273 4.5825 89.3693 4.22062 89.3693 3.31594C89.3693 2.31094 90.2538 1.82906 91.4445 1.82906C92.828 1.82906 93.9053 2.37187 94.8848 3.15562V1.005C93.944 0.361875 92.733 0 91.4067 0C89.2346 0 87.4287 1.18594 87.4287 3.35625C87.4287 5.38594 88.6203 6.27 90.1957 6.87281L91.9066 7.51594C92.9636 7.93781 93.5594 8.32031 93.5594 9.285C93.5594 10.3903 92.6177 10.8928 91.272 10.8928C89.8885 10.8928 88.601 10.3706 87.5246 9.46594V11.6559Z" fill="#808080"/>
</svg>
