<svg width="118" height="30" viewBox="0 0 118 30" fill="none" xmlns="http://www.w3.org/2000/svg">
<path d="M25.6325 21.496L27.7612 27.1147C27.7612 27.1147 22.8966 30 16.6405 30C5.70188 30 0 22.7701 0 15.1266C0 7.45948 5.85346 0.00866239 16.9323 0.00866239C23.0225 0.00866239 27.5492 2.6408 27.5492 2.6408L24.6521 7.94727C24.6521 7.94727 21.3207 6.10814 17.3121 6.10814C11.1034 6.10814 7.24283 9.93837 7.24283 15.0591C7.24283 19.8266 10.7969 23.8735 17.1464 23.8735C21.6865 23.8735 25.6325 21.496 25.6325 21.496Z" fill="#000000"/>
<path d="M28.6259 15.0925C28.6259 6.73068 35.2909 0 45.5954 0C51.8132 0 56.7811 2.56909 56.7811 2.56909L53.9149 7.81228C53.9149 7.81228 50.2455 6.11658 45.9478 6.11658C39.2813 6.11658 35.8834 10.1573 35.8834 15.2177C35.8834 20.1298 39.3849 23.8793 45.7756 23.8793C48.6127 23.8793 50.8111 22.8248 50.8111 22.8248V14.7897H57.0926C57.2769 14.7897 57.4291 14.9198 57.4291 15.1111V26.5745C57.4291 26.5745 53.2779 29.9821 45.3206 29.9821C35.6929 29.9821 28.6259 23.7987 28.6259 15.0925Z" fill="#000000"/>
<path d="M68.9824 29.5743V6.0046H58.9994V0.380023H85.9198V6.0046H76.1051V29.5743H68.9824Z" fill="#000000"/>
<path d="M88.9484 29.5743V0.380023H94.2945C94.9924 0.380023 95.1515 0.72918 95.4542 1.0764L111.046 18.525V0.380023H118V29.5743H112.621C111.987 29.5743 111.804 29.2651 111.382 28.8243L95.8355 11.1471V29.5743H88.9484Z" fill="#000000"/>
</svg>
