<svg width="130" height="30" viewBox="0 0 130 30" fill="none" xmlns="http://www.w3.org/2000/svg">
<path d="M17.0754 6.86747V23.0602C17.0754 24.8816 17.7967 26.6284 19.0807 27.9163C20.3646 29.2042 22.106 29.9277 23.9218 29.9277C25.7376 29.9277 27.479 29.2042 28.7629 27.9163C30.0468 26.6284 30.7682 24.8816 30.7682 23.0602V6.86747C30.7682 5.0461 30.0468 3.29934 28.7629 2.01144C27.479 0.723535 25.7376 0 23.9218 0C22.106 0 20.3646 0.723535 19.0807 2.01144C17.7967 3.29934 17.0754 5.0461 17.0754 6.86747ZM21.976 23.0602V6.86747C21.973 6.60736 22.0243 6.3495 22.1266 6.11047C22.2289 5.87143 22.38 5.65651 22.57 5.4795C22.76 5.3025 22.9849 5.16733 23.2301 5.08267C23.4753 4.99802 23.7355 4.96575 23.9939 4.98795C24.2421 4.97991 24.4893 5.02303 24.7203 5.11464C24.9512 5.20625 25.161 5.34441 25.3366 5.52056C25.5122 5.69672 25.65 5.90714 25.7413 6.13881C25.8326 6.37048 25.8756 6.61847 25.8676 6.86747V23.0602C25.8602 23.5564 25.6604 24.0301 25.3106 24.381C24.9608 24.7319 24.4885 24.9323 23.9939 24.9398C23.7383 24.9494 23.4833 24.9085 23.2435 24.8192C23.0038 24.73 22.7839 24.5942 22.5965 24.4196C22.4091 24.245 22.2578 24.0351 22.1513 23.8019C22.0449 23.5686 21.9853 23.3166 21.976 23.0602ZM70.2609 0.361446H56.424V5.27711H60.8922V29.4217H65.7927V5.27711H70.2609V0.361446ZM84.6743 0.361446V23.0602C84.6743 23.5587 84.4769 24.0368 84.1255 24.3893C83.7741 24.7417 83.2975 24.9398 82.8006 24.9398C82.3036 24.9398 81.827 24.7417 81.4756 24.3893C81.1242 24.0368 80.9268 23.5587 80.9268 23.0602V0.361446H75.8821V23.0602C75.8821 24.9008 76.611 26.6659 77.9085 27.9674C79.2059 29.2688 80.9657 30 82.8006 30C84.6354 30 86.3952 29.2688 87.6926 27.9674C88.9901 26.6659 89.719 24.9008 89.719 23.0602V0.361446H84.6743ZM129.5 5.27711V0.361446H117.393V29.4217H129.5V24.506H122.293V16.988H126.906V12.0723H122.293V5.27711H129.5ZM51.8117 29.4217H46.6229L43.0196 15.6867C43.9186 15.5083 44.7273 15.0207 45.3062 14.308C45.8851 13.5954 46.1979 12.7024 46.1905 11.7831V7.3012C46.1964 7.03377 46.1482 6.76792 46.0489 6.51966C45.9496 6.27141 45.8012 6.04591 45.6126 5.85676C45.4241 5.66762 45.1993 5.51874 44.9518 5.41912C44.7043 5.31949 44.4392 5.27119 44.1726 5.27711H42.2989V29.4217H37.3983V0.361446H44.1726C45.9629 0.345342 47.6885 1.03185 48.9812 2.27443C50.2738 3.517 51.0309 5.21719 51.0911 7.01205V11.6386C51.1569 12.8392 50.9438 14.0388 50.4685 15.1427C49.9933 16.2467 49.2689 17.2248 48.3525 18L51.8117 29.4217ZM106.439 0.361446V16.2651L101.394 0.361446H96.3492V29.4217H101.394V15.253L106.006 29.4217H111.483V0.361446H106.439ZM0.5 0.795181V29.8554H5.68883V17.4217H10.4453V12.506H5.68883V5.71084H13.1838V0.795181H0.5Z" fill="#000000"/>
</svg>
