<svg width="70" height="30" viewBox="0 0 70 30" fill="none" xmlns="http://www.w3.org/2000/svg">
<path d="M8.50332 8.19785V12.0974H16.7838V20.2511H8.50332V29.911H0V2.43194e-07H18.0748L18.6537 8.19785H8.50332ZM42.9296 4.5978C45.7506 7.46396 47.1618 10.9238 47.1618 14.9766C47.1618 19.0589 45.7504 22.5329 42.9296 25.3993C40.1081 28.2654 36.7052 29.6984 32.7207 29.6984C28.7069 29.6984 25.2888 28.2654 22.4679 25.3994C19.6463 22.533 18.2358 19.0589 18.2358 14.9767C18.2358 10.9237 19.6463 7.46396 22.4679 4.5978C25.2887 1.73164 28.7068 0.298489 32.7207 0.298489C36.7051 0.298489 40.1081 1.73171 42.9296 4.5978ZM30.2774 20.9695C30.2774 21.636 30.5242 22.2147 31.0191 22.7067C31.5132 23.1993 32.1098 23.445 32.8078 23.445C33.5059 23.445 34.0949 23.1992 34.5748 22.7067C35.0549 22.2147 35.2948 21.636 35.2948 20.9695V8.85363C35.2948 8.1589 35.0549 7.56576 34.5748 7.07315C34.095 6.58131 33.5061 6.33494 32.8078 6.33494C32.1098 6.33494 31.5133 6.58131 31.0191 7.07315C30.5241 7.56576 30.2774 8.1589 30.2774 8.85363V20.9695Z" fill="#808080"/>
<path d="M60.4282 30L56.1546 22.4222L52.0143 29.9999H42.6652L51.5692 14.4902L43.1549 0H52.7711L56.2882 6.46969L59.8497 0H69.1541L60.918 14.4016L70 29.9999H60.4282V30Z" fill="#808080"/>
</svg>
