<svg width="158" height="24" viewBox="0 0 158 24" fill="none" xmlns="http://www.w3.org/2000/svg">
<path d="M8.88596 7.34155V15.7385C9.95136 15.0961 10.4727 14.1784 10.8581 12.9624L11.1301 13.1001C10.8808 16.1285 8.79528 19.0651 5.62173 19.0651C2.44817 19.0651 0 16.6562 0 12.8018C0 9.86521 1.74546 8.05277 4.23896 6.46974C3.91437 6.37748 3.57871 6.33116 3.24156 6.33209C1.60945 6.33209 0.657379 7.45627 0.657379 8.60338H0.340024C0.32117 8.44354 0.313595 8.28253 0.317356 8.12159C0.317356 5.98796 1.56411 3.60195 4.14829 3.60195C5.80307 3.60195 7.0725 5.13909 8.9993 5.13909C9.97403 5.13909 10.5181 4.77201 10.9034 3.92314H11.1754C11.1528 5.4144 10.7221 6.85976 8.88596 7.34155V7.34155ZM4.57899 6.58446C3.42291 7.8004 2.28949 9.08517 2.28949 11.6777C2.28949 13.1001 2.72019 14.5225 3.7856 15.4402L4.48831 15.0502V9.24577L3.76293 9.63579L3.53625 9.26871L6.93649 7.34155C6.07509 7.15802 5.37238 6.81388 4.57899 6.58446ZM8.45526 7.43332C8.28218 7.45289 8.10799 7.46055 7.93389 7.45627C7.62917 7.46099 7.32492 7.43019 7.02716 7.3645V14.1325L4.12562 15.7385C4.77431 16.22 5.56609 16.4629 6.36978 16.4267C7.08907 16.4238 7.79968 16.2674 8.45526 15.9679V7.43332ZM18.4293 9.54402V17.4132C18.4293 19.6157 16.5002 21.1093 14.349 21.5429L14.213 21.3134C15.2784 20.7858 15.9811 19.8428 15.9811 18.6957V10.4847L14.8704 9.45225L14.281 10.0488V16.2661L14.961 16.9085V17.0003L13.1249 18.9756L11.0168 17.0232V16.9315L11.8328 16.0596V5.91913L14.2357 3.32664L14.281 3.34958V9.45225L16.2531 7.34155L18.2253 9.154L18.8373 8.5575L19.1343 8.85575L18.4293 9.54402ZM22.1945 14.2243V15.2567L24.2346 16.8856L25.8214 15.2108L26.1161 15.509L22.8949 18.9963L19.9957 16.6562L19.361 17.2985L19.0889 17.0003L19.7917 16.2661V10.5076L24.076 7.34155L26.4561 11.0812L22.1945 14.2243ZM22.2398 9.03929L22.1945 9.06223V13.6736L24.1666 12.2053L22.2398 9.03929ZM40.8029 18.9756L37.652 16.2225L35.2491 18.9756L31.9849 16.1285V11.6318H31.3502C31.1228 11.6182 30.899 11.6942 30.7258 11.8439C30.5525 11.9936 30.4432 12.2053 30.4208 12.4348H30.1941C30.1217 12.1499 30.0836 11.8571 30.0808 11.5629C30.0808 10.9664 30.3301 9.40637 31.9849 9.40637V5.91913C31.9849 4.56553 31.1008 4.4967 31.1008 3.32664C31.1008 2.01893 32.3249 0.802982 34.5691 0L34.7731 0.183539C34.025 0.550617 33.413 1.00946 33.413 1.99598C33.413 3.51018 34.8638 3.12016 34.8638 5.50617V6.42386L37.516 3.60195L40.3042 6.37798L42.9337 3.60195L45.4725 6.12561V14.6143L40.8029 18.9756ZM37.4933 7.52509L35.9065 5.94207L34.8638 7.02036V14.8896L36.7906 16.5644L37.4933 15.7614V7.52509ZM42.6163 7.22684L41.3469 5.94207L40.3722 6.92859V14.8666L42.5936 16.8397L42.6163 16.8167V7.22684ZM52.7717 18.9756L50.6409 17.0003H50.5955L48.7141 18.9756L46.4246 16.9315L45.9032 17.4591L45.6085 17.1609L46.2659 16.4726V10.4388L50.5729 7.31861L52.9304 9.19988L53.5651 8.5575L53.9051 8.85575L53.0891 9.63579V15.8532L54.1318 16.8167L54.7892 16.1285L55.1292 16.4497L52.7717 18.9756ZM50.6409 10.3929L48.7594 8.90163L48.7141 8.94752V15.6467L50.0968 16.8856L50.6409 16.3579V10.3929ZM59.8442 11.4941H61.975V16.4038L58.3708 18.9756C58.1261 18.6809 57.8209 18.4439 57.4763 18.281C57.1318 18.1181 56.7562 18.0334 56.3759 18.0327C55.6959 18.0327 55.1519 18.3539 54.6078 18.9504L54.2905 18.8357L57.4187 14.2931H55.4919V10.0258L59.2548 7.34155C59.7082 7.70863 60.0709 7.93806 60.6603 7.93806C61.2375 7.95741 61.8044 7.77963 62.2697 7.43332L62.4964 7.59392L59.8442 11.4941ZM59.5268 13.513H58.4614L55.9453 17.1609L55.9679 17.2068C56.4635 16.8276 57.0695 16.6258 57.6907 16.6332C58.0378 16.6345 58.3802 16.7133 58.6937 16.864C59.0072 17.0147 59.2839 17.2336 59.5042 17.505L59.5268 17.4844V13.513ZM60.9776 9.01635C60.5432 9.39026 59.9827 9.57938 59.4135 9.54402C59.1436 9.53524 58.8782 9.47185 58.6329 9.35758C58.3877 9.24331 58.1675 9.08048 57.9854 8.87869L57.9401 8.90163V12.2512H58.8015L61.0003 9.03929L60.9776 9.01635ZM70.0449 9.54402V17.4132C70.0449 19.6157 68.1158 21.1093 65.9646 21.5429L65.8286 21.3134C66.894 20.7858 67.5967 19.8428 67.5967 18.6957V10.4847L66.486 9.45225L65.8966 10.0488V16.2661L66.5767 16.9085V17.0003L64.7405 18.9756L62.6324 17.0232V16.9315L63.4484 16.0596V5.91913L65.8513 3.32664L65.8966 3.34958V9.45225L67.8688 7.34155L69.8432 9.154L70.4552 8.5575L70.7499 8.85575L70.0449 9.54402ZM74.4879 18.9756L72.6064 17.2297L71.9717 17.8721L71.677 17.5738L72.4251 16.7938V10.2552L71.609 9.49814L70.997 10.0946L70.7023 9.79639L72.9918 7.34155L74.7146 8.92458L75.3266 8.28219L75.644 8.60338L74.8732 9.38342V15.9449L75.8253 16.8397L76.5054 16.1285L76.8 16.4497L74.4879 18.9756ZM73.8305 7.13507L71.9717 5.4144L73.6718 3.57901L75.5306 5.29968L73.8305 7.13507ZM84.2806 18.9756L82.3084 17.1609V10.4617L81.243 9.45225L80.4723 10.2552V16.2432L81.175 16.9085V17.0003L79.3162 18.9756L77.2081 17.0232V16.9544L78.0241 16.0826V10.3011L77.0947 9.45225L76.4147 10.1405L76.0973 9.84227L78.4095 7.34155L80.4723 9.19988V9.65873L82.6258 7.34155L84.5979 9.13106L85.2553 8.46573L85.55 8.78692L84.7566 9.5899V16.0138L85.6407 16.8626L86.3887 16.0826L86.6607 16.3808L84.2806 18.9756ZM94.0279 9.56926V17.3444C94.0279 18.5374 94.6853 18.4915 94.6853 19.3863C94.6853 20.421 93.2119 21.3846 90.945 23.1052C90.197 22.2793 89.6756 21.9352 88.9729 21.9352C88.1025 21.9671 87.2599 22.254 86.5474 22.7611L86.3207 22.5776L89.4263 18.8816L87.3861 17.2549L86.7287 17.918L86.4341 17.6197L87.2048 16.8167V10.4388L91.5117 7.31861L93.8239 9.154L94.504 8.48867L94.7986 8.78692L94.0279 9.56926ZM92.2825 19.1385C91.7158 18.7691 91.5797 18.3791 91.5797 17.3926V17.0462L87.9302 21.3364L87.9528 21.3593C88.6782 20.9234 89.2222 20.6481 90.2877 20.6481C91.1944 20.6481 91.8518 21.0381 92.4411 21.5658C92.8718 21.1987 93.1892 20.8317 93.1892 20.2581C93.1892 19.8015 92.8492 19.501 92.2825 19.1362V19.1385ZM91.5797 10.3929L89.6983 8.90163L89.6529 8.94752V15.9908L90.9904 17.0462L91.5797 16.3579V10.3929ZM98.7202 18.9756L96.7254 17.3903L96.1134 18.0098L95.8187 17.7138L96.5214 16.9773V9.03929H95.2067L95.1613 8.9934L95.9547 7.8004H96.5214V6.26326L98.9243 3.67078L98.9696 3.71666V7.8004H100.783L100.828 7.84629L100.035 9.03929H98.9696V15.9908L100.058 16.8397L100.806 16.0596L101.1 16.3808L98.7202 18.9756ZM108.629 9.77344V16.1285L104.798 18.9963L102.007 16.8626L101.372 17.505L101.078 17.2068L101.803 16.4497V10.2552L105.818 7.34155L108.402 9.38342L109.059 8.7181L109.354 9.03929L108.629 9.77344ZM106.18 10.4617L104.274 8.94752L104.254 8.97046V15.8073L106.18 17.2756V10.4617ZM117.605 18.9504L115.633 17.1379V10.4388L114.568 9.42931L113.795 10.2323V16.2202L114.497 16.8856V16.9773L112.639 18.9527L110.53 17.0003V16.9315L111.346 16.0596V10.2782L110.417 9.42931L109.737 10.1176L109.42 9.81933L111.732 7.31861L113.795 9.17694V9.63579L115.948 7.31861L117.92 9.10812L118.578 8.44279L118.872 8.76398L118.079 9.56696V15.9908L118.963 16.8397L119.711 16.0596L119.983 16.3579L117.605 18.9504ZM131.521 18.9756C131.164 18.4824 130.666 18.1129 130.093 17.918V22.6923L130.048 22.7152L128.801 21.5452L126.171 24L126.126 23.9771V17.8033C125.211 18.0362 124.398 18.5695 123.814 19.3198L123.633 19.205C123.791 17.4362 124.653 16.1285 126.126 15.6237V11.15H125.65C125.37 11.1416 125.096 11.2336 124.876 11.4099C124.656 11.5862 124.505 11.8354 124.449 12.1136H124.177C124.058 11.7752 124.004 11.417 124.018 11.0582C124.018 9.93404 124.766 9.08517 125.99 9.08517H126.126V6.6074L125.31 5.87324L124.675 6.51563L124.358 6.21738L126.874 3.60195L129.005 5.57499V7.82334L129.662 7.11213V4.47376H130.093V6.65328L132.927 3.60195L135.488 5.96501V15.9449L131.521 18.9756ZM129.662 7.54804L129.005 8.23631V21.1551L129.662 21.7746V7.54804ZM132.632 7.02036L131.295 5.78147L130.093 7.06625V15.3943C131.159 15.532 131.952 15.8991 132.609 16.6103L132.632 16.5873V7.02036ZM143.671 9.77344V16.1285L139.84 18.9963L137.052 16.8626L136.418 17.505L136.123 17.2068L136.848 16.4497V10.2552L140.861 7.34155L143.445 9.38342L144.102 8.7181L144.397 9.03929L143.671 9.77344ZM141.223 10.4617L139.319 8.94752L139.296 8.97046V15.8073L141.223 17.2756V10.4617ZM149.293 11.4941H151.424V16.4038L147.82 18.9756C147.575 18.6809 147.27 18.4439 146.925 18.281C146.581 18.1181 146.205 18.0334 145.825 18.0327C145.145 18.0327 144.601 18.3539 144.057 18.9504L143.739 18.8357L146.868 14.2931H144.941V10.0258L148.704 7.34155C149.157 7.70863 149.52 7.93806 150.109 7.93806C150.687 7.95739 151.255 7.77964 151.721 7.43332L151.948 7.59392L149.293 11.4941ZM148.976 13.513H147.91L145.394 17.1609L145.417 17.2068C145.912 16.8276 146.518 16.6258 147.14 16.6332C147.487 16.6345 147.829 16.7133 148.143 16.864C148.456 17.0147 148.733 17.2336 148.953 17.505L148.976 17.4844V13.513ZM150.429 9.01635C149.993 9.38977 149.432 9.57878 148.862 9.54402C148.593 9.53524 148.327 9.47185 148.082 9.35758C147.837 9.24331 147.616 9.08048 147.434 8.87869L147.389 8.90163V12.2512H148.25L150.449 9.03929L150.429 9.01635ZM155.62 18.9756L153.625 17.3903L153.011 18.0098L152.716 17.7138L153.419 16.9773V9.03929H152.104L152.059 8.9934L152.852 7.8004H153.419V6.26326L155.824 3.67078L155.869 3.71666V7.8004H157.683L157.728 7.84629L156.935 9.03929H155.869V15.9908L156.957 16.8397L157.705 16.0596L158 16.3808L155.62 18.9756Z" fill="#000000"/>
</svg>
