<svg width="106" height="30" viewBox="0 0 106 30" fill="none" xmlns="http://www.w3.org/2000/svg">
<path d="M57.3908 19.3887C57.3908 22.6487 53.344 22.4552 53.344 22.4552H49.2973V16.5646H53.344C57.5086 16.5366 57.3908 19.3887 57.3908 19.3887ZM49.2973 7.58102H52.3809C55.583 7.75059 55.4621 10.1405 55.4621 10.1405C55.4621 13.1105 51.9214 13.1589 51.9214 13.1589H49.2973V7.58102ZM56.6422 14.3172C56.6422 14.3172 59.4121 13.134 59.3875 9.99565C59.3875 9.99565 59.8087 4.8523 53.0109 4.22497H45.4679V25.787H54.114C54.114 25.787 61.3383 25.8086 61.3383 19.7032C61.3382 19.7032 61.509 15.5483 56.6422 14.3172ZM37.1212 0H68.8787V30H37.1212V0ZM20.7693 19.3887C20.7693 22.6487 16.7225 22.4552 16.7225 22.4552H12.6755V16.5646H16.7225C20.8874 16.5366 20.7693 19.3887 20.7693 19.3887ZM12.6755 7.58102H15.7598C18.9619 7.75059 18.8408 10.1405 18.8408 10.1405C18.8408 13.1105 15.3003 13.1589 15.3003 13.1589H12.6755V7.58102ZM20.0211 14.3172C20.0211 14.3172 22.7914 13.134 22.7665 9.99565C22.7665 9.99565 23.1875 4.8523 16.3896 4.22497H8.84634V25.787H17.493C17.493 25.787 24.7171 25.8086 24.7171 19.7032C24.7171 19.7032 24.8873 15.5483 20.0211 14.3172ZM0.5 0H32.2576V30H0.5V0ZM99.0216 5.77079V9.7544C99.0216 9.7544 95.1427 7.36482 90.8564 7.31672C90.8564 7.31672 82.8595 7.15936 82.499 15.0011C82.499 15.0011 82.2102 22.2127 90.76 22.6236C90.76 22.6236 94.3473 23.0567 99.214 19.9457V24.0713C99.214 24.0713 92.6858 27.9595 85.1233 24.9648C85.1233 24.9648 78.7661 22.6376 78.5239 15.0011C78.5239 15.0011 78.2595 7.14683 86.7381 4.53958C86.7381 4.53958 89.0022 3.67067 93.0709 4.05687C93.071 4.05676 95.5028 4.29791 99.0216 5.77079ZM73.7424 30H105.5V0H73.7424V30Z" fill="#808080"/>
</svg>
