<svg width="150" height="30" viewBox="0 0 150 30" fill="none" xmlns="http://www.w3.org/2000/svg">
<path d="M4.42211 3.8762H7.66032C10.6199 3.8762 11.9241 4.8104 11.9241 6.70807C11.9241 8.35717 10.6199 9.47692 8.00202 9.47692H4.42211V3.8762ZM0.5 22.5353H8.4366C12.6075 22.5353 16.7785 21.047 16.7785 16.2559C16.7785 13.4241 14.7908 11.2501 12.021 10.9355V10.87C14.2872 10.1918 15.8502 8.54322 15.8502 6.05467C15.8502 2.04204 12.4218 0.51944 9.0907 0.51944H0.5V22.5353ZM4.42211 12.8337H8.18778C11.3624 12.8337 12.8618 13.6434 12.8618 15.9464C12.8618 18.8343 10.0537 19.1786 8.03133 19.1786H4.42211V12.8337Z" fill="#000000"/>
<path fill-rule="evenodd" clip-rule="evenodd" d="M23.0761 0V22.5353H19.3512V0H23.0761Z" fill="#000000"/>
<path d="M29.3117 15.0732C29.3117 12.7409 30.9625 10.5972 33.7026 10.5972C36.4427 10.5972 38.0886 12.7414 38.0886 15.0732C38.0886 17.405 36.4427 19.5497 33.7026 19.5497C30.962 19.5497 29.3117 17.4054 29.3117 15.0732ZM25.5753 15.0732C25.5753 19.769 29.1845 22.9064 33.7026 22.9064C38.2152 22.9064 41.8299 19.7695 41.8299 15.0732C41.8299 10.3769 38.2157 7.23544 33.7026 7.23544C29.1845 7.23495 25.5753 10.3774 25.5753 15.0732Z" fill="#000000"/>
<path d="M47.2509 15.0732C47.2509 12.7409 48.9018 10.5972 51.6419 10.5972C54.382 10.5972 56.0279 12.7414 56.0279 15.0732C56.0279 17.405 54.382 19.5497 51.6419 19.5497C48.9018 19.5497 47.2509 17.4054 47.2509 15.0732ZM43.5146 15.0732C43.5146 19.769 47.1243 22.9064 51.6419 22.9064C56.1545 22.9064 59.7692 19.7695 59.7692 15.0732C59.7692 10.3769 56.155 7.23544 51.6419 7.23544C47.1238 7.23495 43.5146 10.3774 43.5146 15.0732Z" fill="#000000"/>
<path d="M62.0449 7.60853H65.5955V9.94328H65.6541C66.3087 8.54322 67.7396 7.23296 70.2303 7.23296C72.5358 7.23296 74.1281 8.13293 74.9044 10.0018C75.9936 8.10862 77.5809 7.23296 79.8178 7.23296C83.803 7.23296 85.2056 10.0673 85.2056 13.6439V22.5358H81.4692V14.078C81.4692 12.214 80.9125 10.5967 78.6999 10.5967C76.3656 10.5967 75.4909 12.5236 75.4909 14.4486V22.5353H71.7596V13.6434C71.7596 11.8037 71.0121 10.5967 69.2052 10.5967C66.7483 10.5967 65.7813 12.3946 65.7813 14.3875V22.5353H62.0449V7.60853Z" fill="#000000"/>
<path d="M100.625 15.0732C100.625 17.4079 98.9789 19.5497 96.2339 19.5497C93.4933 19.5497 91.8429 17.4079 91.8429 15.0732C91.8429 12.7409 93.4933 10.5917 96.2339 10.5917C98.9789 10.5917 100.625 12.7409 100.625 15.0732ZM88.2337 22.5353H91.7843V20.2978H91.8429C92.9366 22.0958 94.8954 22.906 96.9853 22.906C101.586 22.906 104.361 19.4857 104.361 15.0727C104.361 10.6572 101.401 7.23495 97.1373 7.23495C94.3381 7.23495 92.8392 8.53776 92.0624 9.50867H91.9696V0H88.2332L88.2337 22.5353Z" fill="#000000"/>
<path d="M109.787 13.5803C110.066 11.4311 111.438 10.0336 113.646 10.0336C115.981 10.0336 117.411 11.4024 117.446 13.5803H109.787ZM121.182 16.3785V15.354C121.182 10.1581 118.35 7.23544 114.178 7.23544C109.656 7.23544 106.051 10.3774 106.051 15.0732C106.051 19.769 109.656 22.9064 114.178 22.9064C116.537 22.9064 118.754 22.0675 120.493 19.9252L117.817 17.908C116.884 19.0526 115.668 19.9252 113.802 19.9252C111.717 19.9252 110.031 18.5862 109.787 16.3785H121.182Z" fill="#000000"/>
<path d="M123.614 7.60853H127.351V9.97255H127.414C128.225 8.26241 129.871 7.23296 131.834 7.23296C132.303 7.23296 132.737 7.32822 133.172 7.45473V11.0605C132.552 10.9067 131.956 10.7822 131.365 10.7822C127.848 10.7822 127.35 13.7386 127.35 14.5488V22.5358H123.614L123.614 7.60853Z" fill="#000000"/>
<path d="M141.53 10.5967C144.235 10.5967 145.949 12.3946 145.949 14.9824C145.949 17.466 144.269 19.3636 141.5 19.3636C138.98 19.3636 137.109 17.405 137.109 15.0409C137.109 12.3946 138.911 10.5967 141.53 10.5967ZM145.949 7.60853V9.84802H145.891C144.797 8.04263 142.834 7.23296 140.748 7.23296C136.143 7.23296 133.373 10.6552 133.373 15.0732C133.373 19.2982 136.333 22.7209 140.812 22.7209C142.682 22.7209 144.611 22.0085 145.706 20.5474H145.759V21.6379C145.759 24.5893 144.646 26.6437 141.031 26.6437C138.946 26.6437 137.387 25.8628 135.893 24.4871L133.656 27.5407C135.766 29.4141 138.291 30 141.065 30C146.888 30 149.5 26.5753 149.5 21.1983V7.60853H145.949Z" fill="#000000"/>
</svg>
