<svg width="158" height="20" viewBox="0 0 158 20" fill="none" xmlns="http://www.w3.org/2000/svg">
<path d="M10.4064 0.939815V5.24999H10.0812C9.89532 4.06249 8.78036 1.68749 7.99059 1.51157C7.57248 1.42361 7.10791 1.42361 6.59688 1.42361H4.64569V9.56019H6.0394C7.015 9.56019 7.43311 9.07639 7.61894 8.72454C7.85122 8.32871 8.17642 6.83333 8.22287 6.12962H8.59453V13.5185H8.22287C8.17642 12.7708 7.80477 11.1435 7.61894 10.7917C7.38666 10.4398 6.96854 9.95602 6.0394 9.95602H4.64569V17.125C4.64569 17.6967 4.83152 17.7407 5.29609 18.0046C5.66775 18.2245 6.82917 18.6643 7.3402 18.7963V19.0602H0V18.7963C0.418112 18.7083 1.626 18.2245 2.04411 18.0046C2.46222 17.7847 2.6945 17.6967 2.6945 17.125V2.83101C2.6945 2.25925 2.50868 2.17129 2.04411 1.95138C1.67245 1.77546 0.464569 1.29167 0 1.20371V0.939815H10.4064ZM13.4261 1.99537C13.0544 1.81944 11.8465 1.33565 11.3819 1.24769V0.939815H18.7221V1.20371C18.3505 1.29167 17.0497 1.77546 16.678 1.95138C16.2599 2.17129 16.0276 2.25925 16.0276 2.83101V17.125C16.0276 17.6967 16.2599 17.7407 16.678 18.0046C17.0497 18.2245 18.2576 18.6643 18.7221 18.7963V19.0602H11.3819V18.7963C11.7536 18.7083 13.0079 18.2245 13.4261 18.0046C13.8442 17.7847 14.0765 17.6967 14.0765 17.125V2.83101C14.0765 2.25925 13.8442 2.17129 13.4261 1.99537ZM30.8474 2.25926C30.3828 2.69907 30.2899 3.84259 30.2899 5.60185V19.2361H29.7789L22.6245 4.81018V14.1343C22.6245 16.3333 22.7174 17.125 22.9497 17.5208C23.182 17.9167 24.6222 18.6204 25.3655 18.8403V19.1042H19.3261V18.8403C19.93 18.6644 21.4166 17.9606 21.6954 17.5648C21.9277 17.213 22.0206 16.3773 22.0206 14.3102V4.85416C22.0206 3.75463 21.8348 3.00695 21.5096 2.56713C21.1379 2.08334 20.0694 1.51158 19.1403 1.24769V0.939815H22.9033L29.7324 14.8819V5.77778C29.7324 3.88657 29.5466 2.65509 29.175 2.30324C28.571 1.73148 27.5025 1.33565 26.8986 1.20371V0.939815H32.9844V1.20371C32.3805 1.33565 31.4513 1.64352 30.8474 2.25926ZM39.0703 19.0602V18.7523C39.6742 18.6204 41.4396 18.0046 41.4396 17.5208C41.4396 17.3449 41.3931 16.9491 41.3467 16.7292L40.5104 13.2106H35.7718C35.4466 14.4421 35.3537 14.75 35.1679 15.5417C35.075 16.1134 34.9821 16.5093 34.9821 17.169C34.9821 17.9167 36.7939 18.6643 37.2585 18.7523V19.0602H31.4978V18.7523C31.823 18.7083 32.9844 18.0926 33.3096 17.8287C33.6813 17.4768 34.1458 16.8611 34.4246 15.9375C35.6789 11.3634 37.1655 5.73379 38.4199 0.675923H39.3026C41.1144 7.49305 42.8333 14.2662 43.4837 16.7292C43.6695 17.4768 43.7624 17.5208 44.3664 17.9606C44.6916 18.1806 45.5742 18.6643 46.0388 18.7963V19.1042H39.0703V19.0602ZM38.1411 3.79861L35.9112 12.6389H40.3711L38.1411 3.79861ZM57.653 2.25926C57.1885 2.69907 57.0956 3.84259 57.0956 5.60185V19.2361H56.5845L49.4302 4.81018V14.1343C49.4302 16.3333 49.5231 17.125 49.7554 17.5208C49.9876 17.9167 51.4278 18.6204 52.1711 18.8403V19.1042H46.1317V18.8403C46.7357 18.6644 48.2223 17.9606 48.501 17.5648C48.7333 17.213 48.8262 16.3773 48.8262 14.3102V4.85416C48.8262 3.75463 48.6404 3.00695 48.3152 2.56713C47.9436 2.08334 46.875 1.51158 45.9459 1.24769V0.939815H49.7089L56.5381 14.8819V5.77778C56.5381 3.88657 56.3523 2.65509 55.9806 2.30324C55.3767 1.73148 54.3081 1.33565 53.7042 1.20371V0.939815H59.7901V1.20371C59.1861 1.33565 58.257 1.64352 57.653 2.25926ZM65.5507 19.5C61.9271 19.5 60.0223 15.9375 60.0223 10.2199C60.0223 4.10648 62.4381 0.5 65.5507 0.5C66.8515 0.5 67.7342 1.37963 68.0594 2.12732L68.8492 0.631939H69.2208L69.2673 7.18519H68.8027C68.1988 3.75463 67.3626 0.939815 65.5043 0.939815C63.135 0.939815 62.2523 4.37037 62.2523 10C62.2523 15.3218 62.9491 18.5324 65.7366 18.5324C67.6877 18.5324 68.8027 16.6412 69.3602 14.1343L69.8712 14.2662C69.4067 17.081 68.1059 19.5 65.5507 19.5ZM72.9838 1.99537C72.6122 1.81944 71.4043 1.33565 70.9397 1.24769V0.939815H78.2799V1.20371C77.9083 1.29167 76.6075 1.77546 76.2358 1.95138C75.8177 2.17129 75.5854 2.25925 75.5854 2.83101V17.125C75.5854 17.6967 75.8177 17.7407 76.2358 18.0046C76.6075 18.2245 77.8154 18.6643 78.2799 18.7963V19.0602H70.9397V18.7963C71.3114 18.7083 72.5657 18.2245 72.9838 18.0046C73.4019 17.7847 73.6342 17.6967 73.6342 17.125V2.83101C73.5878 2.25925 73.4019 2.17129 72.9838 1.99537ZM86.1776 19.0602V18.7523C86.7815 18.6204 88.5469 18.0046 88.5469 17.5208C88.5469 17.3449 88.5005 16.9491 88.454 16.7292L87.6178 13.2106H82.8792C82.554 14.4421 82.461 14.75 82.2752 15.5417C82.1823 16.1134 82.0894 16.5093 82.0894 17.169C82.0894 17.9167 83.9012 18.6643 84.3658 18.7523V19.0602H78.5587V18.7523C78.8839 18.7083 80.0453 18.0926 80.3705 17.8287C80.7421 17.4768 81.2067 16.8611 81.4855 15.9375C82.7398 11.3634 84.2264 5.73379 85.4808 0.675923H86.3634C88.1753 7.49305 89.8942 14.2662 90.5446 16.7292C90.7304 17.4768 90.8233 17.5208 91.4272 17.9606C91.7524 18.1806 92.6351 18.6643 93.0997 18.7963V19.1042H86.1776V19.0602ZM85.2485 3.79861L83.0185 12.6389H87.4784L85.2485 3.79861ZM95.7942 1.99537C95.469 1.86342 94.0753 1.37962 93.5643 1.29166V0.939815H101.23V1.24769C100.858 1.33565 99.3714 1.81944 98.9997 1.95138C98.5351 2.12731 98.3493 2.25925 98.3493 2.83101V16.1574C98.3493 18.5324 98.4422 18.5764 100.347 18.5764C102.856 18.5764 103.041 18.4884 103.413 17.8287C103.878 17.081 104.807 14.838 105.086 13.9143H105.411L105.178 19.0162H93.5178V18.7523C93.8895 18.6643 95.3761 18.1805 95.7477 18.0486C96.2123 17.8727 96.3981 17.7407 96.3981 17.169V2.83101C96.3981 2.25925 96.2123 2.17129 95.7942 1.99537ZM123.204 5.64584C123.204 9.25232 120.463 10.7477 117.722 10.7477H116.142V17.125C116.142 17.6967 116.328 17.7407 116.793 18.0046C117.164 18.2245 118.326 18.6643 118.837 18.7963V19.0602H111.497V18.7963C111.915 18.7083 113.123 18.2245 113.541 18.0046C113.959 17.7847 114.191 17.6967 114.191 17.125V2.83101C114.191 2.25925 114.005 2.17129 113.541 1.95138C113.169 1.77546 111.961 1.29167 111.497 1.20371V0.939815H118.186C121.345 0.939815 123.204 2.91899 123.204 5.64584ZM117.257 1.42361H116.142V10.2639H117.257C119.812 10.2639 120.974 8.15277 120.974 5.90972C120.927 3.66666 120.091 1.42361 117.257 1.42361ZM133.61 17.4329C132.774 18.7083 131.612 19.456 129.847 19.456C128.314 19.456 127.06 18.6643 126.223 17.4768C125.109 15.8495 124.458 13.0787 124.458 10.1759C124.458 7.27315 125.062 4.54629 126.131 2.875C127.06 1.42361 128.268 0.5 129.94 0.5C131.52 0.5 132.727 1.24768 133.75 2.875C134.725 4.41435 135.375 7.27314 135.375 9.86805C135.375 12.6389 134.864 15.5856 133.61 17.4329ZM129.94 0.939815C127.524 0.939815 126.734 4.01852 126.734 10.044C126.734 15.9815 127.385 19.0162 129.94 19.0162C132.356 19.0162 133.099 15.8495 133.099 9.91203C133.099 4.01851 132.356 0.939815 129.94 0.939815ZM141.833 19.412C140.3 19.412 139.278 18.6204 138.767 17.9606L137.977 19.0602H137.605L137.42 13.1227H137.745C138.627 17.125 139.975 18.9722 141.787 18.9722C143.32 18.9722 144.249 17.6968 144.249 15.6296C144.249 14.2662 143.273 12.8148 142.437 11.9352C141.647 11.1435 140.764 10.3958 140.068 9.73611C138.813 8.59259 137.42 6.9213 137.42 4.5463C137.42 1.73149 139.417 0.587968 141.368 0.587968C142.298 0.587968 143.32 1.02778 144.016 1.90741L144.806 0.939815H145.085V6.34953H144.853C144.063 3.18286 143.273 1.02778 141.461 1.02778C140.161 1.02778 139.185 2.08333 139.185 3.93055C139.185 5.38194 139.928 6.61343 140.811 7.4051C141.554 8.1088 142.483 8.90046 143.134 9.56019C144.527 10.8796 146.2 12.331 146.2 14.9259C146.2 18.1805 144.016 19.412 141.833 19.412ZM158 5.68981H157.675C156.606 1.64351 156.56 1.59954 155.166 1.4676C154.841 1.42362 154.469 1.42361 153.865 1.42361H153.401V17.169C153.401 17.7407 153.587 17.7847 154.051 18.0486C154.423 18.2245 155.631 18.7083 156.095 18.8403V19.1042H148.755V18.8403C149.127 18.7523 150.335 18.3125 150.799 18.0486C151.217 17.8287 151.45 17.7407 151.45 17.169V1.42361H151.031C150.428 1.42361 150.056 1.4676 149.731 1.4676C148.337 1.59954 148.291 1.64351 147.222 5.68981H146.897V0.939815H158V5.68981Z" fill="#000000"/>
</svg>
