<svg width="118" height="30" viewBox="0 0 118 30" fill="none" xmlns="http://www.w3.org/2000/svg">
<path d="M66.8925 9.77867C66.8925 6.27767 66.952 3.01811 67.1307 0L58.0172 1.7505V2.59557L58.9106 2.7163C59.5659 2.77666 59.9828 3.01811 60.2211 3.38028C60.4594 3.80282 60.6381 4.40644 60.7572 5.31187C60.8763 7.06237 60.9955 11.0463 60.9359 17.3239C60.9359 23.5412 60.8763 27.4648 60.7572 28.9738C64.0333 29.6982 66.5946 30 68.5008 30C72.0747 30 74.8743 28.9738 76.8995 26.8612C78.9248 24.8089 79.997 21.9115 79.997 18.3501C79.997 15.5131 79.2226 13.159 77.6739 11.2877C76.1252 9.4165 74.1595 8.51107 71.8364 8.51107C70.2877 8.51107 68.6795 8.9336 66.8925 9.77867ZM67.0712 28.3702C66.952 26.4386 66.8329 20.6439 66.8329 11.167C67.369 10.9859 68.0838 10.8652 68.9773 10.8652C70.4069 10.8652 71.5386 11.5895 72.3725 13.0986C73.2065 14.6076 73.6234 16.4185 73.6234 18.7123C73.6234 21.5493 73.1469 23.8431 72.1938 25.7746C71.2408 27.6459 70.0495 28.6117 68.5603 28.6117C68.0838 28.4909 67.6073 28.4306 67.0712 28.3702ZM23.8263 0.603622H0V1.81087L1.25088 1.93159C2.20394 2.11268 2.85916 2.47485 3.27612 3.01811C3.69308 3.62173 3.93135 4.58753 3.99091 5.91549C4.46744 12.4346 4.46744 18.5312 3.99091 24.1449C3.87178 25.4728 3.63352 26.4386 3.27612 27.0423C2.85916 27.6459 2.20394 28.008 1.25088 28.1288L0 28.3099V29.5171H15.368V28.3099L13.7597 28.1891C12.8067 28.0684 12.1514 27.6459 11.7345 27.1026C11.3175 26.499 11.0793 25.5332 11.0197 24.2052C10.841 21.7907 10.7219 19.0141 10.7219 15.9356L13.9384 15.996C15.6658 16.0563 16.8571 17.3843 17.4528 20.0402H18.6441V10.2012H17.4528C16.8571 12.7968 15.7254 14.1247 13.9384 14.1851L10.7219 14.2455C10.7219 8.81288 10.841 4.9497 11.0197 2.59557H15.7254C19.0611 2.59557 21.3246 4.76861 22.635 9.11469L24.0646 8.69215L23.8263 0.603622ZM21.0268 19.1952C21.0268 22.334 21.9202 24.9296 23.6477 26.9819C25.3751 29.0342 27.9364 30 31.153 30C34.3695 30 36.9904 28.9738 38.8965 26.8612C40.8026 24.8089 41.6961 22.2133 41.6961 19.0744C41.6961 15.9356 40.8026 13.34 39.0752 11.2877C37.3478 9.23541 34.7865 8.26962 31.5699 8.26962C28.3534 8.26962 25.7325 9.29577 23.8263 11.4085C21.9202 13.4608 21.0268 16.0563 21.0268 19.1952ZM34.3099 12.3139C35.0247 14.0644 35.3226 16.3581 35.3226 19.1348C35.3226 25.5332 34.0121 28.672 31.4508 28.672C30.1403 28.672 29.1277 27.7666 28.4129 25.9557C27.6981 24.1449 27.4003 21.8511 27.4003 19.1348C27.4003 12.7968 28.7108 9.65795 31.2721 9.65795C32.5825 9.59759 33.5951 10.503 34.3099 12.3139ZM84.6431 26.9819C86.6088 28.9738 89.1105 30 92.0888 30C93.9354 30 95.5437 29.6378 96.9732 28.8531C98.4028 28.1288 99.5346 27.2233 100.309 26.1368L99.7133 25.4125C98.4028 26.4386 96.9137 26.9215 95.1863 26.9215C92.8036 26.9215 90.9571 26.1368 89.7062 24.507C88.3958 22.8773 87.8001 20.8249 87.9192 18.169H100.666C100.666 15.2716 99.9515 12.9175 98.4624 11.0463C96.9732 9.23541 94.8884 8.32998 92.208 8.32998C88.8723 8.32998 86.311 9.4165 84.4644 11.5292C82.6179 13.6419 81.7244 16.2374 81.7244 19.3159C81.7244 22.4547 82.6774 24.9899 84.6431 26.9819ZM89.051 11.831C89.7062 10.3823 90.5401 9.65795 91.6719 9.65795C93.4588 9.65795 94.3523 11.9517 94.3523 16.5996L88.0384 16.7203C88.0979 14.9095 88.3958 13.2797 89.051 11.831ZM116.69 9.4165C115.081 8.69215 113.056 8.26962 110.614 8.26962C108.112 8.26962 106.146 8.9336 104.657 10.2012C103.168 11.4688 102.394 13.0382 102.394 14.9095C102.394 16.5392 102.87 17.8068 103.764 18.7123C104.657 19.6177 106.087 20.4024 107.933 21.0664C109.601 21.67 110.793 22.2736 111.388 22.8169C111.984 23.4205 112.341 24.0845 112.341 24.9899C112.341 25.835 112.043 26.6197 111.388 27.2233C110.793 27.8873 109.959 28.1891 108.886 28.1891C106.266 28.1891 104.3 26.2575 102.93 22.3944L101.917 22.6962L102.155 28.7324C104.3 29.5775 106.682 30 109.303 30C112.043 30 114.128 29.3964 115.677 28.1288C117.226 26.9215 118 25.171 118 22.998C118 21.5493 117.643 20.3421 116.868 19.4366C116.094 18.5312 114.843 17.7465 113.056 17.0221C111.09 16.2978 109.72 15.6338 109.006 15.0302C108.291 14.4266 107.933 13.7022 107.933 12.7968C107.933 11.8913 108.172 11.167 108.708 10.5634C109.244 9.95976 109.899 9.71831 110.733 9.71831C113.116 9.71831 114.843 11.4688 115.915 14.9095L116.928 14.6076L116.69 9.4165ZM59.3872 8.87324C58.5532 8.4507 57.6598 8.26962 56.6471 8.26962C55.6345 8.26962 54.6219 8.69215 53.4902 9.53722C52.3584 10.3823 51.5245 11.5292 50.8693 13.0986L50.9288 8.26962L41.8748 10.0805V10.9256L42.7683 10.9859C43.9001 11.1066 44.5553 12.0121 44.6744 13.6419C45.0318 17.3843 45.0318 21.3682 44.6744 25.5936C44.5553 27.2233 43.9001 28.0684 42.7683 28.2495L41.8748 28.3702V29.5171H54.5028V28.3702L52.8945 28.2495C51.7627 28.1288 51.1075 27.2233 50.9884 25.5936C50.631 22.0926 50.5714 18.3501 50.8693 14.4869C51.2267 13.8833 52.001 13.5211 53.1923 13.4004C54.3836 13.2797 55.7537 13.6419 57.1832 14.4869L59.3872 8.87324Z" fill="#000000"/>
</svg>
