<svg width="84" height="30" viewBox="0 0 84 30" fill="none" xmlns="http://www.w3.org/2000/svg">
<path d="M83.5 0H0.5V30H83.5V0Z" fill="#000000"/>
<path d="M72.3526 23.9146C72.3526 22.1286 73.7677 20.6744 75.4972 20.6744C77.2266 20.6744 78.626 22.1286 78.626 23.9146C78.626 25.7007 77.2109 27.1549 75.4972 27.1549C73.7834 27.1549 72.3526 25.7007 72.3526 23.9146Z" fill="#FFFFFF"/>
<path d="M5.2168 6.40148C5.2168 4.61538 6.61612 3.16122 8.34561 3.16122C10.0751 3.16122 11.4744 4.61538 11.4744 6.40148C11.4744 8.18757 10.0751 9.64173 8.34561 9.64173C6.61612 9.64173 5.2168 8.20337 5.2168 6.40148Z" fill="#FFFFFF"/>
<path d="M78.453 18.9357H72.8086V3.98314H78.453V18.9357Z" fill="#FFFFFF"/>
<path d="M36.9923 9.49947C36.6622 9.18335 36.1747 9.15174 35.7817 9.27819C35.4201 9.43625 35.1685 9.78398 35.1213 10.1791L35.1056 19.7893C35.1842 20.1844 35.4515 20.5163 35.8288 20.6586C36.1119 20.7376 36.4263 20.7376 36.7093 20.6428C37.008 20.4373 37.2753 20.2792 37.2753 19.7102L37.2911 10.2266C37.2753 9.95785 37.1653 9.70495 36.9923 9.49947ZM42.338 6.81243C42.9041 7.57113 43.1399 8.91465 43.1556 10.1791L43.1242 19.9631C43.0456 22.5079 41.6305 25.2898 39.4451 26.1591C37.2596 27.2023 33.8321 27.0443 31.8982 25.5269C30.2159 24.215 29.3668 22.3024 29.2725 20.1686L29.2882 9.26238C29.4297 7.71338 30.2159 6.05374 31.4108 5.31085C32.2912 4.67861 33.3132 4.31507 34.3824 4.23604C36.6464 3.95153 40.6714 3.91992 42.338 6.81243Z" fill="#FFFFFF"/>
<path d="M64.6171 18.3825C64.6171 18.3983 63.4221 11.9178 63.4221 11.902C63.4221 11.8862 63.4221 11.7914 62.18 18.3825C62.1643 18.3983 64.6013 18.3983 64.6171 18.3825ZM68.0289 4.10959C68.1861 4.15701 71.4093 26.5859 71.4093 26.6491C71.3621 26.6649 66.0636 26.6491 66.0636 26.6491L65.4975 23.2824C65.4975 23.2824 61.4254 23.2982 61.4254 23.2824C61.4254 23.2666 60.7965 26.6491 60.7965 26.6491C60.7493 26.6491 55.3092 26.6649 55.2935 26.6491C55.2778 26.6333 59.3028 4.1412 59.2871 4.10959C59.3028 4.1412 68.0289 4.10959 68.0289 4.10959Z" fill="#FFFFFF"/>
<path d="M51.0956 20.8008H54.5546V26.6807C54.5388 26.6649 45.3725 26.6807 45.3725 26.6807V4.10959H51.1113C51.0798 4.10959 51.0956 20.8325 51.0956 20.8008Z" fill="#FFFFFF"/>
<path d="M19.1943 12.1865H21.4583V4.17281H27.0399V26.6965H21.4898L21.5055 17.8767H19.2572L19.2414 26.6965H13.5184V4.17281H19.1785L19.1943 12.1865Z" fill="#FFFFFF"/>
<path d="M11.3172 26.6965H5.71993L5.73565 10.4004H11.3172V26.6965Z" fill="#FFFFFF"/>
</svg>
