<svg width="158" height="28" viewBox="0 0 158 28" fill="none" xmlns="http://www.w3.org/2000/svg">
<path d="M103.324 27.5C100.864 27.5 99.0576 27.0239 97.8611 26.0718C96.8453 25.301 96.2809 24.0995 96.2809 22.8073H101.18C101.405 23.7594 101.812 24.3035 103.392 24.3035C105.13 24.3035 105.853 23.3514 105.853 21.1977V19.2934H105.762C105.153 20.8577 103.573 21.8325 101.879 21.6738C97.8385 21.6738 95.7842 19.3615 95.7842 14.8501C95.6939 12.9232 96.3486 11.0642 97.6128 9.61335C98.7415 8.43451 100.322 7.77708 101.97 7.79975C103.55 7.64106 105.085 8.45718 105.83 9.86272H105.92V8.11713H110.751V20.7443C110.751 23.0567 110.187 24.7116 109.013 25.7544C107.749 26.9332 105.92 27.5 103.324 27.5ZM103.482 11.2229C101.902 11.2229 100.954 12.5831 100.954 14.8728C100.954 17.2531 101.812 18.5227 103.392 18.5227C104.746 18.5227 105.83 17.4118 105.83 16.0516V14.238C105.83 12.3338 104.972 11.2229 103.482 11.2229ZM57.317 22.7166C55.5788 22.8753 53.8631 22.4219 52.4183 21.4471C51.4702 20.631 50.9058 19.4521 50.8381 18.1826H55.3531C55.4434 19.1348 56.0754 19.6108 57.2493 19.6108C58.3555 19.6108 59.0553 19.2028 59.0553 18.432C59.0553 17.7972 58.6489 17.4799 57.6331 17.3212L55.3305 17.0038C52.5764 16.6864 51.0639 15.0995 51.0639 12.6285C51.0413 11.3589 51.5605 10.1574 52.4861 9.29597C55.2176 7.39169 58.8295 7.30101 61.6514 9.06927C62.5995 9.86272 63.1413 11.0189 63.1413 12.2431H58.6941C58.6715 11.4269 57.9943 10.7922 57.2042 10.8149H57.1139C55.8497 10.8149 55.6014 11.3816 55.6014 11.9257C55.6014 12.4698 55.8271 12.8778 56.9558 13.0365L59.4165 13.3539C60.5001 13.3992 61.5385 13.83 62.3512 14.5327C63.1413 15.3035 63.5476 16.3917 63.4574 17.4798C63.6605 20.7443 61.1999 22.7393 57.317 22.7166ZM43.095 22.6486C38.5124 22.6486 35.8937 19.9509 35.8937 15.0995C35.826 13.1499 36.5032 11.2456 37.79 9.77204C39.1896 8.38917 41.131 7.66373 43.095 7.77708C45.5556 7.77708 47.4519 8.47985 48.6258 9.84005C49.8223 11.3816 50.4318 13.2859 50.3641 15.2355V16.3463H40.9504C41.1084 18.4093 41.7405 19.3615 43.253 19.3615C44.156 19.5202 45.0364 18.9307 45.2396 18.0013H50.2286C49.89 20.971 47.4293 22.6486 43.095 22.6486ZM43.095 10.8149C41.7405 10.8149 41.1084 11.767 40.9504 13.6713H45.217V13.5126C45.059 11.699 44.3592 10.8149 43.095 10.8149ZM133.755 22.5806C132.22 22.6713 130.73 22.0819 129.646 20.9937C128.608 19.7922 128.066 18.228 128.134 16.6184C128.043 15.0542 128.585 13.5126 129.646 12.3338C130.752 11.2683 132.22 10.7015 133.755 10.7469C137.231 10.7469 139.376 12.9685 139.376 16.6184C139.376 20.2683 137.141 22.5806 133.755 22.5806ZM133.755 13.0592C131.926 13.0592 131.543 15.0542 131.543 16.7091C131.543 19.1801 132.333 20.3589 133.755 20.3589C135.177 20.3589 135.967 19.0894 135.967 16.7091C135.967 14.3287 135.177 13.0592 133.755 13.0592ZM122.445 22.5806C120.91 22.6713 119.42 22.0819 118.336 20.9937C117.343 19.7922 116.824 18.2733 116.914 16.7091C116.914 13.0592 119.059 10.8375 122.535 10.8375C125.696 10.8375 127.592 12.4244 127.682 15.1222H124.454C124.386 14.17 123.98 13.0592 122.558 13.0592C120.571 13.0592 120.345 15.3489 120.345 16.7091C120.345 19.1801 121.068 20.3589 122.558 20.3589C123.641 20.3589 124.522 19.4975 124.544 18.4093C124.544 18.3867 124.544 18.3866 124.544 18.364V18.1373H127.705C127.705 19.4295 127.163 20.631 126.192 21.4924C125.064 22.2179 123.777 22.6033 122.445 22.5806ZM69.3268 22.4899C68.1077 22.6033 66.8887 22.2406 65.918 21.4698C64.9698 20.4723 64.4732 19.1121 64.5635 17.7292V4.24055H69.4848V8.1398H72.4195V11.631H69.5751V16.7997C69.5751 18.296 70.0491 18.8627 71.4036 18.8627C71.7197 18.8854 72.0357 18.8401 72.3518 18.772V22.3312C71.3133 22.3992 70.3652 22.4899 69.3268 22.4899ZM150.979 22.2632H147.661V15.6662C147.729 15.0315 147.616 14.4194 147.345 13.8526C147.029 13.3766 146.487 13.1272 145.923 13.2179C144.568 13.2179 143.778 14.17 143.778 15.7569V22.2632H140.459V11.0642H143.62V12.9005C144.275 11.5856 145.629 10.7695 147.096 10.8375C148.993 10.8375 150.099 11.631 150.573 13.1499H150.641C151.273 11.699 152.718 10.7922 154.275 10.8375C156.804 10.8375 158 12.1977 158 14.9635V22.2632H154.682V15.6889C154.749 15.0542 154.636 14.4421 154.365 13.8753C154.049 13.3992 153.508 13.1499 152.943 13.2406C151.589 13.2406 150.799 14.1927 150.799 15.7796L150.979 22.2632ZM85.3773 22.2632H80.3206V8.1398H85.2193V10.4295H85.3096C86.19 8.75189 87.996 7.73174 89.8923 7.89043C91.6982 7.89043 92.985 8.3665 93.7751 9.31864C94.5878 10.5428 94.949 11.9937 94.791 13.4446V22.2632H89.7342V14.238C89.802 13.5353 89.6665 12.8098 89.3279 12.1751C88.9667 11.6763 88.3572 11.4043 87.7477 11.4723C86.2578 11.4723 85.4676 12.4244 85.4676 14.3287L85.3773 22.2632ZM12.1677 22.2632H7.11102V8.1398H12.0097V10.4295H12.0774C12.9579 8.75189 14.7638 7.73174 16.6601 7.89043C18.4661 7.89043 19.7528 8.3665 20.5429 9.31864C21.3556 10.5428 21.7168 11.9937 21.5814 13.4446V22.2632H16.5246V14.238C16.5924 13.5353 16.4569 12.8098 16.1183 12.1751C15.7571 11.6763 15.1476 11.4043 14.5381 11.4723C13.0256 11.4723 12.2355 12.4244 12.2355 14.3287L12.1677 22.2632ZM115.898 22.2632H112.422V18.9307H115.898V22.2632ZM78.6501 22.2632H73.5934V8.1398H78.6501V22.2632ZM31.5368 22.2632H26.322L21.333 8.1398H26.4123L28.2183 14.2607C28.6924 16.0063 29.0987 17.8426 29.0987 17.9106H29.189C29.4373 16.7091 29.6631 15.5302 29.9791 14.3287L31.8077 8.20781H36.7064L31.5368 22.2632ZM5.21474 22.2632H0V2.26826H5.21474V22.2632Z" fill="#808080"/>
<path d="M73.4353 6.62091L78.6501 5.66877V0.5L73.4353 1.45214V6.62091Z" fill="#808080"/>
</svg>
