<svg width="166" height="30" viewBox="0 0 166 30" fill="none" xmlns="http://www.w3.org/2000/svg">
<path d="M3.78781 25.6793C3.6012 26.9697 3.29908 28.4471 2.23721 28.674C1.67294 28.7852 1.40637 28.7852 1.10425 28.7852C0.726593 28.7852 0.5 28.8609 0.5 29.0522C0.5 29.3948 0.802106 29.4705 1.17977 29.4705C2.38827 29.4705 4.20546 29.3548 4.92522 29.3548C5.605 29.3548 7.30666 29.4705 8.89282 29.4705C9.46153 29.4705 9.80363 29.3948 9.80363 29.0522C9.80363 28.8609 9.53705 28.7852 9.23494 28.7852C8.85728 28.7852 8.32856 28.7496 7.64434 28.5983C7.00455 28.4471 6.51136 28.1044 6.51136 27.3836C6.51136 26.7784 6.55138 26.2889 6.62688 25.6037L8.59071 10.5325H8.74175C10.0658 13.3714 12.3361 18.1415 12.6782 18.938C13.1314 20.0015 16.1171 25.795 17.0235 27.5349C17.6322 28.674 18.0099 29.4305 18.3475 29.4305C18.6896 29.4305 18.8807 29.0878 19.7471 27.3079L27.9933 10.1142H28.1443L30.4147 26.7784C30.5658 27.8419 30.4503 28.3314 30.2237 28.407C29.9615 28.5227 29.806 28.634 29.806 28.8253C29.806 29.0522 30.0371 29.1635 30.9034 29.2391C32.4185 29.3548 37.6346 29.4705 38.5809 29.4705C39.1097 29.4705 39.5673 29.3548 39.5673 29.0522C39.5673 28.8253 39.3007 28.7852 38.9586 28.7852C38.4699 28.7852 37.7101 28.7496 36.6171 28.407C35.4797 28.0688 35.1021 26.9697 34.7644 24.5802L31.3211 1.17471C31.2056 0.378205 30.979 0 30.6413 0C30.2992 0 30.1126 0.302571 29.806 0.907743L19.5205 22.5378L9.19494 1.17471C8.70621 0.191325 8.47962 0 8.1775 0C7.87538 0 7.64433 0.34261 7.53326 0.987828L3.78781 25.6793Z" fill="#808080"/>
<path d="M43.4987 18.4841C43.4987 22.1596 43.4987 25.1498 43.3077 26.7428C43.1966 27.8419 42.97 28.4827 42.2147 28.6339C41.8726 28.7096 41.4194 28.7852 40.8507 28.7852C40.3975 28.7852 40.2464 28.9009 40.2464 29.0878C40.2464 29.3548 40.513 29.4705 41.0017 29.4705C42.5168 29.4705 44.8983 29.3548 45.7691 29.3548C46.791 29.3548 49.1724 29.4705 51.6694 29.4705C52.0826 29.4705 52.3847 29.3548 52.3847 29.0878C52.3847 28.9009 52.1981 28.7852 51.7805 28.7852C51.2118 28.7852 50.3809 28.7096 49.8522 28.6339C48.7192 28.4827 48.4527 27.8019 48.3416 26.7784C48.1861 25.1498 48.1861 22.1596 48.1861 18.4841V11.8184C48.1861 6.06051 48.1861 5.00147 48.2616 3.7867C48.3416 2.46069 48.6437 1.81994 49.6612 1.62859C50.1188 1.55292 50.4209 1.51734 50.7986 1.51734C51.1763 1.51734 51.4028 1.44168 51.4028 1.13913C51.4028 0.907745 51.1007 0.832081 50.6076 0.832081C49.1725 0.832081 46.9421 0.947793 45.9957 0.947793C44.8983 0.947793 42.5168 0.832081 41.0773 0.832081C40.4731 0.832081 40.1709 0.907766 40.1709 1.13913C40.1709 1.4417 40.3975 1.51734 40.7752 1.51734C41.2284 1.51734 41.7215 1.55295 42.1392 1.66863C42.97 1.85553 43.3477 2.50073 43.4232 3.7867C43.4988 5.00147 43.4988 6.06051 43.4988 11.8184L43.4987 18.4841Z" fill="#808080"/>
<path d="M61.1601 11.8184C61.1601 6.06051 61.1601 5.00147 61.2357 3.7867C61.3112 2.46069 61.6133 1.81994 62.6352 1.62859C63.0884 1.55292 63.6926 1.51734 64.1103 1.51734C64.5634 1.51734 64.7901 1.44167 64.7901 1.17472C64.7901 0.90774 64.5279 0.832081 63.9948 0.832081C62.5197 0.832081 59.7606 0.947793 58.8542 0.947793C57.8323 0.947793 55.4509 0.832081 53.6737 0.832081C53.105 0.832081 52.8384 0.90776 52.8384 1.17472C52.8384 1.44169 53.065 1.51734 53.4826 1.51734C53.9758 1.51734 54.429 1.55296 54.7311 1.62859C55.9796 1.89557 56.2817 2.50073 56.3572 3.7867C56.4328 5.00147 56.4328 6.06051 56.4328 11.8184V18.4841C56.4328 21.9683 56.4328 24.9629 56.2417 26.5515C56.0907 27.6506 55.9041 28.4827 55.1488 28.6339C54.8067 28.7096 54.3535 28.7852 53.7848 28.7852C53.3316 28.7852 53.1805 28.9009 53.1805 29.0878C53.1805 29.3548 53.4471 29.4705 53.9358 29.4705C55.4509 29.4705 57.8323 29.3548 58.7032 29.3548C61.7644 29.3548 64.2614 29.5817 69.7085 29.5817C71.6723 29.5817 71.8633 29.3948 72.0899 28.5583C72.3921 27.4592 72.6586 24.6203 72.6586 24.202C72.6586 23.7482 72.6186 23.5613 72.3565 23.5613C72.0499 23.5613 71.9744 23.7882 71.9389 24.1264C71.8633 24.8472 71.4102 25.9063 70.957 26.4002C70.0106 27.4236 68.5355 27.4592 66.5317 27.4592C63.5816 27.4592 62.5952 27.1967 61.9554 26.6271C61.1602 25.9463 61.1602 23.3343 61.1602 18.4841L61.1601 11.8184Z" fill="#808080"/>
<path d="M75.7203 18.4841C75.7203 21.9683 75.7203 24.9629 75.5293 26.5515C75.3782 27.6505 75.1916 28.4826 74.4363 28.6339C74.0942 28.7096 73.641 28.7852 73.0723 28.7852C72.6191 28.7852 72.468 28.9009 72.468 29.0878C72.468 29.3548 72.7346 29.4705 73.2234 29.4705C74.7384 29.4705 77.1199 29.3548 77.9907 29.3548C80.2211 29.3548 82.7536 29.5817 88.4673 29.5817C89.9024 29.5817 90.2445 29.5817 90.5066 28.5983C90.6977 27.8419 90.9998 25.2655 90.9998 24.3933C90.9998 24.0151 90.9998 23.7125 90.6977 23.7125C90.4311 23.7125 90.3556 23.8638 90.2801 24.2777C90.0179 25.8306 89.5603 26.6271 88.5784 27.081C87.5965 27.5349 86.0059 27.5349 85.024 27.5349C81.1675 27.5349 80.5632 26.9697 80.4832 24.3533C80.4477 23.2587 80.4832 19.7701 80.4832 18.4841V15.4939C80.4832 15.267 80.5232 15.1112 80.7143 15.1112C81.6206 15.1112 85.3661 15.1513 86.0814 15.2269C87.481 15.3782 88.0097 15.9478 88.2007 16.7042C88.3118 17.1981 88.3118 17.6876 88.3518 18.0658C88.3518 18.2572 88.4274 18.4085 88.6939 18.4085C89.0316 18.4085 89.0316 17.9902 89.0316 17.6876C89.0316 17.4251 89.1471 15.9077 89.1826 15.1513C89.3337 13.2201 89.4847 12.6149 89.4847 12.388C89.4847 12.1611 89.3737 12.0854 89.2226 12.0854C89.0316 12.0854 88.8805 12.2723 88.6184 12.5749C88.2763 12.9531 87.7076 13.0688 86.8012 13.1444C85.9304 13.2201 81.5807 13.2201 80.7498 13.2201C80.5232 13.2201 80.4832 13.0688 80.4832 12.8019V3.22161C80.4832 2.95462 80.5632 2.84336 80.7498 2.84336C81.5051 2.84336 85.4772 2.91905 86.1214 2.99467C88.0097 3.22161 88.3873 3.67547 88.6539 4.35627C88.845 4.81014 88.8805 5.45537 88.8805 5.72235C88.8805 6.06052 88.9561 6.25186 89.2226 6.25186C89.4848 6.25186 89.5603 6.02492 89.6003 5.83358C89.6758 5.37971 89.7513 3.71107 89.7869 3.33285C89.9024 1.59301 90.0934 1.13914 90.0934 0.872156C90.0934 0.680821 90.0534 0.529517 89.8624 0.529517C89.6758 0.529517 89.4492 0.645207 89.2582 0.680807C88.956 0.756484 88.3518 0.832106 87.632 0.907751C86.9167 0.947827 79.3903 0.947825 78.1773 0.947825C77.1199 0.947825 74.7384 0.83213 72.7346 0.83213C72.1659 0.83213 71.8994 0.907803 71.8994 1.17475C71.8994 1.44173 72.126 1.51739 72.5436 1.51739C73.0723 1.51739 73.7165 1.553 74.0187 1.62864C75.2672 1.89562 75.5693 2.50078 75.6448 3.78675C75.7204 5.00153 75.7204 6.06056 75.7204 11.8185L75.7203 18.4841Z" fill="#808080"/>
<path d="M97.1634 8.40996H97.2789C97.9587 9.1308 102.157 13.8653 106.276 17.9546C110.213 21.857 115.051 26.8185 117.432 29.0878C117.85 29.5061 118.303 29.9244 118.721 29.9244C119.059 29.9244 119.21 29.5817 119.21 28.7496L119.627 4.85018C119.667 2.72766 119.969 1.93117 121.027 1.62858C121.48 1.51735 121.782 1.51734 122.16 1.51734C122.617 1.51734 122.844 1.40165 122.844 1.17471C122.844 0.872132 122.466 0.832073 121.973 0.832073C120.12 0.832073 118.681 0.947785 118.268 0.947785C117.472 0.947785 115.655 0.832073 113.691 0.832073C113.123 0.832073 112.705 0.872152 112.705 1.17471C112.705 1.40165 112.856 1.51734 113.314 1.51734C113.842 1.51734 114.749 1.51734 115.318 1.74428C116.224 2.1225 116.566 2.84335 116.602 5.15276L116.979 22.1596H116.793C116.148 21.5544 111.043 16.0991 108.471 13.5227C102.948 8.03173 97.2034 1.85551 96.7458 1.36605C96.106 0.680793 95.7639 0.191332 95.3462 0.191332C94.9686 0.191332 94.8575 0.720841 94.8575 1.47729L94.5154 23.8994C94.4799 27.1967 94.3288 28.2958 93.3424 28.5983C92.8137 28.7496 92.134 28.7852 91.6408 28.7852C91.2631 28.7852 91.0365 28.8609 91.0365 29.0878C91.0365 29.4304 91.3786 29.4705 91.8674 29.4705C93.8356 29.4705 95.6128 29.3548 95.9549 29.3548C96.6702 29.3548 98.1853 29.4705 100.642 29.4705C101.171 29.4705 101.513 29.3948 101.513 29.0878C101.513 28.8609 101.287 28.7852 100.869 28.7852C100.265 28.7852 99.5449 28.7496 98.9051 28.5227C98.1453 28.2557 97.6566 27.2723 97.5811 24.3177L97.1634 8.40996Z" fill="#808080"/>
<path d="M126.927 18.4841C126.927 22.1596 126.927 25.1498 126.736 26.7428C126.625 27.8419 126.398 28.4827 125.643 28.6339C125.301 28.7096 124.848 28.7852 124.279 28.7852C123.826 28.7852 123.675 28.9009 123.675 29.0878C123.675 29.3548 123.941 29.4705 124.43 29.4705C125.945 29.4705 128.327 29.3548 129.197 29.3548C130.219 29.3548 132.601 29.4705 135.098 29.4705C135.511 29.4705 135.813 29.3548 135.813 29.0878C135.813 28.9009 135.626 28.7852 135.209 28.7852C134.64 28.7852 133.809 28.7096 133.281 28.6339C132.148 28.4827 131.881 27.8019 131.77 26.7784C131.614 25.1498 131.614 22.1596 131.614 18.4841V11.8184C131.614 6.06051 131.614 5.00147 131.69 3.7867C131.77 2.46069 132.072 1.81994 133.089 1.62859C133.547 1.55292 133.849 1.51734 134.227 1.51734C134.605 1.51734 134.831 1.44168 134.831 1.13913C134.831 0.907745 134.529 0.832081 134.036 0.832081C132.601 0.832081 130.37 0.947793 129.424 0.947793C128.327 0.947793 125.945 0.832081 124.506 0.832081C123.901 0.832081 123.599 0.907766 123.599 1.13913C123.599 1.4417 123.826 1.51734 124.203 1.51734C124.657 1.51734 125.15 1.55295 125.567 1.66863C126.398 1.85553 126.776 2.50073 126.851 3.7867C126.927 5.00147 126.927 6.06051 126.927 11.8184V18.4841Z" fill="#808080"/>
<path d="M149.843 30C159.453 30 165.5 23.143 165.5 14.4705C165.5 5.79797 159.64 0.302564 150.225 0.302564C138.878 0.302564 134.603 8.6725 134.603 15.1513C134.603 21.857 138.993 30 149.843 30ZM151.433 28.1044C144.174 28.1044 139.824 21.857 139.824 13.9766C139.824 4.5476 144.778 2.1225 149.128 2.1225C155.33 2.1225 160.208 7.38652 160.208 15.8721C160.208 26.8185 154.081 28.1044 151.433 28.1044Z" fill="#808080"/>
</svg>
