<svg width="158" height="44" viewBox="0 0 158 44" fill="none" xmlns="http://www.w3.org/2000/svg">
<path fill-rule="evenodd" clip-rule="evenodd" d="M117.262 33.5133C111.86 33.5133 108.484 30.4333 108.484 25.4467C108.484 20.3133 111.56 17.0867 116.587 17.0867H117.037C117.637 17.0867 118.538 17.0867 119.738 17.2333V11H123.264V32.9267C123.189 32.9267 119.813 33.5133 117.262 33.5133ZM117.187 19.8C113.736 19.8 112.085 21.6333 112.085 25.3733C112.085 28.7467 114.111 30.8 117.337 30.8C117.937 30.8 118.688 30.7267 119.663 30.6533V20.02C118.688 19.8733 117.862 19.8 117.187 19.8Z" fill="#000000"/>
<path fill-rule="evenodd" clip-rule="evenodd" d="M68.7217 33L59.1937 16.6467V33H55.8927V12.2467H60.5442L70.0722 28.4533V12.2467H73.4482V33H68.7217Z" fill="#000000"/>
<path fill-rule="evenodd" clip-rule="evenodd" d="M99.1814 33.2933C97.6059 33.2933 95.8803 33.1467 93.8547 32.7067L93.6296 32.6333V29.7733L93.9297 29.8467C95.6553 30.2133 97.2308 30.5067 98.7312 30.5067C99.9316 30.5067 102.858 30.2867 102.858 28.5267C102.858 27.06 100.907 26.6933 99.2564 26.4H99.1814C98.8813 26.3267 98.5812 26.2533 98.3561 26.2533C96.0304 25.6667 93.5546 24.7867 93.5546 21.7067C93.5546 18.7 95.9554 17.0133 100.157 17.0133C102.182 17.0133 103.608 17.2333 104.808 17.38L105.408 17.4533V20.24L105.108 20.1667C103.758 19.9467 102.182 19.6533 100.682 19.6533C99.0313 19.6533 97.0057 19.9467 97.0057 21.4133C97.0057 22.5867 98.6562 22.9533 100.532 23.3933C103.158 23.98 106.384 24.64 106.384 28.16C106.459 31.46 103.833 33.2933 99.1814 33.2933Z" fill="#000000"/>
<path fill-rule="evenodd" clip-rule="evenodd" d="M133.167 33.2933C129.491 33.2933 126.115 32.6333 126.115 28.0867C126.115 23.1 131.367 23.1 134.518 23.1C134.818 23.1 136.318 23.1733 136.768 23.1733C136.768 20.3867 136.693 19.7267 132.567 19.7267C130.916 19.7267 129.116 20.02 127.465 20.3133L127.165 20.3867V17.6L127.39 17.5267C129.266 17.16 131.066 16.94 132.867 16.94C136.918 16.94 140.294 17.3067 140.294 22.22V32.8533H140.069C137.218 33.22 135.043 33.2933 133.167 33.2933ZM134.368 25.5933C131.367 25.5933 129.491 26.0333 129.491 28.2333C129.491 30.7267 131.892 30.9467 134.142 30.9467C134.968 30.9467 136.468 30.8733 136.918 30.8V25.6667C136.243 25.5933 134.593 25.5933 134.368 25.5933Z" fill="#000000"/>
<path fill-rule="evenodd" clip-rule="evenodd" d="M83.4264 33.2933C79.7502 33.2933 76.3742 32.6333 76.3742 28.0867C76.3742 23.1 81.6258 23.1 84.7768 23.1C85.0769 23.1 86.5774 23.1733 87.0275 23.1733C87.0275 20.3867 86.9525 19.7267 82.8262 19.7267C81.1757 19.7267 79.3751 20.02 77.7246 20.3133L77.4245 20.3867V17.6L77.6496 17.5267C79.5252 17.16 81.3257 16.94 83.1263 16.94C87.1776 16.94 90.5536 17.3067 90.5536 22.22V32.8533H90.3286C87.5527 33.22 85.377 33.2933 83.4264 33.2933ZM84.7018 25.5933C81.7009 25.5933 79.8253 26.0333 79.8253 28.2333C79.8253 30.7267 82.226 30.9467 84.4767 30.9467C85.302 30.9467 86.8025 30.8733 87.2526 30.8V25.6667C86.5774 25.5933 84.9269 25.5933 84.7018 25.5933Z" fill="#000000"/>
<path fill-rule="evenodd" clip-rule="evenodd" d="M154.324 40.04V33.22C152.973 33.44 152.223 33.44 151.623 33.44C150.198 33.44 148.697 33.1467 147.422 32.6333C144.721 31.5333 143.145 28.7467 143.145 25.1533C143.145 23.3933 143.595 20.0933 146.596 18.3333C148.097 17.4533 149.822 17.0867 152.523 17.0867C153.499 17.0867 154.774 17.16 155.974 17.2333L158 17.3067V38.4267L154.324 40.04ZM152.223 19.8C148.622 19.8 146.821 21.56 146.821 25.1533C146.821 29.7 149.522 30.6533 151.848 30.6533C152.373 30.6533 153.048 30.6533 154.399 30.5067V19.8733C153.273 19.8 152.823 19.8 152.223 19.8Z" fill="#000000"/>
<path fill-rule="evenodd" clip-rule="evenodd" d="M39.9877 0L28.2839 31.5333C27.9839 32.34 27.2336 32.8533 26.4084 33H38.7873C39.7626 33 40.5878 32.4133 40.8879 31.5333L52.5916 0H39.9877ZM25.433 32.4867C26.1833 32.4867 26.7835 32.12 27.1586 31.6067C27.2336 31.5333 27.3086 31.3867 27.4587 31.0933L31.735 19.5067L29.2593 12.76C28.9592 12.0267 28.2089 11.5133 27.3086 11.5133C26.5584 11.5133 25.9582 11.88 25.5831 12.3933C25.5081 12.4667 25.358 12.6867 25.283 12.9067L21.0066 24.4933L23.5575 31.24C23.7825 31.9733 24.5328 32.4867 25.433 32.4867ZM13.8044 11H26.3333C25.433 11.0733 24.6078 11.66 24.3077 12.4667L12.604 44H0L11.7037 12.4667C12.0038 11.66 12.8291 11 13.8044 11Z" fill="#000000"/>
</svg>
