<svg width="216" height="49" viewBox="0 0 216 49" fill="none" xmlns="http://www.w3.org/2000/svg">
<path d="M72.9575 25.9246C72.9575 30.1605 71.1838 32.2221 67.5322 32.2221C63.8805 32.2221 62.0837 30.1605 62.0837 25.9246V13.4954H57.6437V26.0786C57.6437 29.3014 58.519 31.8134 60.2463 33.5492C61.9678 35.2791 64.4138 36.15 67.5148 36.15C70.6158 36.15 73.0387 35.2732 74.7428 33.5492C76.4585 31.8134 77.3279 29.2955 77.3279 26.0786V13.4954H72.9459V25.9246H72.9575Z" fill="black"/>
<path d="M106.454 35.8305H110.894V12.856L106.454 13.8039V35.8305Z" fill="black"/>
<path d="M165.605 35.8305H170.045V12.856L165.605 13.8039V35.8305Z" fill="black"/>
<path d="M122.985 18.0632C124.162 17.4234 125.507 17.0976 126.979 17.0976C129.245 17.0976 131.193 17.9507 132.752 19.6273L132.868 19.7517L135.76 17.0383L135.65 16.9139C134.601 15.6994 133.303 14.7634 131.796 14.1354C130.277 13.5015 128.59 13.1757 126.782 13.1757C124.539 13.1757 122.475 13.6733 120.667 14.6508C118.858 15.6283 117.409 17.0087 116.36 18.7564C115.317 20.4981 114.789 22.4828 114.789 24.6629C114.789 26.8431 115.317 28.8218 116.349 30.5695C117.38 32.3112 118.824 33.6916 120.638 34.675C122.423 35.6407 124.423 36.1265 126.579 36.1265H126.759C128.561 36.1265 130.26 35.8066 131.784 35.1667C133.303 34.5388 134.601 33.6027 135.656 32.3882L135.766 32.2638L132.874 29.5209L132.758 29.6453C131.204 31.3396 129.257 32.2046 126.985 32.2046C125.466 32.2046 124.162 31.8906 122.991 31.2389C121.826 30.605 120.904 29.6986 120.255 28.5552C119.606 27.4177 119.276 26.1085 119.276 24.657C119.276 23.2055 119.595 21.9259 120.255 20.7588C120.904 19.6273 121.826 18.7208 122.991 18.0751L122.985 18.0632Z" fill="black"/>
<path d="M155.81 14.6451C153.978 13.6675 151.903 13.1699 149.637 13.1699C147.37 13.1699 145.295 13.6675 143.464 14.6451C141.638 15.6226 140.183 17.0089 139.134 18.7625C138.09 20.5161 137.563 22.5007 137.563 24.6571C137.563 26.8136 138.09 28.8101 139.134 30.5518C140.171 32.2995 141.632 33.6858 143.464 34.6692C145.295 35.6468 147.37 36.1444 149.637 36.1444C151.903 36.1444 153.978 35.6468 155.81 34.6692C157.641 33.6858 159.096 32.3054 160.14 30.5637C161.183 28.8219 161.71 26.8373 161.71 24.6571C161.71 22.477 161.183 20.4864 160.14 18.7506C159.096 17.0089 157.641 15.6285 155.81 14.6451ZM156.239 28.5553C155.595 29.6869 154.685 30.5933 153.532 31.2568C152.378 31.8967 151.068 32.2225 149.637 32.2225C148.205 32.2225 146.872 31.8967 145.742 31.2568C144.6 30.6229 143.684 29.7106 143.035 28.5613C142.386 27.412 142.055 26.1086 142.055 24.6749C142.055 23.2412 142.386 21.9379 143.035 20.7886C143.69 19.6274 144.577 18.7447 145.742 18.093C146.895 17.4532 148.205 17.1273 149.637 17.1273C151.068 17.1273 152.39 17.4532 153.532 18.093C154.679 18.7269 155.589 19.6393 156.239 20.7886C156.894 21.9379 157.224 23.2412 157.224 24.6749C157.224 26.1086 156.894 27.412 156.239 28.5613V28.5553Z" fill="black"/>
<path d="M97.4009 26.4753L99.2325 30.3202L85.4606 13.4892H81.8379V35.8298H86.2489V23.2584L84.0869 18.59L95.2853 32.2693L95.2679 32.2574L98.1892 35.8298H101.806V13.4892H97.4009V26.4753Z" fill="black"/>
<path d="M190.193 13.4892V26.4753L192.025 30.3202L178.253 13.4892H174.63V35.8298H179.041V23.2584L176.885 18.59L188.078 32.2693L188.06 32.2574L190.982 35.8298H194.604V13.4892H190.193Z" fill="black"/>
<path d="M41.026 8.09261L39.3509 10.1306L42.1157 11.4932L46.4455 30.8775L34.3139 46.4229H25.6485L25.3239 45.6705L19.0176 35.0008L33.3286 40.2498L38.3481 33.9759L28.3728 20.2019L43.7097 1.58772L20.2927 16.5466L10.2188 12.5655L14.7747 19.6628L3.48356 27.5066L7.05986 11.4932L24.5878 2.86737L32.0766 6.55229L34.6095 4.93495L24.5878 0L4.86887 9.70403L0 31.5114L13.6444 49H35.5311L49.1756 31.5114L44.3067 9.70403L41.0318 8.09261H41.026ZM23.4807 46.4229H18.5307L18.4901 46.0497L17.9742 37.1099L23.4807 46.4229ZM29.8914 25.6641L35.8673 33.9167L32.691 37.886L17.7076 32.3882L17.6902 32.0683L17.2265 22.3702L29.8972 25.6582L29.8914 25.6641ZM34.1922 10.0299L26.8136 18.9815L22.6113 17.4234L34.1922 10.0239V10.0299ZM20.5014 18.7742L26.5121 21.0017L28.0424 23.1167L17.8467 20.4685L20.5014 18.7742ZM18.2119 17.8737L16.6237 18.8867L15.2094 16.6829L18.2177 17.8737H18.2119ZM2.81119 30.4984L4.41676 29.272L12.7112 23.5136L6.17883 35.2971L2.73004 30.8775L2.81119 30.5043V30.4984ZM7.50038 36.9914L7.88293 36.2805L15.2036 23.0752L15.7311 32.1809L15.8064 33.816H15.8238L16.5368 46.186L16.5599 46.417H14.8616L7.50038 36.9855V36.9914Z" fill="black"/>
<path d="M210.16 20.5339L215.615 13.3609H210.809L207.877 17.3914L209.175 19.9646L207.444 18.0063L203.311 13.3609H199.538L205.041 20.6705L199.297 28.2078H204.392L207.3 24.0407L206.171 21.7863L211.89 28.2078H216L210.16 20.5339Z" fill="black"/>
</svg>
