<svg width="15" height="16" viewBox="0 0 15 16" fill="none" xmlns="http://www.w3.org/2000/svg">
<path fill-rule="evenodd" clip-rule="evenodd" d="M5.44286 0.5C3.66517 0.5 2.25355 0.8516 1.30257 1.80257C0.3516 2.75355 0 4.16517 0 5.94286V10.0571C0 11.8349 0.3516 13.2465 1.30257 14.1974C2.25355 15.1484 3.66517 15.5 5.44286 15.5H9.55714C11.3349 15.5 12.7465 15.1484 13.6974 14.1974C14.6484 13.2465 15 11.8349 15 10.0571V8.68571C15 8.33069 14.7122 8.04286 14.3571 8.04286C14.0021 8.04286 13.7143 8.33069 13.7143 8.68571V10.0571C13.7143 11.708 13.3802 12.6964 12.7883 13.2883C12.1964 13.8802 11.208 14.2143 9.55714 14.2143H5.44286C3.79197 14.2143 2.80359 13.8802 2.21171 13.2883C1.61983 12.6964 1.28571 11.708 1.28571 10.0571V5.94286C1.28571 4.29197 1.61983 3.30359 2.21171 2.71171C2.80359 2.11983 3.79197 1.78571 5.44286 1.78571H6.81429C7.16931 1.78571 7.45714 1.49789 7.45714 1.14286C7.45714 0.78782 7.16931 0.5 6.81429 0.5H5.44286ZM10.2857 1.14286C10.2857 0.78782 10.5735 0.5 10.9286 0.5H14.3571C14.7122 0.5 15 0.78782 15 1.14286V4.57143C15 4.92647 14.7122 5.21429 14.3571 5.21429C14.0021 5.21429 13.7143 4.92647 13.7143 4.57143V2.69485L8.81169 7.5974C8.56063 7.84846 8.15366 7.84846 7.9026 7.5974C7.65154 7.34634 7.65154 6.93937 7.9026 6.68831L12.8051 1.78571H10.9286C10.5735 1.78571 10.2857 1.49789 10.2857 1.14286Z" fill="#0B1223"/>
</svg>
