<svg width="16" height="22" viewBox="0 0 16 22" fill="none" xmlns="http://www.w3.org/2000/svg">
<path d="M8.00023 0C3.58878 0 0 3.28969 0 7.33348C0 8.54734 0.330941 9.7509 0.960478 10.8182L7.56242 21.7637C7.65054 21.9098 7.81789 22 7.99977 22C8.18164 22 8.34946 21.9098 8.43711 21.7637L15.0419 10.8148C15.6691 9.7509 16 8.54734 16 7.33348C16 3.28969 12.4112 0 8.00023 0ZM8.00023 11C5.79474 11 4.00035 9.35516 4.00035 7.33348C4.00035 5.3118 5.79474 3.66695 8.00023 3.66695C10.2057 3.66695 12.0001 5.3118 12.0001 7.33348C12.0001 9.35516 10.2057 11 8.00023 11Z" fill="#FF6845"/>
</svg>
