<svg width="23" height="23" viewBox="0 0 23 23" fill="none" xmlns="http://www.w3.org/2000/svg">
<path fill-rule="evenodd" clip-rule="evenodd" d="M1.5 0C0.671573 0 0 0.671573 0 1.5V21.5C0 22.3284 0.671573 23 1.5 23H21.5C22.3284 23 23 22.3284 23 21.5V1.5C23 0.671573 22.3284 0 21.5 0H1.5ZM9.21903 4H3.27147L9.21111 12.2641L3 19H5.89902L10.4197 13.9457L14.0524 19H20L13.7543 10.3101L19.7808 4H16.8777L12.5522 8.63758L9.21903 4ZM15.1309 17.0236L7.19092 5.97638H8.14056L16.0805 17.0236H15.1309Z" fill="black"/>
</svg>
