<svg width="38" height="38" viewBox="0 0 38 38" fill="none" xmlns="http://www.w3.org/2000/svg">
<circle cx="19" cy="19" r="19" fill="black"/>
<path fill-rule="evenodd" clip-rule="evenodd" d="M29.5298 8.7898L28.5056 9.99528L30.1919 10.7999L32.8334 22.2722L25.4345 31.4732H20.1487L19.9515 31.0276L16.1042 24.7125L24.8358 27.8205L27.8971 24.1077L21.8111 15.9556L31.1655 4.94008L31.164 4.94148L16.879 13.7933L10.7339 11.4354L13.5148 15.6358L6.62445 20.2775L8.80664 10.7999L19.4993 5.69438L24.068 7.87626L25.6134 6.91942L19.4993 4L7.47112 9.74385L4.5 22.6507L12.8245 33H26.1755L34.5 22.6507L31.5289 9.74385L29.5298 8.7898ZM12.2568 17.9154L7.19785 21.3237L6.2158 22.0523L6.16518 22.2722L8.26949 24.8885L12.2568 17.9154ZM13.7769 17.657L9.30961 25.471L9.07577 25.891L13.5655 31.4732H14.603L14.5883 31.3364L14.1544 24.0169L14.1446 24.0141L14.0981 23.046L13.7769 17.657ZM15.4674 25.9613L15.7816 31.2525L15.8053 31.4732H18.8258L15.4674 25.9613ZM20.6743 16.4292L17.0072 15.1105L15.3885 16.1135L21.6097 17.6807L20.6743 16.4292ZM18.2962 14.3129L20.8602 15.2349H20.8616L25.3613 9.93521L18.2962 14.3129ZM14.6419 15.179L15.6125 14.5783L13.7783 13.8743L14.6419 15.179ZM15.3026 23.1676L24.4442 26.4222L24.4456 26.4236L26.3826 24.0741L22.7367 19.1893L15.0081 17.2421L15.2913 22.9804L15.3026 23.1676Z" fill="white"/>
</svg>
