<svg width="20" height="20" viewBox="0 0 20 20" fill="none" xmlns="http://www.w3.org/2000/svg">
<circle cx="10" cy="10" r="10" fill="#E9ECEF"/>
<path d="M5.5403 7.67872H7.45408V13.8461H5.5403V7.67872ZM6.49381 4.61536C7.1092 4.61536 7.60286 5.1101 7.60286 5.72684C7.60286 6.34358 7.1092 6.83833 6.49381 6.83833C5.87843 6.83833 5.38477 6.33681 5.38477 5.72684C5.38477 5.11688 5.87843 4.61536 6.49381 4.61536Z" fill="#55585B"/>
<path d="M10.4837 7.67872V8.51912H10.5107C10.7677 8.03115 11.3898 7.52285 12.3231 7.52285C14.2571 7.52285 14.6155 8.79699 14.6155 10.4574V13.8393H12.7018V10.8438C12.7018 10.1254 12.6882 9.21041 11.7077 9.21041C10.7271 9.21041 10.5581 9.98981 10.5581 10.7963V13.8461H8.64428V7.67872H10.4837Z" fill="#55585B"/>
</svg>
