<svg width="15" height="11" viewBox="0 0 15 11" fill="none" xmlns="http://www.w3.org/2000/svg">
<path d="M15 1.3048C14.4484 1.5253 13.8558 1.67428 13.2328 1.74162C13.8756 1.39466 14.3565 0.848596 14.5858 0.205309C13.9819 0.528893 13.3209 0.756661 12.6317 0.878711C12.1682 0.432278 11.5543 0.136375 10.8852 0.0369432C10.2162 -0.0624891 9.52948 0.040112 8.93172 0.328817C8.33395 0.617523 7.85857 1.07618 7.57938 1.63358C7.30018 2.19098 7.2328 2.81593 7.38769 3.41142C6.16402 3.35599 4.96694 3.06908 3.87415 2.56931C2.78135 2.06954 1.81726 1.36807 1.04444 0.510426C0.78019 0.921618 0.628248 1.39836 0.628248 1.9061C0.627953 2.36317 0.75273 2.81325 0.991508 3.21639C1.23029 3.61953 1.57568 3.96327 1.99705 4.21711C1.50837 4.20309 1.03048 4.08397 0.603145 3.86969V3.90544C0.603095 4.54651 0.848916 5.16785 1.2989 5.66403C1.74888 6.16021 2.3753 6.50068 3.07188 6.62765C2.61855 6.73833 2.14327 6.75463 1.68193 6.67533C1.87847 7.22693 2.26129 7.70928 2.77682 8.05486C3.29235 8.40044 3.91477 8.59195 4.55695 8.60257C3.46682 9.37454 2.12051 9.79329 0.734608 9.79145C0.489109 9.79151 0.243819 9.77858 0 9.75271C1.40677 10.5686 3.04435 11.0017 4.71681 11C10.3783 11 13.4733 6.77008 13.4733 3.10153C13.4733 2.98235 13.47 2.86197 13.4641 2.74278C14.0661 2.35005 14.5857 1.86372 14.9987 1.30659L15 1.3048Z" fill="white"/>
</svg>
