<?xml version="1.0" standalone="no"?>
<!DOCTYPE svg PUBLIC "-//W3C//DTD SVG 20010904//EN"
 "http://www.w3.org/TR/2001/REC-SVG-20010904/DTD/svg10.dtd">
<svg version="1.0" xmlns="http://www.w3.org/2000/svg"
 width="700.000000pt" height="700.000000pt" viewBox="0 0 700.000000 700.000000"
 preserveAspectRatio="xMidYMid meet">
<metadata>
Created by potrace 1.14, written by Peter Selinger 2001-2017
</metadata>
<g transform="translate(0.000000,700.000000) scale(0.100000,-0.100000)"
fill="#000000" stroke="none">
<path d="M3195 6940 c-198 -96 -601 -290 -800 -385 -191 -91 -355 -170 -510
-245 -82 -40 -202 -97 -265 -128 -63 -30 -185 -88 -270 -129 -85 -42 -200 -97
-255 -123 -55 -26 -175 -84 -267 -128 -192 -92 -164 -53 -222 -309 -19 -81
-55 -240 -81 -353 -25 -113 -73 -320 -105 -460 -32 -140 -61 -266 -64 -280 -4
-22 -38 -167 -90 -390 -8 -36 -17 -76 -20 -90 -2 -14 -14 -65 -26 -115 -12
-49 -24 -99 -26 -110 -2 -11 -38 -168 -80 -350 -42 -181 -80 -350 -85 -374 -5
-23 -14 -61 -19 -83 -12 -41 -7 -52 57 -128 7 -8 90 -112 184 -230 94 -118
184 -231 200 -250 16 -19 321 -402 679 -850 358 -448 665 -832 683 -853 l32
-37 1420 -1 c781 0 1445 1 1477 1 l56 0 174 217 c215 270 201 253 213 267 6 6
35 42 65 81 30 38 61 77 67 85 7 8 135 168 284 355 150 187 285 356 300 375
16 19 87 109 159 200 73 91 139 174 148 185 10 11 60 74 112 140 52 65 145
182 207 260 80 99 111 146 108 160 -3 11 -26 110 -51 220 -25 110 -48 209 -50
220 -2 11 -31 139 -65 285 -33 146 -81 353 -105 460 -110 484 -127 560 -145
635 -36 160 -80 351 -85 374 -6 31 -32 142 -49 216 -36 154 -88 382 -93 405
-5 26 -29 60 -42 60 -5 0 -96 43 -205 95 -108 52 -200 95 -205 95 -5 0 -10 -4
-12 -9 -1 -4 -26 -35 -54 -67 -29 -32 -77 -88 -107 -124 l-55 -64 142 -68 c77
-38 161 -78 186 -91 l45 -22 22 -95 c13 -52 32 -133 42 -180 20 -87 32 -139
122 -530 28 -124 62 -272 75 -330 13 -58 26 -114 28 -125 2 -11 14 -60 26
-110 12 -49 24 -101 26 -114 5 -25 27 -120 49 -216 34 -146 116 -502 119 -520
2 -11 13 -59 25 -107 11 -48 23 -98 25 -110 2 -13 9 -45 15 -71 l11 -49 -72
-91 c-40 -50 -129 -162 -198 -248 -69 -86 -135 -169 -148 -185 -13 -16 -292
-365 -620 -776 l-597 -748 -586 0 -587 0 -17 43 c-9 23 -56 107 -104 187 -305
503 -616 1019 -631 1045 -9 17 -43 72 -75 123 -32 51 -56 94 -54 96 4 4 386
-132 1069 -379 36 -13 137 -49 225 -80 229 -81 394 -140 520 -186 90 -33 111
-38 120 -26 24 32 91 113 101 122 6 6 28 33 50 60 21 28 41 52 44 55 6 6 5 5
278 339 191 234 192 235 175 260 -9 14 -88 122 -176 240 -88 119 -235 317
-326 439 -91 123 -220 297 -286 385 -351 471 -527 711 -532 723 -2 7 6 25 20
41 13 15 49 57 79 93 50 60 100 120 370 440 53 63 185 221 293 350 109 129
219 260 245 290 45 52 95 112 400 476 68 82 134 160 147 174 12 14 110 131
219 260 108 129 217 259 241 287 l44 53 -238 -149 c-250 -155 -724 -451 -2078
-1296 -451 -281 -826 -515 -833 -519 -7 -4 -157 49 -355 125 -188 72 -362 140
-387 149 -25 9 -175 67 -334 129 -159 61 -291 109 -294 106 -3 -3 0 -5 6 -5 7
0 12 -4 12 -9 0 -6 84 -137 187 -293 288 -438 395 -602 400 -614 2 -7 -105
-86 -239 -176 -134 -91 -328 -223 -433 -294 -748 -507 -836 -567 -840 -563 -1
2 17 89 41 193 24 104 46 198 48 210 6 31 24 109 51 221 13 55 26 111 29 125
5 28 29 132 51 225 8 33 16 71 19 85 2 14 25 113 50 220 39 168 80 349 91 400
2 8 17 76 34 150 18 74 39 167 48 205 l16 71 71 33 c39 19 145 70 236 114 91
44 210 101 265 127 95 45 168 80 490 235 77 37 194 93 260 125 66 32 183 88
260 125 77 37 185 89 240 115 181 86 369 176 458 219 l88 43 52 -25 c238 -114
584 -280 740 -355 103 -50 196 -93 206 -97 13 -4 38 6 73 28 29 19 104 66 167
105 l113 71 -158 77 c-159 76 -297 143 -526 253 -68 32 -208 100 -313 151
-217 105 -354 170 -358 169 -1 0 -56 -27 -122 -59z m1398 -1292 c-11 -13 -58
-68 -104 -123 -125 -148 -251 -297 -270 -320 -24 -28 -97 -115 -123 -145 -11
-14 -43 -52 -71 -85 -27 -33 -60 -71 -71 -85 -12 -14 -77 -90 -144 -170 -67
-80 -137 -163 -155 -184 l-34 -39 -273 98 c-150 54 -276 101 -280 104 -4 4
266 177 600 385 561 350 776 485 892 557 54 35 59 36 33 7z m-2331 -930 c103
-40 188 -75 188 -78 0 -4 -180 -119 -200 -128 -4 -1 -31 35 -60 80 -30 46 -71
109 -92 141 -21 31 -36 57 -32 57 4 0 92 -33 196 -72z m599 -228 c46 -16 226
-81 399 -143 l315 -113 102 -135 c56 -74 102 -137 102 -140 1 -6 -94 18 -614
150 -154 40 -288 74 -298 76 -103 24 -434 109 -439 114 -7 6 318 218 338 220
6 1 49 -12 95 -29z m-11 -575 c8 -2 231 -58 495 -125 264 -68 526 -134 583
-148 l103 -25 43 -56 c24 -31 124 -164 222 -296 98 -132 260 -352 361 -488
114 -154 181 -252 176 -260 -25 -41 -416 -507 -426 -507 -6 0 -41 11 -77 24
-61 23 -874 314 -1150 412 -252 90 -330 117 -570 204 -63 23 -135 49 -160 57
-25 9 -48 18 -52 22 -3 3 -9 62 -12 131 -4 69 -9 161 -11 205 -2 44 -7 136
-10 205 -4 69 -8 153 -10 186 -2 34 -6 129 -10 210 -4 82 -9 167 -10 189 -4
42 -7 149 -6 176 1 14 38 7 254 -48 138 -35 259 -66 267 -68z m-793 13 c1 -19
14 -256 18 -313 1 -27 6 -102 9 -165 4 -63 9 -144 11 -180 2 -36 7 -110 10
-165 3 -55 8 -131 10 -170 3 -38 7 -113 10 -165 10 -190 16 -286 20 -340 2
-30 7 -102 10 -160 3 -58 7 -136 10 -175 8 -137 15 -251 20 -350 3 -55 7 -131
10 -170 4 -66 8 -135 20 -330 6 -114 16 -273 19 -322 l3 -43 -116 0 -116 0
-485 606 c-267 334 -489 614 -493 623 -6 12 13 54 65 147 41 71 77 136 81 144
4 8 15 29 26 45 10 17 96 167 191 335 95 168 223 393 284 501 61 107 170 300
241 427 72 127 133 231 136 232 3 0 6 -6 6 -12z m-433 -200 c-48 -84 -96 -169
-106 -188 -11 -19 -29 -51 -40 -70 -11 -19 -125 -219 -253 -445 -128 -225
-266 -468 -307 -539 -40 -71 -78 -131 -83 -132 -6 -2 -22 13 -37 34 -14 20
-38 51 -51 67 -14 17 -104 129 -201 250 -150 187 -176 224 -170 245 3 14 6 25
7 26 1 0 47 34 102 75 55 42 163 118 240 170 318 217 402 274 655 444 146 98
278 189 295 201 16 13 31 21 33 19 2 -2 -36 -72 -84 -157z m1001 -1948 c98
-162 228 -378 290 -480 121 -200 190 -313 208 -345 7 -11 20 -32 30 -47 l18
-28 -335 0 -336 0 -1 43 c-1 23 -2 56 -4 72 -2 26 -6 88 -21 344 -2 34 -6 101
-9 148 -3 47 -8 129 -10 182 -3 53 -7 128 -10 166 -12 170 -15 259 -7 250 5
-6 89 -143 187 -305z"/>
</g>
</svg>
