<svg width="40" height="36" viewBox="0 0 40 36" fill="none" xmlns="http://www.w3.org/2000/svg">
<path fill-rule="evenodd" clip-rule="evenodd" d="M0 30.5363H40V36H0.000428719L0 30.5363Z" fill="#808080"/>
<path fill-rule="evenodd" clip-rule="evenodd" d="M8.00828 0L0.537539 22.7947H5.94657L11.0209 6.68262L13.5642 14.7378H10.2742L8.96033 19.336H15.016L16.108 22.7947H21.6716L14.2017 0H8.00828ZM30.1714 0H22.4056V22.7947H27.776V4.59836H29.9401C32.4511 4.59836 33.8807 5.81638 33.8807 8.01737C33.8807 10.179 32.4511 11.4367 29.9401 11.4367H29.5924V16.0349H30.1714C35.9669 16.0349 39.3669 13.0674 39.3669 8.01737C39.3669 2.86894 35.9669 0 30.1714 0Z" fill="#808080"/>
</svg>
