<svg width="62" height="40" viewBox="0 0 62 40" fill="none" xmlns="http://www.w3.org/2000/svg">
<path d="M0.202369 21.1042H5.43288L12.8105 33.2581H12.8561V21.4587H10.8168V21.1042H15.2511V21.4587H13.2118V39.2848H12.6114L2.63971 22.9159H2.59737V38.9268H4.63351V39.2848H0.202369V38.9268H2.24167V21.4587H0.202369V21.1042Z" fill="#808080"/>
<path d="M14.9183 21.1042H28.1695V25.472H27.8824C27.5724 24.3467 26.6195 21.4619 23.6926 21.4619H20.1686V29.3519H21.4085C23.5783 29.3519 24.3321 27.8465 24.753 25.547H25.0435V33.489H24.753C24.3551 31.4986 23.6926 29.7098 21.6532 29.7098H20.1686V38.9268H23.8036C26.5281 38.9268 28.1922 36.6536 28.7894 33.6907H29.0765V39.2848H14.9151V38.9268H16.9545V21.4587H14.9183V21.1042Z" fill="#808080"/>
<path d="M28.0584 21.1042H34.8618V21.4587H33.2434L37.2309 34.9167H37.2762L39.603 27.3064L37.8768 21.4587H36.6794V21.1042H43.3032V21.4587H41.2441L45.2546 34.9427H45.3001L49.3984 21.4587H47.4928V21.1042H51.5715V21.4587H49.777L44.0798 40H43.437L39.8019 27.895H39.7563L36.0366 40H35.3936L29.8956 21.4587H28.0584V21.1042Z" fill="#808080"/>
<path d="M18.8339 9.36674C18.8339 14.5574 14.7063 18.7756 9.4268 18.7756C4.17335 18.7756 0 14.5541 0 9.36674C0 4.22153 4.17657 0 9.42686 0C14.7063 0 18.8339 4.22153 18.8339 9.36674ZM0.665632 9.36674C1.99702 12.1214 5.11643 14.8045 9.42686 14.8045C13.7176 14.8045 16.8599 12.1182 18.1912 9.36674C16.8599 6.65756 13.7176 3.97107 9.42686 3.97107C5.11643 3.97107 1.99702 6.65756 0.665632 9.36674ZM14.2201 9.3634C14.2201 12.001 12.0828 14.1019 9.4268 14.1019C6.76731 14.1019 4.61051 12.001 4.61051 9.3634C4.61051 6.76806 6.76731 4.64756 9.4268 4.64756C12.0828 4.64756 14.2201 6.76806 14.2201 9.3634Z" fill="#808080"/>
<path d="M9.43002 18.7398C4.25165 18.7398 0.0391833 14.5346 0.0391833 9.36674C0.0391833 4.22153 4.25159 0.0357188 9.43002 0.0357188C14.5954 0.0357188 18.8014 4.22147 18.8014 9.36674C18.798 14.6224 14.6835 18.7398 9.43002 18.7398ZM9.43002 3.93535C4.90104 3.93535 1.86316 6.85259 0.636369 9.35042C1.85349 11.9003 4.88796 14.8402 9.43002 14.8402C13.9754 14.8402 17.01 11.9003 18.2271 9.38293C17.0002 6.85259 13.9591 3.93535 9.43002 3.93535ZM9.42686 14.0662C6.79037 14.0662 4.64641 11.9555 4.64641 9.3634C4.64641 6.78103 6.79031 4.68334 9.42686 4.68334C12.0503 4.68334 14.1875 6.78431 14.1875 9.3634C14.1841 11.9556 12.0503 14.0662 9.42686 14.0662Z" fill="#808080"/>
<path d="M27.6474 0.243975C26.1301 0.243975 24.2212 1.24904 22.7855 2.80675C21.5324 4.1695 20.0381 6.55343 20.0381 10.1765C20.0381 14.8631 23.8818 18.4959 27.1872 18.4959C28.5186 18.4959 29.305 18.1413 29.9967 17.8259L30.0131 17.8194C30.5547 17.5755 31.0246 17.3642 31.6609 17.3642C32.1995 17.3642 32.7083 17.6665 33.0184 18.1707L33.1554 18.3951V11.2238H32.9563L32.9432 11.2887C32.506 14.0467 30.6884 18.1543 27.4745 18.1543C24.2898 18.1543 23.6371 15.0419 23.6371 10.3717C23.6371 5.81509 24.1168 0.582189 27.8497 0.582189C31.1746 0.582189 32.5971 5.47032 32.9562 6.96642L32.9692 7.02167H33.1649V0.491162L33.0311 0.686193C32.7083 1.15134 32.2513 1.2457 31.6218 1.2457C31.2007 1.2457 30.7569 1.07007 30.248 0.86837L30.2251 0.858668C29.5105 0.572548 28.7045 0.243975 27.6474 0.243975Z" fill="#808080"/>
<path d="M44.8107 8.73901C45.8843 8.43985 48.4227 7.59737 48.4227 4.86545C48.4227 3.52564 47.7605 2.39704 46.5139 1.60344C45.3719 0.871707 43.7764 0.471696 42.0241 0.471696H33.9221V0.822949H36.7381V17.9202H33.9221V18.2747H42.4154C46.4126 18.2747 49.0982 16.1835 49.0982 13.0744C49.0982 10.9408 47.6952 9.52271 44.8107 8.73901ZM42.6569 8.55998H40.3435V0.822764H41.0421C44.1712 0.822764 45.147 1.40489 45.147 4.54022C45.147 7.89986 44.3083 8.51456 42.6602 8.51456M40.3435 8.91129H42.2656C43.9982 8.91129 45.6918 9.29178 45.6918 13.224C45.6918 17.1755 44.6084 17.9171 42.1773 17.9171H40.3435V8.91129Z" fill="#808080"/>
<path d="M52.0349 17.442C52.6059 17.442 53.0985 17.6307 53.6695 17.8486L53.7186 17.8681C54.4852 18.1641 55.3469 18.4959 56.6422 18.4959C59.07 18.4959 62 15.8615 62 12.593C62 9.16163 59.4288 8.30964 56.9424 7.4836C54.7822 6.76484 52.7461 6.08835 52.7461 3.71405C52.7461 2.77412 53.0303 0.585463 55.6438 0.585463C58.8641 0.585463 60.3914 5.65571 60.3914 6.9079V6.98274H60.6002L60.6067 0.321962L60.4694 0.500802C60.0845 1.01137 59.3147 1.05042 59.0861 1.05042C59.0632 1.05042 59.0437 1.05042 59.0272 1.05042H59.0046C58.7142 1.05042 58.2541 0.894325 57.8852 0.757754C57.272 0.530032 56.5086 0.247187 55.6438 0.247187C52.6449 0.247187 50.7882 3.23272 50.7882 6.00048C50.7882 9.37298 53.3431 10.2902 55.8165 11.1781C57.9114 11.9261 59.8921 12.632 59.8921 14.8597C59.8921 17.1232 58.1822 18.1381 56.4857 18.1381C52.3515 18.1381 50.8404 11.8416 50.8404 11.3114V11.2725H50.6352V18.2194L50.7656 18.0667C51.2485 17.4876 51.6108 17.442 52.0349 17.442Z" fill="#808080"/>
<path d="M51.9501 38.527C52.5275 38.527 53.0236 38.7219 53.5979 38.943L53.6469 38.9627C54.4203 39.2651 55.2883 39.6099 56.5967 39.6099C59.0439 39.6099 62 36.9039 62 33.5443C62 30.0189 59.4059 29.1407 56.8967 28.2949C54.7203 27.5568 52.6645 26.8609 52.6645 24.4217C52.6645 23.4559 52.9487 21.2053 55.5852 21.2053C58.8348 21.2053 60.3752 26.4153 60.3752 27.6997V27.7779H60.5839L60.5905 20.9353L60.4535 21.1173C60.065 21.641 59.2885 21.6829 59.0565 21.6829C59.0307 21.6829 59.0113 21.6829 58.9979 21.6829H58.9717C58.6783 21.6829 58.215 21.5238 57.8431 21.3805C57.223 21.1465 56.4564 20.8571 55.5816 20.8571C52.5566 20.8571 50.684 23.9239 50.684 26.7665C50.684 30.2304 53.2615 31.1733 55.7546 32.0839C57.8692 32.8516 59.8627 33.5798 59.8627 35.8663C59.8627 38.1918 58.1366 39.2358 56.4302 39.2358C52.26 39.2358 50.7359 32.7667 50.7359 32.2236V32.1848H50.5275V39.3202L50.6579 39.1608C51.1541 38.5755 51.5225 38.527 51.9501 38.527Z" fill="#808080"/>
</svg>
