<svg width="158" height="30" viewBox="0 0 158 30" fill="none" xmlns="http://www.w3.org/2000/svg">
<path d="M158 0H0V30H158V0Z" fill="#808080"/>
<path d="M6.22928 24.3571H19.8062V21.7143H9.62352V16.1071H16.5985V13.4286H9.62352V10.1429L9.47432 8.57143H19.6943V5.89286H6.04278L6.22928 7.53571V24.3571Z" fill="#FFFFFF"/>
<path d="M24.133 24.3571L29.3549 16.9286L34.4276 24.3571H37.5234V23.7143L31.5555 15.1071L37.4115 6.57143V5.89286H34.5768L29.7652 13.0357L24.9536 5.89286H21.8577V6.57143L27.4526 14.75L21.2236 23.7143V24.3571H24.133Z" fill="#FFFFFF"/>
<path d="M71.1304 7.75V24.3929H74.562V11.5L85.4161 24.3929H88.4V5.96429H84.9685V18.6786L74.3382 5.96429M39.0903 24.3929H42.5218V18.8571H46.3264C50.0563 18.8571 53.4505 16.7857 53.4505 12.3214C53.4505 8.21429 50.6158 5.92857 46.6621 5.92857H38.8665L39.0903 7.75V24.3929ZM42.5218 16.2143V10.3929L42.3353 8.60714H45.9534C48.4897 8.60714 50.1309 9.60714 50.1309 12.3929C50.1309 14.9643 48.4897 16.25 45.9161 16.25L42.5218 16.2143ZM65.0879 20.2857L66.8037 24.3929H69.9368V23.75L62.3278 5.82143H59.12L51.3618 23.75V24.3929H54.4576L56.2853 20.2857H65.0879ZM57.3297 17.6429L60.7239 9.07143L64.0435 17.6429H57.3297ZM74.3382 5.96429H70.9066L71.1304 7.75M106.154 24.3571H109.511V5.89286H106.154V24.3571ZM137.374 24.3929V11.5L148.228 24.3929H151.212V5.96429H147.781V18.6786L137.15 5.96429H133.719L133.943 7.75V24.3929H137.374ZM97.24 5.53571C93.1743 5.53571 90.2277 7.42857 90.2277 10.75C90.2277 14.1429 94.1814 15.5 96.4194 16.3571C98.62 17.1786 100.41 17.7857 100.41 19.1786C100.41 20.8571 98.8811 21.8929 96.7551 21.8929C94.8901 21.8929 93.0251 21.1071 91.6451 20.1786H90.6007L90.265 22.5C91.8316 23.7143 94.4052 24.6071 96.7924 24.6071C100.783 24.6071 103.879 22.4643 103.879 19.0357C103.879 15.9286 100.671 14.7857 98.4708 13.9286C96.0464 13 93.6219 12.25 93.6219 10.5714C93.6219 9.14286 95.002 8.35714 97.2773 8.35714C98.7319 8.35714 100.41 8.85714 101.231 9.46429H102.313L102.648 6.96429C101.529 6.28571 99.5898 5.53571 97.24 5.53571Z" fill="#FFFFFF"/>
<path d="M121.746 5.64286C115.964 5.64286 111.488 9.78572 111.488 15.1429C111.488 20.5357 115.852 24.6786 121.746 24.6786C127.564 24.6786 132.003 20.5357 132.003 15.1429C131.966 9.71429 127.527 5.64286 121.746 5.64286ZM121.746 22.1071C117.866 22.1071 114.845 19.1786 114.845 15.1429C114.845 11.1071 117.68 8.42857 121.634 8.42857C125.476 8.42857 128.609 11.1429 128.609 15.1429C128.571 19.4286 125.364 22.1071 121.746 22.1071Z" fill="#FFFFFF"/>
<path d="M129.392 5.89286L126.184 8.96429L122.977 12.0357H127.005L133.42 5.89286H129.392Z" fill="#808080"/>
</svg>
