<svg width="78" height="40" viewBox="0 0 78 40" fill="none" xmlns="http://www.w3.org/2000/svg">
<path fill-rule="evenodd" clip-rule="evenodd" d="M0.5 0H77.5V40H0.5V0ZM38.7458 12.1833C39.4408 11.4553 40.4602 11.072 41.4675 11.0807C42.2267 11.048 42.9879 11.2647 43.6187 11.6813C44.3846 12.2014 44.939 12.9713 45.325 13.796C46.2128 15.805 46.3133 17.8538 46.3093 20.0007C46.2816 21.7874 46.1713 23.6291 45.5075 25.3113C45.1938 26.0927 44.7665 26.8553 44.1196 27.4167C42.6993 28.6801 40.667 28.5491 39.1183 27.5753C38.2611 26.918 37.7527 25.9293 37.4167 24.932C37.0111 23.7287 36.8691 22.458 36.786 21.198C36.7218 19.2466 36.7319 17.2707 37.1706 15.3573C37.4465 14.2066 37.9001 13.0474 38.7458 12.1833ZM38.2165 28.72C39.2677 29.0347 40.3669 29.212 41.4675 29.192C43.572 29.2473 45.7177 28.6513 47.4051 27.3893C48.3772 26.6653 49.2203 25.7653 49.8381 24.7273C50.6474 23.4033 51.0401 21.8607 51.1152 20.3247C51.1605 19.0433 51.0624 17.746 50.6663 16.518C50.3194 15.4553 49.7901 14.44 49.0526 13.5887C48.2616 12.5807 47.2185 11.7667 46.0672 11.1934C44.9775 10.638 43.7626 10.3573 42.5478 10.2413C40.6987 10.182 38.8107 10.2616 37.1314 11.1247C34.9634 12.1914 33.1909 14.0973 32.4641 16.3927C31.9621 17.859 31.8156 19.7905 32.022 21.3267C32.5259 24.6839 34.9217 27.6467 38.2165 28.72ZM30.5499 15.9947L30.4983 10.5003L14.1653 10.492L14.1741 15.9913L14.9536 15.9927C14.9576 15.9654 14.9671 15.9107 14.9712 15.8834C15.078 14.642 15.512 13.342 16.5077 12.518C17.4846 11.6947 18.8299 11.5254 20.0677 11.4874L20.0941 25.4647C20.0956 26.1921 20.0278 27.2503 19.5431 27.5787C18.9557 27.9587 18.2255 27.9727 17.5475 27.9947L17.5543 28.7154L27.1945 28.7253L27.1836 28.0001C26.6665 27.9494 26.1378 27.9727 25.6356 27.82C24.4494 27.522 24.5792 26.0258 24.5796 25L24.5843 11.4754C25.5517 11.5154 26.5549 11.6047 27.4324 12.0407C28.0827 12.3654 28.5769 12.9167 28.9663 13.5127C29.3578 14.2914 29.5923 15.1347 29.7215 15.9927L30.5499 15.9947ZM59.5148 25.2C59.5154 21.4447 59.5169 17.6886 59.5142 13.9333C59.4888 13.0814 59.3186 11.9749 60.2693 11.54C60.8115 11.3204 61.3675 11.3169 61.9387 11.2858L61.9385 10.538L52.568 10.5103L52.5606 11.292C53.1623 11.3059 53.9177 11.3451 54.4129 11.7014C55.0325 12.1666 54.9249 12.6542 54.9125 13.266L54.8915 26.0193C54.8905 26.7039 54.952 27.3093 54.2107 27.7C53.6888 27.974 53.0824 27.9526 52.5112 28.0167C52.5139 28.2287 52.5139 28.4413 52.5133 28.6534L61.9736 28.6673C61.9784 28.4436 61.976 28.23 61.9662 28.0067C60.9236 27.9769 60.2509 27.779 59.8969 27.3725C59.4938 26.9096 59.4865 26.1805 59.5148 25.2Z" fill="#808080"/>
</svg>
