<svg width="20" height="20" viewBox="0 0 20 20" fill="none" xmlns="http://www.w3.org/2000/svg">
<circle cx="10" cy="10" r="10" fill="#E9ECEF"/>
<path d="M14.5198 5.79424C13.9697 5.1899 13.3182 4.71556 12.5831 4.38403C11.7915 4.02714 10.9224 3.84619 9.99955 3.84619C8.59034 3.84619 7.07647 4.40862 5.95011 5.35077C4.98989 6.15338 3.8457 7.61178 3.8457 10C3.8457 12.3883 4.96228 13.8043 5.89891 14.6091C7.02452 15.5764 8.55746 16.1539 9.99955 16.1539C12.5798 16.1539 14.0553 14.895 14.8386 13.8392C15.8081 12.5324 16.1534 10.9992 16.1534 10C16.1534 8.4676 15.5581 6.93466 14.5198 5.79424ZM12.957 6.86589C12.6865 6.04446 12.3062 5.33898 11.8588 4.82072C12.6222 5.09679 13.3167 5.53724 13.8936 6.11348C13.607 6.40034 13.2931 6.65232 12.957 6.86589ZM12.7781 9.67503H10.3246V8.36997C11.0998 8.32881 11.8482 8.1451 12.5529 7.82285C12.6829 8.41238 12.7585 9.03404 12.7781 9.67503ZM13.1427 7.51616C13.5747 7.25866 13.9714 6.95122 14.3251 6.60061C15.0157 7.47776 15.4266 8.55971 15.4926 9.67528H13.4281C13.4068 8.92562 13.3109 8.20006 13.1427 7.51616ZM10.3246 7.72171V4.53586C10.7281 4.63123 11.1214 4.90655 11.4702 5.34023C11.8444 5.80528 12.1604 6.4415 12.3878 7.18588C11.7413 7.49784 11.0484 7.67779 10.3246 7.72171ZM15.4926 10.325C15.4266 11.4406 15.0157 12.5223 14.3251 13.3995C13.9714 13.0486 13.5747 12.7414 13.1427 12.4839C13.3109 11.8 13.4068 11.075 13.4281 10.325H15.4926ZM10.3246 11.6299V10.325H12.7781C12.7585 10.9658 12.6829 11.5874 12.5529 12.1767C11.8482 11.8527 11.1001 11.6693 10.3246 11.6299ZM11.859 15.1781C12.3065 14.6606 12.6865 13.9549 12.9573 13.1319C13.2933 13.3453 13.6073 13.5977 13.8939 13.8846C13.3169 14.4626 12.6225 14.9033 11.859 15.1781ZM10.3246 15.4645V12.2781C11.0441 12.3203 11.737 12.5002 12.3878 12.8144C12.1607 13.5593 11.8444 14.196 11.4702 14.6608C11.1216 15.0938 10.7284 15.3691 10.3246 15.4645ZM9.67479 8.37022V9.67528H7.22128C7.24086 9.0343 7.3164 8.41238 7.44641 7.82285C8.15314 8.1451 8.90129 8.32881 9.67479 8.37022ZM6.10521 6.11548C6.68219 5.5375 7.37664 5.09679 8.14009 4.82197C7.69261 5.33948 7.31264 6.04521 7.04184 6.86815C6.70579 6.65482 6.39182 6.40235 6.10521 6.11548ZM4.50651 9.67503C4.57252 8.55946 4.98336 7.47776 5.67404 6.60061C6.03218 6.95624 6.42997 7.26394 6.85863 7.51666C6.69048 8.20031 6.59461 8.92537 6.57327 9.67503H4.50651ZM7.04209 13.1339C7.31314 13.9566 7.69261 14.6619 8.13909 15.1789C7.37613 14.9028 6.68194 14.4626 6.10546 13.8866C6.39207 13.5997 6.70604 13.3473 7.04209 13.1339ZM7.22103 10.3248H9.67454V11.6299C8.89929 11.671 8.15089 11.8547 7.44616 12.177C7.31615 11.5874 7.24061 10.9658 7.22103 10.3248ZM6.85863 12.4837C6.42771 12.7407 6.03017 13.0481 5.67404 13.3997C4.98336 12.5248 4.57227 11.4429 4.50626 10.3248H6.57327C6.59461 11.0745 6.69048 11.7998 6.85863 12.4837ZM9.67454 12.2781V15.464C9.27098 15.3686 8.8777 15.0933 8.52885 14.6596C8.15465 14.1945 7.83868 13.5583 7.61129 12.8139C8.2578 12.5022 8.95074 12.3223 9.67454 12.2781ZM9.67454 4.53561V7.72171C8.95475 7.67955 8.26207 7.4996 7.61129 7.18538C7.83842 6.44049 8.15465 5.80378 8.52885 5.33898C8.87745 4.90605 9.27073 4.63073 9.67454 4.53561Z" fill="#55585B"/>
</svg>
